<svg xmlns="http://www.w3.org/2000/svg" xmlns:xlink="http://www.w3.org/1999/xlink" fill="none" version="1.1" width="68" height="68" viewBox="0 0 68 68"><defs><filter id="master_svg0_79_9504" filterUnits="objectBoundingBox" color-interpolation-filters="sRGB" x="-12" y="-10" width="74" height="74"><feFlood flood-opacity="0" result="BackgroundImageFix"/><feColorMatrix in="SourceAlpha" type="matrix" values="0 0 0 0 0 0 0 0 0 0 0 0 0 0 0 0 0 0 127 0"/><feOffset dy="2" dx="0"/><feGaussianBlur stdDeviation="3"/><feColorMatrix type="matrix" values="0 0 0 0 0 0 0 0 0 0 0 0 0 0 0 0 0 0 0.10000000149011612 0"/><feBlend mode="normal" in2="BackgroundImageFix" result="effect1_dropShadow"/><feBlend mode="normal" in="SourceGraphic" in2="effect1_dropShadow" result="shape"/></filter><clipPath id="master_svg1_79_9509"><rect x="23" y="21" width="22" height="22.000001907348633" rx="0"/></clipPath></defs><g><g filter="url(#master_svg0_79_9504)"><ellipse cx="34" cy="32" rx="25" ry="25" fill="#FFFFFF" fill-opacity="1"/></g><g><ellipse cx="34" cy="32" rx="20" ry="20" fill="#CCCCCC" fill-opacity="1"/></g><g clip-path="url(#master_svg1_79_9509)"><g><rect x="23" y="21" width="22.000001907348633" height="22.000001907348633" rx="0" fill="#FFFFFF" fill-opacity="0.009999999776482582"/></g><g><path d="M38.146483203125,23.2086181640625L37.206983203125,23.2086181640625Q37.108483203125,23.2086181640625,37.011883203125,23.2278331640625Q36.915283203125,23.247048164062498,36.824283203125,23.2847391640625Q36.733283203125,23.3224301640625,36.651383203125,23.3771481640625Q36.569483203125,23.4318671640625,36.499843203124996,23.5015111640625Q36.430203203125004,23.5711551640625,36.375483203125,23.6530481640625Q36.320763203125,23.7349401640625,36.283073203125,23.8259351640625Q36.245383203125,23.9169291640625,36.226163203125,24.0135281640625Q36.206953203124996,24.1101267640625,36.206953203124996,24.2086181640625Q36.206953203124996,24.3071095640625,36.226163203125,24.4037081640625Q36.245383203125,24.5003071640625,36.283073203125,24.5913011640625Q36.320763203125,24.6822961640625,36.375483203125,24.7641881640625Q36.430203203125004,24.8460811640625,36.499843203124996,24.9157251640625Q36.569483203125,24.9853691640625,36.651383203125,25.0400881640625Q36.733283203125,25.0948061640625,36.824283203125,25.1324971640625Q36.915283203125,25.170188164062502,37.011883203125,25.1894031640625Q37.108483203125,25.2086181640625,37.206983203125,25.2086181640625L40.331983203125,25.2086181640625L40.331983203125,40.1669181640625L27.665283203125,40.1669181640625L27.665283203125,25.2086181640625L30.331953203125,25.2086181640625L30.790283203125,25.2086181640625Q30.888773203124998,25.2086181640625,30.985373203125,25.1894031640625Q31.081973203125,25.170188164062502,31.172963203125,25.1324971640625Q31.263963203125,25.0948061640625,31.345853203125,25.0400881640625Q31.427743203125,24.9853691640625,31.497393203125,24.9157251640625Q31.567033203125,24.8460811640625,31.621753203125,24.7641881640625Q31.676473203125,24.6822961640625,31.714163203125,24.5913011640625Q31.751853203125002,24.5003071640625,31.771073203125,24.4037081640625Q31.790283203125,24.3071095640625,31.790283203125,24.2086181640625Q31.790283203125,24.1101267640625,31.771073203125,24.0135281640625Q31.751853203125002,23.9169291640625,31.714163203125,23.8259351640625Q31.676473203125,23.7349401640625,31.621753203125,23.6530481640625Q31.567033203125,23.5711551640625,31.497393203125,23.5015111640625Q31.427743203125,23.4318671640625,31.345853203125,23.3771481640625Q31.263963203125,23.3224301640625,31.172963203125,23.2847391640625Q31.081973203125,23.247048164062498,30.985373203125,23.2278331640625Q30.888773203124998,23.2086181640625,30.790283203125,23.2086181640625L30.331953203125,23.2086181640625L27.581950203125,23.2086181640625Q26.788040203125,23.2086181640625,26.226662203125,23.7699971640625Q25.665283203125,24.3313751640625,25.665283203125,25.1252851640625L25.665283203125,40.2503181640625Q25.665283203125,41.0442181640625,26.226664203125,41.6056181640625Q26.788041203125,42.1669181640625,27.581950203125,42.1669181640625L40.415283203125,42.1669181640625Q41.209183203125,42.1669181640625,41.770583203125,41.6056181640625Q42.331983203125,41.0442181640625,42.331983203125,40.2503181640625L42.331983203125,25.1252851640625Q42.331983203125,24.3313761640625,41.770583203125,23.7700001640625Q41.209183203125,23.2086181640625,40.415283203125,23.2086181640625L38.146483203125,23.2086181640625Z" fill-rule="evenodd" fill="#FFFFFF" fill-opacity="1"/></g><g><path d="M29.790283203125,25.5836181640625L29.790283203125,22.8336181640625Q29.790283203125,22.7351267640625,29.809498203125,22.6385281640625Q29.828713203124998,22.5419291640625,29.866404203125,22.4509351640625Q29.904095203125,22.3599401640625,29.958813203125,22.2780481640625Q30.013532203125,22.1961551640625,30.083176203125,22.1265111640625Q30.152820203125,22.0568671640625,30.234713203125,22.0021481640625Q30.316605203125,21.9474301640625,30.407600203125,21.9097391640625Q30.498594203125,21.872048164062498,30.595193203125,21.8528331640625Q30.691791803125,21.8336181640625,30.790283203125,21.8336181640625L37.206953203124996,21.8336181640625Q37.305443203125,21.8336181640625,37.402043203125004,21.8528331640625Q37.498643203125,21.872048164062498,37.589633203125,21.9097391640625Q37.680623203125,21.9474301640625,37.762523203125,22.0021481640625Q37.844413203125,22.0568671640625,37.914053203125,22.1265111640625Q37.983703203125,22.1961551640625,38.038423203125,22.2780481640625Q38.093133203125,22.3599401640625,38.130833203125,22.4509351640625Q38.168523203125,22.5419291640625,38.187733203125,22.6385281640625Q38.206953203124996,22.7351267640625,38.206953203124996,22.8336181640625L38.206953203124996,25.5836181640625Q38.206953203124996,25.682108164062498,38.187733203125,25.7787081640625Q38.168523203125,25.8753081640625,38.130833203125,25.9662981640625Q38.093133203125,26.0572981640625,38.038423203125,26.1391881640625Q37.983703203125,26.2210781640625,37.914053203125,26.2907281640625Q37.844413203125,26.3603681640625,37.762523203125,26.4150881640625Q37.680623203125,26.4698081640625,37.589633203125,26.5074981640625Q37.498643203125,26.545188164062502,37.402043203125004,26.5644081640625Q37.305443203125,26.5836181640625,37.206953203124996,26.5836181640625L30.790283203125,26.5836181640625Q30.691791803125,26.5836181640625,30.595193203125,26.5644081640625Q30.498594203125,26.545188164062502,30.407600203125,26.5074981640625Q30.316605203125,26.4698081640625,30.234713203125,26.4150881640625Q30.152820203125,26.3603681640625,30.083176203125,26.2907281640625Q30.013532203125,26.2210781640625,29.958813203125,26.1391881640625Q29.904095203125,26.0572981640625,29.866404203125,25.9662981640625Q29.828713203124998,25.8753081640625,29.809498203125,25.7787081640625Q29.790283203125,25.682108164062498,29.790283203125,25.5836181640625ZM31.790283203125,23.8336181640625L31.790283203125,24.5836181640625L36.206953203124996,24.5836181640625L36.206953203124996,23.8336181640625L31.790283203125,23.8336181640625Z" fill="#FFFFFF" fill-opacity="1"/></g><g><rect x="30" y="30" width="8" height="2" rx="1" fill="#FFFFFF" fill-opacity="1"/></g><g><rect x="30" y="34" width="8" height="2" rx="1" fill="#FFFFFF" fill-opacity="1"/></g></g></g></svg>