<svg xmlns="http://www.w3.org/2000/svg" xmlns:xlink="http://www.w3.org/1999/xlink" fill="none" version="1.1" width="68" height="68" viewBox="0 0 68 68"><defs><filter id="master_svg0_79_9636" filterUnits="objectBoundingBox" color-interpolation-filters="sRGB" x="-12" y="-10" width="74" height="74"><feFlood flood-opacity="0" result="BackgroundImageFix"/><feColorMatrix in="SourceAlpha" type="matrix" values="0 0 0 0 0 0 0 0 0 0 0 0 0 0 0 0 0 0 127 0"/><feOffset dy="2" dx="0"/><feGaussianBlur stdDeviation="3"/><feColorMatrix type="matrix" values="0 0 0 0 0 0 0 0 0 0 0 0 0 0 0 0 0 0 0.10000000149011612 0"/><feBlend mode="normal" in2="BackgroundImageFix" result="effect1_dropShadow"/><feBlend mode="normal" in="SourceGraphic" in2="effect1_dropShadow" result="shape"/></filter><clipPath id="master_svg1_79_9659"><rect x="23" y="21" width="22" height="22" rx="0"/></clipPath></defs><g><g filter="url(#master_svg0_79_9636)"><ellipse cx="34" cy="32" rx="25" ry="25" fill="#FFFFFF" fill-opacity="1"/></g><g><ellipse cx="34" cy="32" rx="20" ry="20" fill="#FF5222" fill-opacity="1"/></g><g clip-path="url(#master_svg1_79_9659)"><g><path d="M24.833251953125,39.875L33.999921953124996,39.875Q34.098411953125,39.875,34.195011953125004,39.8558Q34.291601953124996,39.836600000000004,34.382601953125004,39.7989Q34.473591953125,39.7612,34.555491953125,39.7065Q34.637381953125,39.6517,34.707021953125,39.5821Q34.776671953125,39.5125,34.831391953125,39.4306Q34.886151953125,39.3487,34.923751953125,39.2577Q34.961451953125,39.1667,34.980751953125,39.0701Q34.999951953125,38.9735,34.999951953125,38.875Q34.999951953125,38.7765,34.980751953125,38.6799Q34.961451953125,38.5833,34.923751953125,38.4923Q34.886151953125,38.4013,34.831391953125,38.3194Q34.776671953125,38.2375,34.707021953125,38.1679Q34.637381953125,38.0982,34.555491953125,38.0435Q34.473591953125,37.9888,34.382601953125004,37.9511Q34.291601953124996,37.913399999999996,34.195011953125004,37.8942Q34.098411953125,37.875,33.999921953124996,37.875L25.833251953125,37.875L25.833251953125,26.125L42.166551953125,26.125L42.166551953125,32Q42.166551953125,32.09849,42.185751953125,32.19509Q42.205051953125,32.29169,42.242751953125,32.38268Q42.280351953125,32.47368,42.335151953125,32.55557Q42.389851953125,32.63746,42.459451953125,32.70711Q42.529151953125,32.77675,42.611051953125,32.83147Q42.692951953125004,32.88619,42.783851953125,32.92388Q42.874851953125,32.96157,42.971451953125,32.98078Q43.068051953125,33,43.166551953125,33Q43.265051953124996,33,43.361651953125005,32.98078Q43.458251953125,32.96157,43.549251953125,32.92388Q43.640251953125,32.88619,43.722151953125,32.83147Q43.804051953125,32.77675,43.873651953125005,32.70711Q43.943351953125,32.63746,43.998051953125,32.55557Q44.052751953125,32.47368,44.090451953125,32.38268Q44.128151953125,32.29169,44.147351953124996,32.19509Q44.166551953125,32.09849,44.166551953125,32L44.166551953125,25.125Q44.166551953125,25.0265086,44.147351953124996,24.92991Q44.128151953125,24.833311,44.090451953125,24.742317Q44.052751953125,24.651322,43.998051953125,24.56943Q43.943351953125,24.487537,43.873651953125005,24.417893Q43.804051953125,24.348249,43.722151953125,24.29353Q43.640251953125,24.238812,43.549251953125,24.201121Q43.458251953125,24.163429999999998,43.361651953125005,24.144215Q43.265051953124996,24.125,43.166551953125,24.125L24.833251953125,24.125Q24.734760553125,24.125,24.638161953125,24.144215Q24.541562953125,24.163429999999998,24.450568953125,24.201121Q24.359573953125,24.238812,24.277681953125,24.29353Q24.195788953125,24.348249,24.126144953125,24.417893Q24.056500953125,24.487537,24.001781953125,24.56943Q23.947063953125,24.651322,23.909372953125,24.742317Q23.871681953124998,24.833311,23.852466953125,24.92991Q23.833251953125,25.0265086,23.833251953125,25.125L23.833251953125,38.875Q23.833251953125,38.9735,23.852466953125,39.0701Q23.871681953124998,39.1667,23.909372953125,39.2577Q23.947063953125,39.3487,24.001781953125,39.4306Q24.056500953125,39.5125,24.126144953125,39.5821Q24.195788953125,39.6517,24.277681953125,39.7065Q24.359573953125,39.7612,24.450568953125,39.7989Q24.541562953125,39.836600000000004,24.638161953125,39.8558Q24.734760553125,39.875,24.833251953125,39.875Z" fill-rule="evenodd" fill="#FFFFFF" fill-opacity="1"/></g><g><path d="M43.166669999999996,35.5833740234375L36.75,35.5833740234375Q36.6515086,35.5833740234375,36.55491,35.6025890234375Q36.458311,35.6218040234375,36.367317,35.6594950234375Q36.276322,35.6971860234375,36.19443,35.7519040234375Q36.112537,35.8066230234375,36.042893,35.8762670234375Q35.973249,35.9459110234375,35.91853,36.0278040234375Q35.863812,36.1096960234375,35.826121,36.2006910234375Q35.78843,36.2916850234375,35.769215,36.3882840234375Q35.75,36.4848826234375,35.75,36.5833740234375Q35.75,36.6818654234375,35.769215,36.7784640234375Q35.78843,36.8750630234375,35.826121,36.9660570234375Q35.863812,37.0570520234375,35.91853,37.1389440234375Q35.973249,37.2208370234375,36.042893,37.2904810234375Q36.112537,37.3601250234375,36.19443,37.4148440234375Q36.276322,37.4695620234375,36.367317,37.5072530234375Q36.458311,37.5449440234375,36.55491,37.5641590234375Q36.6515086,37.5833740234375,36.75,37.5833740234375L43.166669999999996,37.5833740234375Q43.26516,37.5833740234375,43.361760000000004,37.5641590234375Q43.45836,37.5449440234375,43.54935,37.5072530234375Q43.64034,37.4695620234375,43.72224,37.4148440234375Q43.80413,37.3601250234375,43.87377,37.2904810234375Q43.94342,37.2208370234375,43.99814,37.1389440234375Q44.05285,37.0570520234375,44.09055,36.9660570234375Q44.12824,36.8750630234375,44.14745,36.7784640234375Q44.166669999999996,36.6818654234375,44.166669999999996,36.5833740234375Q44.166669999999996,36.4848826234375,44.14745,36.3882840234375Q44.12824,36.2916850234375,44.09055,36.2006910234375Q44.05285,36.1096960234375,43.99814,36.0278040234375Q43.94342,35.9459110234375,43.87377,35.8762670234375Q43.80413,35.8066230234375,43.72224,35.7519040234375Q43.64034,35.6971860234375,43.54935,35.6594950234375Q43.45836,35.6218040234375,43.361760000000004,35.6025890234375Q43.26516,35.5833740234375,43.166669999999996,35.5833740234375Z" fill-rule="evenodd" fill="#FFFFFF" fill-opacity="1"/></g><g><path d="M36.042893,37.2903959765625L38.33425,39.5817559765625L38.33456,39.582065976562504Q38.47521,39.7227159765625,38.65898,39.7988359765625Q38.84275,39.874955976562504,39.041669999999996,39.874955976562504Q39.24058,39.874955976562504,39.42435,39.7988359765625Q39.60812,39.7227159765625,39.74877,39.582065976562504Q39.88943,39.4414159765625,39.96555,39.2576459765625Q40.041669999999996,39.0738759765625,40.041669999999996,38.874955976562504Q40.041669999999996,38.8509259765625,40.04051,38.8269259765625Q40.03156,38.6406859765625,39.95609,38.4701959765625Q39.88062,38.299695976562504,39.74877,38.1678559765625L38.16421,36.583295976562496L39.74877,34.9987329765625Q39.88943,34.8580799765625,39.96555,34.6743089765625Q40.041669999999996,34.4905379765625,40.041669999999996,34.2916259765625Q40.041669999999996,34.0927139765625,39.96555,33.9089429765625Q39.88943,33.7251719765625,39.74877,33.5845189765625Q39.60812,33.4438669765625,39.42435,33.3677459765625Q39.24058,33.2916259765625,39.041669999999996,33.2916259765625Q38.84275,33.2916259765625,38.65898,33.3677459765625Q38.47521,33.4438669765625,38.33456,33.5845189765625L36.042893,35.8761859765625Q35.973249,35.9458259765625,35.91853,36.0277259765625Q35.863812,36.1096159765625,35.826121,36.2006059765625Q35.78843,36.2916059765625,35.769215,36.3882059765625Q35.75,36.4847959765625,35.75,36.583295976562496Q35.75,36.6817859765625,35.769215,36.7783859765625Q35.78843,36.8749859765625,35.826121,36.9659759765625Q35.863812,37.0569659765625,35.91853,37.1388659765625Q35.973249,37.2207559765625,36.042893,37.2903959765625Z" fill-rule="evenodd" fill="#FFFFFF" fill-opacity="1"/></g><g><path d="M34.599921953125,32.8L43.766551953125,25.925Q43.859751953125,25.85514,43.934351953125,25.765748Q44.008951953125,25.676356,44.061051953125,25.572215Q44.113051953125,25.468073,44.139851953125,25.354755Q44.166551953125,25.241436,44.166551953125,25.12500250157L44.166451953125005,25.1118785Q44.164451953124995,24.952979,44.113151953125,24.802555Q44.061951953125,24.65213,43.966551953125,24.525Q43.847251953124996,24.36587,43.676051953125,24.264525Q43.504951953125,24.163181,43.308051953125,24.13505Q43.237651953124995,24.125001,43.166551953125,24.125L43.163151953124995,24.125006Q43.001751953125,24.12556,42.848751953125,24.176861Q42.695751953125,24.228162,42.566551953125,24.325L33.999921953124996,30.75L25.433251953125,24.325Q25.303429953125,24.227633,25.149479953125,24.176317Q24.995529953125,24.125,24.83325208397,24.125L24.824449453125,24.125039Q24.757806353125,24.125625,24.691830953125,24.135051Q24.494916953125,24.163181,24.323757953125,24.264526Q24.152599953125,24.36587,24.033251953125,24.525Q23.935884953125,24.654822,23.884568953125,24.808772Q23.833251953125,24.962722,23.833251953125,25.125L23.833290953125,25.1338025Q23.833876953125,25.2004456,23.843302953125,25.266421Q23.871432953125,25.463335,23.972777953125,25.634494Q24.074121953125,25.805653,24.233251953125,25.925L33.399921953125,32.8Q33.464411953125,32.84837,33.535811953125,32.88578Q33.607211953125,32.92319,33.683691953125,32.94868Q33.760161953125,32.97418,33.839731953124996,32.98709Q33.919311953125,33,33.999921953124996,33Q34.080531953125,33,34.160101953125,32.98709Q34.239671953125,32.97418,34.316141953125,32.94868Q34.392621953125,32.92319,34.464021953125,32.88578Q34.535431953125,32.84837,34.599921953125,32.8Z" fill-rule="evenodd" fill="#FFFFFF" fill-opacity="1"/></g></g></g></svg>
