<svg xmlns="http://www.w3.org/2000/svg" xmlns:xlink="http://www.w3.org/1999/xlink" fill="none" version="1.1" width="68" height="68" viewBox="0 0 68 68"><defs><filter id="master_svg0_79_9770" filterUnits="objectBoundingBox" color-interpolation-filters="sRGB" x="-12" y="-10" width="74" height="74"><feFlood flood-opacity="0" result="BackgroundImageFix"/><feColorMatrix in="SourceAlpha" type="matrix" values="0 0 0 0 0 0 0 0 0 0 0 0 0 0 0 0 0 0 127 0"/><feOffset dy="2" dx="0"/><feGaussianBlur stdDeviation="3"/><feColorMatrix type="matrix" values="0 0 0 0 0 0 0 0 0 0 0 0 0 0 0 0 0 0 0.10000000149011612 0"/><feBlend mode="normal" in2="BackgroundImageFix" result="effect1_dropShadow"/><feBlend mode="normal" in="SourceGraphic" in2="effect1_dropShadow" result="shape"/></filter><clipPath id="master_svg1_79_9783"><rect x="45" y="21" width="22" height="22" rx="0"/></clipPath></defs><g><g filter="url(#master_svg0_79_9770)"><ellipse cx="34" cy="32" rx="25" ry="25" fill="#FFFFFF" fill-opacity="1"/></g><g><ellipse cx="34" cy="32" rx="20" ry="20" fill="#CCCCCC" fill-opacity="1"/></g><g transform="matrix(-1,0,0,1,90,0)" clip-path="url(#master_svg1_79_9783)"><g transform="matrix(-1,0,0,1,134,0)"></g><g><path d="M57.56911484375,34.8956765625C57.530014843749996,34.9830765625,57.509914843749996,35.0777765625,57.51001484375,35.1734765625C57.51001484375,35.3521765625,57.580114843749996,35.522676562499996,57.70661484375,35.6477765625L59.06231484375,37.0035765625C59.55461484375,37.4957765625,60.41671484375,37.4985765625,60.91171484375,37.0035765625L65.35851484375,32.5581765625C65.86721484374999,32.0466765625,65.86721484374999,31.2175765625,65.35711484375,30.7074465625L64.00131484375,29.351696562500003C63.79921484375,29.1454465625,63.47741484375,29.086316562500002,63.20801484375,29.2375665625L57.49071484375,23.5216965625C57.54301484375,23.424066562500002,57.57181484375,23.3140665625,57.57181484375,23.2013165625C57.57181484375,23.0198165625,57.50171484375,22.8506965625,57.37381484375,22.7255665625L56.01811484375,21.3711955625C55.52311484375,20.8761955625,54.66234484375,20.8789455625,54.168714843749996,21.3711955625L49.72334484375,25.8165665625C49.21183484375,26.3266965625,49.21183484375,27.1558165625,49.72334484375,27.6659465625L51.07909484375,29.0216965625C51.27296484375,29.2183165625,51.59059484375,29.2705665625,51.83121484375,29.1591965625L53.45234484375,30.7789465625L45.51033984375,38.7222765625C45.32333984375,38.9092765625,45.22021484375,39.1567765625,45.22021484375,39.420776562499995C45.22021484375,39.683476562500005,45.32333984375,39.9322765625,45.51033984375,40.1165765625L46.84683484375,41.4544765625C47.03383484375,41.6400765625,47.28133484375,41.7431765625,47.54396484375,41.7431765625C47.80658484375,41.7431765625,48.05546484375,41.6400765625,48.24108484375,41.4530765625L56.18451484375,33.5096765625L57.56911484375,34.8956765625ZM52.86796484375,28.1870665625L56.50891484375,24.5474465625L62.18361484375,30.2220665625L58.54121484375,33.8616765625L56.18441484375,31.5035765625L47.90696484375,39.7824765625C47.71171484375,39.974976562500004,47.37621484375,39.976276562500004,47.18096484375,39.781076562500004C47.08471484375,39.684776562500005,47.02971484375,39.5569765625,47.02971484375,39.420776562499995C47.02971484375,39.2832765625,47.08333484375,39.1554765625,47.18096484375,39.057776562499996L55.290714843749996,30.9466965625L55.459814843749996,30.7789465625L52.86796484375,28.1870665625ZM59.33871484375,35.1926765625C59.33871484375,35.1404765625,59.35931484375,35.0909765625,59.39641484375,35.052476562500004L63.40461484375,31.044276562500002C63.44171484375,31.0071765625,63.492614843750005,30.986566562500002,63.544814843750004,30.986566562500002C63.59711484375,30.986566562500002,63.64791484375,31.0071765625,63.68511484375,31.044276562500002L64.13611484375,31.4966765625C64.17311484375,31.5334765625,64.19391484375001,31.5834765625,64.19381484375,31.6355765625C64.19381484375,31.687776562499998,64.17321484375,31.7372765625,64.13611484375,31.7757765625L60.12791484375,35.7839765625C60.05371484375,35.8581765625,59.921714843749996,35.8581765625,59.84741484375,35.7839765625L59.39641484375,35.331576562500004C59.35951484375,35.2947765625,59.33871484375,35.2448765625,59.33871484375,35.1926765625ZM55.76091484375,23.2013165625C55.76091484375,23.2535665625,55.74031484375,23.3044465625,55.703214843750004,23.3415665625L51.69371484375,27.3510665625C51.61946484375,27.4253165625,51.48608484375,27.4253165625,51.41459484375,27.3510665625L50.94571484375,26.8808165625C50.86871484375,26.8038165625,50.86871484375,26.6773165625,50.94571484375,26.600316562499998L54.95384484375,22.5921965625C54.99096484375,22.5550665625,55.04184484375,22.5344465625,55.09546484375,22.5344465625C55.14771484375,22.5344465625,55.19859484375,22.5550665625,55.23431484375,22.5921965625L55.70461484375,23.0624465625C55.74061484375,23.0996865625,55.76081484375,23.1494765625,55.76091484375,23.2013165625ZM63.98621484375,39.4991765625L56.33021484375,39.4991765625C54.79021484375,39.4991765625,53.53759484375,40.7517765625,53.53759484375,42.290476562500004L53.53759484375,42.999976562499995L66.78021484375,42.999976562499995L66.78021484375,42.290476562500004C66.77881484375,40.7517765625,65.52761484375,39.4991765625,63.98621484375,39.4991765625ZM55.15321484375,41.5822765625C55.39801484375,41.1752765625,55.83801484375,40.9181765625,56.328814843749996,40.9181765625L63.98621484375,40.9181765625C64.47851484374999,40.9181765625,64.91851484375,41.1752765625,65.16181484375,41.5822765625L55.15321484375,41.5822765625Z" fill="#FFFFFF" fill-opacity="1"/></g></g></g></svg>