<svg xmlns="http://www.w3.org/2000/svg" xmlns:xlink="http://www.w3.org/1999/xlink" fill="none" version="1.1" width="68" height="68" viewBox="0 0 68 68"><defs><filter id="master_svg0_79_9665" filterUnits="objectBoundingBox" color-interpolation-filters="sRGB" x="-12" y="-10" width="74" height="74"><feFlood flood-opacity="0" result="BackgroundImageFix"/><feColorMatrix in="SourceAlpha" type="matrix" values="0 0 0 0 0 0 0 0 0 0 0 0 0 0 0 0 0 0 127 0"/><feOffset dy="2" dx="0"/><feGaussianBlur stdDeviation="3"/><feColorMatrix type="matrix" values="0 0 0 0 0 0 0 0 0 0 0 0 0 0 0 0 0 0 0.10000000149011612 0"/><feBlend mode="normal" in2="BackgroundImageFix" result="effect1_dropShadow"/><feBlend mode="normal" in="SourceGraphic" in2="effect1_dropShadow" result="shape"/></filter><clipPath id="master_svg1_79_9678"><rect x="23" y="21" width="22" height="22" rx="0"/></clipPath></defs><g><g filter="url(#master_svg0_79_9665)"><ellipse cx="34" cy="32" rx="25" ry="25" fill="#FFFFFF" fill-opacity="1"/></g><g><ellipse cx="34" cy="32" rx="20" ry="20" fill="#FF5222" fill-opacity="1"/></g><g clip-path="url(#master_svg1_79_9678)"><g><rect x="23" y="21" width="22" height="22" rx="0" fill="#FFFFFF" fill-opacity="0"/></g><g><path d="M25.66650390625,23.7500410234375L25.66650390625,40.2500740234375Q25.66650390625,41.0439740234375,26.22788590625,41.6053740234375Q26.78926190625,42.1666740234375,27.58317090625,42.1666740234375L40.41650390625,42.1666740234375Q41.21040390625,42.1666740234375,41.77180390625,41.6053740234375Q42.33320390625,41.0439740234375,42.33320390625,40.2500740234375L42.33320390625,27.4167040234375Q42.33320390625,27.2177940234375,42.25700390625,27.0340240234375Q42.18090390625,26.8502540234375,42.04030390625,26.7096040234375L37.45690390625,22.1262670234375Q37.31630390625,21.9856150234375,37.13250390625,21.9094940234375Q36.94870390625,21.8333740234375,36.74980390625,21.8333740234375L27.58317090625,21.8333740234375Q26.78926090625,21.8333740234375,26.22788190625,22.3947530234375Q25.66650390625,22.9561310234375,25.66650390625,23.7500410234375ZM27.66650390625,40.1666740234375L40.33320390625,40.1666740234375L40.33320390625,27.8309240234375L36.33562390625,23.8333740234375L27.66650390625,23.8333740234375L27.66650390625,40.1666740234375Z" fill-rule="evenodd" fill="#FFFFFF" fill-opacity="1"/></g><g><path d="M30.33349609375,31.1666259765625L37.666826093750004,31.1666259765625Q37.75857609375,31.1666259765625,37.848796093749996,31.1499309765625Q37.93429609375,31.1341089765625,38.01578609375,31.1037639765625Q38.09727609375,31.0734199765625,38.17230609375,31.0294649765625Q38.24733609375,30.9855109765625,38.31365609375,30.9292649765625Q38.37996609375,30.8730199765625,38.435586093750004,30.8061709765625Q38.49119609375,30.7393229765625,38.53443609375,30.6638789765625Q38.57767609375,30.5884349765625,38.60724609375,30.5066599765625Q38.63681609375,30.4248849765625,38.65181609375,30.3392339765625Q38.666826093750004,30.2535824765625,38.666826093750004,30.1666259765625Q38.666826093750004,30.0681345765625,38.64761609375,29.9715359765625Q38.62839609375,29.8749369765625,38.59070609375,29.7839429765625Q38.55301609375,29.6929479765625,38.49829609375,29.6110559765625Q38.443576093749996,29.5291629765625,38.373936093750004,29.4595189765625Q38.30429609375,29.3898749765625,38.22239609375,29.3351559765625Q38.14050609375,29.2804379765625,38.04951609375,29.2427469765625Q37.95851609375,29.205055976562498,37.86191609375,29.1858409765625Q37.76531609375,29.1666259765625,37.666826093750004,29.1666259765625L30.33349609375,29.1666259765625Q30.23500469375,29.1666259765625,30.13840609375,29.1858409765625Q30.04180709375,29.205055976562498,29.95081309375,29.2427469765625Q29.85981809375,29.2804379765625,29.77792609375,29.3351559765625Q29.69603309375,29.3898749765625,29.62638909375,29.4595189765625Q29.55674509375,29.5291629765625,29.50202609375,29.6110559765625Q29.44730809375,29.6929479765625,29.40961709375,29.7839429765625Q29.371926093749998,29.8749369765625,29.35271109375,29.9715359765625Q29.33349609375,30.0681345765625,29.33349609375,30.1666259765625Q29.33349609375,30.2651173765625,29.35271109375,30.3617159765625Q29.371926093749998,30.4583149765625,29.40961709375,30.5493089765625Q29.44730809375,30.6403039765625,29.50202609375,30.7221959765625Q29.55674509375,30.8040889765625,29.62638909375,30.8737329765625Q29.69603309375,30.9433769765625,29.77792609375,30.9980959765625Q29.85981809375,31.0528139765625,29.95081309375,31.0905049765625Q30.04180709375,31.128195976562502,30.13840609375,31.1474109765625Q30.23500469375,31.1666259765625,30.33349609375,31.1666259765625Z" fill-rule="evenodd" fill="#FFFFFF" fill-opacity="1"/></g><g><path d="M30.33349609375,34.8333740234375L37.666826093750004,34.8333740234375Q37.75857609375,34.8333740234375,37.848796093749996,34.8166790234375Q37.93429609375,34.8008570234375,38.01578609375,34.7705120234375Q38.09727609375,34.7401680234375,38.17230609375,34.6962130234375Q38.24733609375,34.6522590234375,38.31365609375,34.5960130234375Q38.37996609375,34.5397680234375,38.435586093750004,34.4729190234375Q38.49119609375,34.4060710234375,38.53443609375,34.3306270234375Q38.57767609375,34.2551830234375,38.60724609375,34.1734080234375Q38.63681609375,34.0916330234375,38.65181609375,34.0059820234375Q38.666826093750004,33.9203305234375,38.666826093750004,33.8333740234375Q38.666826093750004,33.7348826234375,38.64761609375,33.6382840234375Q38.62839609375,33.5416850234375,38.59070609375,33.4506910234375Q38.55301609375,33.3596960234375,38.49829609375,33.2778040234375Q38.443576093749996,33.1959110234375,38.373936093750004,33.1262670234375Q38.30429609375,33.0566230234375,38.22239609375,33.0019040234375Q38.14050609375,32.9471860234375,38.04951609375,32.9094950234375Q37.95851609375,32.8718040234375,37.86191609375,32.8525890234375Q37.76531609375,32.8333740234375,37.666826093750004,32.8333740234375L30.33349609375,32.8333740234375Q30.23500469375,32.8333740234375,30.13840609375,32.8525890234375Q30.04180709375,32.8718040234375,29.95081309375,32.9094950234375Q29.85981809375,32.9471860234375,29.77792609375,33.0019040234375Q29.69603309375,33.0566230234375,29.62638909375,33.1262670234375Q29.55674509375,33.1959110234375,29.50202609375,33.2778040234375Q29.44730809375,33.3596960234375,29.40961709375,33.4506910234375Q29.371926093749998,33.5416850234375,29.35271109375,33.6382840234375Q29.33349609375,33.7348826234375,29.33349609375,33.8333740234375Q29.33349609375,33.9318654234375,29.35271109375,34.0284640234375Q29.371926093749998,34.1250630234375,29.40961709375,34.2160570234375Q29.44730809375,34.3070520234375,29.50202609375,34.3889440234375Q29.55674509375,34.4708370234375,29.62638909375,34.5404810234375Q29.69603309375,34.6101250234375,29.77792609375,34.6648440234375Q29.85981809375,34.7195620234375,29.95081309375,34.7572530234375Q30.04180709375,34.7949440234375,30.13840609375,34.8141590234375Q30.23500469375,34.8333740234375,30.33349609375,34.8333740234375Z" fill-rule="evenodd" fill="#FFFFFF" fill-opacity="1"/></g></g></g></svg>
