<svg xmlns="http://www.w3.org/2000/svg" xmlns:xlink="http://www.w3.org/1999/xlink" fill="none" version="1.1" width="26" height="75" viewBox="0 0 26 75"><defs><filter id="master_svg0_96_00543" filterUnits="objectBoundingBox" color-interpolation-filters="sRGB" x="-8" y="-6" width="30" height="30"><feFlood flood-opacity="0" result="BackgroundImageFix"/><feColorMatrix in="SourceAlpha" type="matrix" values="0 0 0 0 0 0 0 0 0 0 0 0 0 0 0 0 0 0 127 0"/><feOffset dy="2" dx="0"/><feGaussianBlur stdDeviation="2"/><feColorMatrix type="matrix" values="0 0 0 0 0 0 0 0 0 0 0 0 0 0 0 0 0 0 0.10000000149011612 0"/><feBlend mode="normal" in2="BackgroundImageFix" result="effect1_dropShadow"/><feBlend mode="normal" in="SourceGraphic" in2="effect1_dropShadow" result="shape"/></filter><filter id="master_svg1_96_00544" filterUnits="objectBoundingBox" color-interpolation-filters="sRGB" x="-8" y="-6" width="24" height="24"><feFlood flood-opacity="0" result="BackgroundImageFix"/><feColorMatrix in="SourceAlpha" type="matrix" values="0 0 0 0 0 0 0 0 0 0 0 0 0 0 0 0 0 0 127 0"/><feOffset dy="2" dx="0"/><feGaussianBlur stdDeviation="2"/><feColorMatrix type="matrix" values="0 0 0 0 0 0 0 0 0 0 0 0 0 0 0 0 0 0 0.10000000149011612 0"/><feBlend mode="normal" in2="BackgroundImageFix" result="effect1_dropShadow"/><feBlend mode="normal" in="SourceGraphic" in2="effect1_dropShadow" result="shape"/></filter></defs><g><g><g filter="url(#master_svg0_96_00543)"><ellipse cx="13" cy="11" rx="7" ry="7" fill="#FFFFFF" fill-opacity="1"/></g><g filter="url(#master_svg1_96_00544)"><ellipse cx="13" cy="47" rx="4" ry="4" fill="#FFFFFF" fill-opacity="1"/></g><g><ellipse cx="13" cy="11" rx="4" ry="4" fill="#A69480" fill-opacity="1"/></g><g><ellipse cx="13" cy="47" rx="2" ry="2" fill="#A69480" fill-opacity="1"/></g><g><path d="M12.5,21.741363525390625L12.5,22.241363525390625L12.75,22.241363525390625L12.75,21.741363525390625L13.25,21.741363525390625L13.25,22.241363525390625L13.5,22.241363525390625L13.5,21.241363525390625L12.5,21.241363525390625L12.5,21.741363525390625ZM13.5,22.741363525390625L12.5,22.741363525390625L12.5,23.741363525390625L13.5,23.741363525390625L13.5,22.741363525390625ZM13.5,24.741363525390625L12.5,24.741363525390625L12.5,25.741363525390625L13.5,25.741363525390625L13.5,24.741363525390625ZM13.5,26.741363525390625L12.5,26.741363525390625L12.5,27.741363525390625L13.5,27.741363525390625L13.5,26.741363525390625ZM13.5,28.741363525390625L12.5,28.741363525390625L12.5,29.741363525390625L13.5,29.741363525390625L13.5,28.741363525390625ZM13.5,30.741363525390625L12.5,30.741363525390625L12.5,31.741363525390625L13.5,31.741363525390625L13.5,30.741363525390625ZM13.5,32.741363525390625L12.5,32.741363525390625L12.5,33.741363525390625L13.5,33.741363525390625L13.5,32.741363525390625ZM13.5,34.741363525390625L12.5,34.741363525390625L12.5,35.741363525390625L13.5,35.741363525390625L13.5,34.741363525390625ZM13.5,36.741363525390625L12.5,36.741363525390625L12.5,37.741363525390625L13.5,37.741363525390625L13.5,36.741363525390625ZM13.5,38.741363525390625L12.5,38.741363525390625L12.5,39.741363525390625L13.5,39.741363525390625L13.5,38.741363525390625ZM13.5,40.241363525390625L13.25,40.241363525390625L13.25,40.741363525390625L12.75,40.741363525390625L12.75,40.241363525390625L12.5,40.241363525390625L12.5,41.241363525390625L13.5,41.241363525390625L13.5,40.241363525390625Z" fill-rule="evenodd" fill="#CCCCCC" fill-opacity="1"/></g></g><g><path d="M12.5,55.5L12.5,56L12.75,56L12.75,55.5L13.25,55.5L13.25,56L13.5,56L13.5,55L12.5,55L12.5,55.5ZM13.5,56.5L12.5,56.5L12.5,57.5L13.5,57.5L13.5,56.5ZM13.5,58.5L12.5,58.5L12.5,59.5L13.5,59.5L13.5,58.5ZM13.5,60.5L12.5,60.5L12.5,61.5L13.5,61.5L13.5,60.5ZM13.5,62.5L12.5,62.5L12.5,63.5L13.5,63.5L13.5,62.5ZM13.5,64.5L12.5,64.5L12.5,65.5L13.5,65.5L13.5,64.5ZM13.5,66.5L12.5,66.5L12.5,67.5L13.5,67.5L13.5,66.5ZM13.5,68.5L12.5,68.5L12.5,69.5L13.5,69.5L13.5,68.5ZM13.5,70.5L12.5,70.5L12.5,71.5L13.5,71.5L13.5,70.5ZM13.5,72.5L12.5,72.5L12.5,73.5L13.5,73.5L13.5,72.5ZM13.5,74L13.25,74L13.25,74.5L12.75,74.5L12.75,74L12.5,74L12.5,75L13.5,75L13.5,74Z" fill-rule="evenodd" fill="#CCCCCC" fill-opacity="1"/></g></g></svg>
