<svg xmlns="http://www.w3.org/2000/svg" xmlns:xlink="http://www.w3.org/1999/xlink" fill="none" version="1.1" width="68" height="68" viewBox="0 0 68 68"><defs><filter id="master_svg0_112_00539" filterUnits="objectBoundingBox" color-interpolation-filters="sRGB" x="-12" y="-10" width="74" height="74"><feFlood flood-opacity="0" result="BackgroundImageFix"/><feColorMatrix in="SourceAlpha" type="matrix" values="0 0 0 0 0 0 0 0 0 0 0 0 0 0 0 0 0 0 127 0"/><feOffset dy="2" dx="0"/><feGaussianBlur stdDeviation="3"/><feColorMatrix type="matrix" values="0 0 0 0 0 0 0 0 0 0 0 0 0 0 0 0 0 0 0.10000000149011612 0"/><feBlend mode="normal" in2="BackgroundImageFix" result="effect1_dropShadow"/><feBlend mode="normal" in="SourceGraphic" in2="effect1_dropShadow" result="shape"/></filter><mask id="master_svg1_112_00540"><g><ellipse cx="74" cy="32" rx="20" ry="20" fill="#FFFFFF" fill-opacity="1"/></g></mask><clipPath id="master_svg2_112_00541"><rect x="23" y="21" width="22" height="22" rx="0"/></clipPath></defs><g><g filter="url(#master_svg0_112_00539)"><ellipse cx="34" cy="32" rx="25" ry="25" fill="#FFFFFF" fill-opacity="1"/></g><g><ellipse cx="34" cy="32" rx="20" ry="20" fill="#A69480" fill-opacity="0.30000001192092896"/></g><g transform="matrix(5.400848479553133e-8,1,-1,5.400848479553133e-8,65.99999708354181,-42.00000064810182)" mask="url(#master_svg1_112_00540)"><g><rect x="48" y="32" width="53" height="27" rx="0" fill="#A69480" fill-opacity="1"/></g></g><g clip-path="url(#master_svg2_112_00541)"><g><path d="M40.333330000000004,40.166669999999996L37.4375,40.166669999999996Q37.3390086,40.166669999999996,37.24241,40.18588Q37.145811,40.2051,37.054817,40.24279Q36.963822,40.28048,36.88193,40.3352Q36.800037,40.389920000000004,36.730393,40.459559999999996Q36.660749,40.5292,36.60603,40.6111Q36.551312,40.69299,36.513621,40.78398Q36.47593,40.87498,36.456715,40.97158Q36.4375,41.06818,36.4375,41.166669999999996Q36.4375,41.26516,36.456715,41.361760000000004Q36.47593,41.45836,36.513621,41.54935Q36.551312,41.64034,36.60603,41.72224Q36.660749,41.80413,36.730393,41.87377Q36.800037,41.94342,36.88193,41.99814Q36.963822,42.05285,37.054817,42.09055Q37.145811,42.12824,37.24241,42.14745Q37.3390086,42.166669999999996,37.4375,42.166669999999996L40.416669999999996,42.166669999999996Q41.210589999999996,42.166669999999996,41.77196,41.60529Q42.333330000000004,41.04392,42.333330000000004,40.25L42.333330000000004,36.125Q42.333330000000004,36.0265086,42.31412,35.92991Q42.2949,35.833311,42.25721,35.742317Q42.21952,35.651322,42.1648,35.56943Q42.110079999999996,35.487537,42.040440000000004,35.417893Q41.9708,35.348249,41.8889,35.29353Q41.80701,35.238812,41.71602,35.201121Q41.62502,35.16343,41.52842,35.144215Q41.43182,35.125,41.333330000000004,35.125Q41.23484,35.125,41.13824,35.144215Q41.04164,35.16343,40.95065,35.201121Q40.85966,35.238812,40.77776,35.29353Q40.69587,35.348249,40.62623,35.417893Q40.55658,35.487537,40.50186,35.56943Q40.44714,35.651322,40.40945,35.742317Q40.37176,35.833311,40.35255,35.92991Q40.333330000000004,36.0265086,40.333330000000004,36.125L40.333330000000004,40.166669999999996Z" fill-rule="evenodd" fill="#FFFFFF" fill-opacity="1"/></g><g><path d="M27.58317090625,42.1666740234375L30.33317390625,42.1666740234375Q30.42491390625,42.1666740234375,30.51513390625,42.1499740234375Q30.60063390625,42.134174023437495,30.68212390625,42.1038740234375Q30.76362390625,42.0734740234375,30.83864390625,42.029574023437505Q30.91367390625,41.9855740234375,30.97999390625,41.929374023437504Q31.04631390625,41.873074023437496,31.10192390625,41.806274023437496Q31.157533906250002,41.7393740234375,31.20077390625,41.663974023437504Q31.24401390625,41.5884740234375,31.27358390625,41.5067740234375Q31.30315390625,41.4249740234375,31.31816390625,41.3392740234375Q31.33317390625,41.2536740234375,31.33317390625,41.1666740234375Q31.33317390625,41.0681740234375,31.31395390625,40.9715740234375Q31.294743906249998,40.8749740234375,31.25705390625,40.7839740234375Q31.21935390625,40.693074023437504,31.16464390625,40.6111740234375Q31.10992390625,40.5292740234375,31.04027390625,40.4595740234375Q30.97063390625,40.3899740234375,30.88874390625,40.3352740234375Q30.806843906250002,40.2804740234375,30.71585390625,40.2428740234375Q30.62486390625,40.2051740234375,30.52826390625,40.1858740234375Q30.43166390625,40.1666740234375,30.33317390625,40.1666740234375L27.66650390625,40.1666740234375L27.66650390625,23.8333740234375L40.33320390625,23.8333740234375L40.33320390625,28.3333740234375Q40.33320390625,28.431864023437498,40.352403906250004,28.5284640234375Q40.37160390625,28.6250640234375,40.40930390625,28.7160540234375Q40.44700390625,28.8070540234375,40.50170390625,28.8889440234375Q40.55640390625,28.9708340234375,40.62610390625,29.0404840234375Q40.69570390625,29.1101240234375,40.77760390625,29.1648440234375Q40.85950390625,29.2195640234375,40.95050390625,29.2572540234375Q41.04150390625,29.294944023437502,41.13810390625,29.3141540234375Q41.23470390625,29.3333740234375,41.33320390625,29.3333740234375Q41.43170390625,29.3333740234375,41.52830390625,29.3141540234375Q41.62490390625,29.294944023437502,41.71580390625,29.2572540234375Q41.806803906249996,29.2195640234375,41.88870390625,29.1648440234375Q41.97060390625,29.1101240234375,42.04030390625,29.0404840234375Q42.10990390625,28.9708340234375,42.16460390625,28.8889440234375Q42.21940390625,28.8070540234375,42.25700390625,28.7160540234375Q42.29470390625,28.6250640234375,42.31400390625,28.5284640234375Q42.33320390625,28.431864023437498,42.33320390625,28.3333740234375L42.33320390625,23.7500410234375Q42.33320390625,22.9561310234375,41.77180390625,22.3947560234375Q41.21040390625,21.8333740234375,40.41650390625,21.8333740234375L27.58317090625,21.8333740234375Q26.78926090625,21.8333740234375,26.22788190625,22.3947530234375Q25.66650390625,22.9561310234375,25.66650390625,23.7500410234375L25.66650390625,40.2500740234375Q25.66650390625,41.0439740234375,26.22788590625,41.6053740234375Q26.78926190625,42.1666740234375,27.58317090625,42.1666740234375Z" fill-rule="evenodd" fill="#FFFFFF" fill-opacity="1"/></g><g><path d="M30.33349609375,29.3333740234375L36.750166093749996,29.3333740234375Q36.84865609375,29.3333740234375,36.945256093750004,29.3141590234375Q37.04185609375,29.294944023437502,37.13284609375,29.2572530234375Q37.22383609375,29.2195620234375,37.30573609375,29.1648440234375Q37.38762609375,29.1101250234375,37.45726609375,29.0404810234375Q37.52691609375,28.9708370234375,37.58163609375,28.8889440234375Q37.63634609375,28.8070520234375,37.67404609375,28.7160570234375Q37.71173609375,28.6250630234375,37.73094609375,28.5284640234375Q37.750166093749996,28.4318654234375,37.750166093749996,28.3333740234375Q37.750166093749996,28.2348826234375,37.73094609375,28.1382840234375Q37.71173609375,28.0416850234375,37.67404609375,27.9506910234375Q37.63634609375,27.8596960234375,37.58163609375,27.7778040234375Q37.52691609375,27.6959110234375,37.45726609375,27.6262670234375Q37.38762609375,27.5566230234375,37.30573609375,27.5019040234375Q37.22383609375,27.4471860234375,37.13284609375,27.4094950234375Q37.04185609375,27.371804023437498,36.945256093750004,27.3525890234375Q36.84865609375,27.3333740234375,36.750166093749996,27.3333740234375L30.33349609375,27.3333740234375Q30.23500469375,27.3333740234375,30.13840609375,27.3525890234375Q30.04180709375,27.371804023437498,29.95081309375,27.4094950234375Q29.85981809375,27.4471860234375,29.77792609375,27.5019040234375Q29.69603309375,27.5566230234375,29.62638909375,27.6262670234375Q29.55674509375,27.6959110234375,29.50202609375,27.7778040234375Q29.44730809375,27.8596960234375,29.40961709375,27.9506910234375Q29.371926093749998,28.0416850234375,29.35271109375,28.1382840234375Q29.33349609375,28.2348826234375,29.33349609375,28.3333740234375Q29.33349609375,28.4318654234375,29.35271109375,28.5284640234375Q29.371926093749998,28.6250630234375,29.40961709375,28.7160570234375Q29.44730809375,28.8070520234375,29.50202609375,28.8889440234375Q29.55674509375,28.9708370234375,29.62638909375,29.0404810234375Q29.69603309375,29.1101250234375,29.77792609375,29.1648440234375Q29.85981809375,29.2195620234375,29.95081309375,29.2572530234375Q30.04180709375,29.294944023437502,30.13840609375,29.3141590234375Q30.23500469375,29.3333740234375,30.33349609375,29.3333740234375Z" fill-rule="evenodd" fill="#FFFFFF" fill-opacity="1"/></g><g><path d="M42.11000390625,32.1713359765625L42.11041390625,32.1708239765625Q42.21850390625,32.0373009765625,42.27583390625,31.8753589765625Q42.333173906249996,31.7134169765625,42.333173906249996,31.5416259765625L42.333173906249996,31.5402100665625Q42.33301390625,31.4286429765625,42.30827390625,31.3198549765625Q42.28352390625,31.2110659765625,42.23541390625,31.1104049765625Q42.18730390625,31.0097439765625,42.11819390625,30.9221609765625Q42.049083906250004,30.8345789765625,41.96237390625,30.7643809765625Q41.82884390625,30.6562909765625,41.66690390625,30.5989589765625Q41.50496390625,30.5416269765625,41.333173906249996,30.5416259765625L41.32480390625,30.5416609765625Q41.27651390625,30.5420649765625,41.22848390625,30.5471209765625Q41.03066390625,30.5679439765625,40.85587390625,30.6628839765625Q40.68108390625,30.7578239765625,40.55592390625,30.9124279765625L32.76453790625,40.5370859765625L32.76425890625,40.5374259765625Q32.65616890625,40.670955976562496,32.59883590625,40.8328959765625Q32.54150390625,40.9948359765625,32.54150390625,41.1666259765625L32.54153890625,41.174985976562496Q32.54194290625,41.2232759765625,32.54699890625,41.2713059765625Q32.56782190625,41.4691259765625,32.66276190625,41.6439259765625Q32.75770190625,41.818725976562504,32.91230590625,41.9438259765625Q33.04582890625,42.0519259765625,33.20777090625,42.1093259765625Q33.36971290625,42.1666259765625,33.54150390625,42.1666259765625L33.54291981625,42.1666259765625Q33.65448690625,42.1664259765625,33.76327490625,42.1417259765625Q33.87206390625,42.1170259765625,33.97272490625,42.0688259765625Q34.07338590625,42.0207259765625,34.16096790625,41.9516259765625Q34.24855090625,41.8825259765625,34.31874890625,41.7958259765625L34.31902690625,41.7955259765625L42.11000390625,32.1713359765625Z" fill-rule="evenodd" fill="#FFFFFF" fill-opacity="1"/></g><g><path d="M30.33349609375,33L34.000166093749996,33Q34.09190609375,33,34.18212609375,32.983305Q34.26762609375,32.967483,34.34911609375,32.937138Q34.430616093750004,32.906794,34.50563609375,32.862839Q34.58066609375,32.818885,34.64698609375,32.762639Q34.71330609375,32.706394,34.76891609375,32.639545Q34.82452609375,32.572697,34.86776609375,32.497253Q34.911006093750004,32.421809,34.940576093749996,32.340034Q34.97014609375,32.258259,34.98515609375,32.172608Q35.000166093749996,32.0869565,35.000166093749996,32Q35.000166093749996,31.9015086,34.98094609375,31.80491Q34.96173609375,31.708311,34.92404609375,31.617317Q34.88634609375,31.526322,34.83163609375,31.44443Q34.77691609375,31.362537,34.70726609375,31.292893Q34.63762609375,31.223249,34.55573609375,31.16853Q34.47383609375,31.113812,34.38284609375,31.076121Q34.29185609375,31.038429999999998,34.19525609375,31.019215Q34.09865609375,31,34.000166093749996,31L30.33349609375,31Q30.23500469375,31,30.13840609375,31.019215Q30.04180709375,31.038429999999998,29.95081309375,31.076121Q29.85981809375,31.113812,29.77792609375,31.16853Q29.69603309375,31.223249,29.62638909375,31.292893Q29.55674509375,31.362537,29.50202609375,31.44443Q29.44730809375,31.526322,29.40961709375,31.617317Q29.371926093749998,31.708311,29.35271109375,31.80491Q29.33349609375,31.9015086,29.33349609375,32Q29.33349609375,32.0984914,29.35271109375,32.19509Q29.371926093749998,32.291689,29.40961709375,32.382683Q29.44730809375,32.473678,29.50202609375,32.55557Q29.55674509375,32.637463,29.62638909375,32.707107Q29.69603309375,32.776751,29.77792609375,32.83147Q29.85981809375,32.886188,29.95081309375,32.923879Q30.04180709375,32.96157,30.13840609375,32.980785Q30.23500469375,33,30.33349609375,33Z" fill-rule="evenodd" fill="#FFFFFF" fill-opacity="1"/></g></g></g></svg>