<svg xmlns="http://www.w3.org/2000/svg" xmlns:xlink="http://www.w3.org/1999/xlink" fill="none" version="1.1" width="68" height="68" viewBox="0 0 68 68"><defs><filter id="master_svg0_112_00560" filterUnits="objectBoundingBox" color-interpolation-filters="sRGB" x="-12" y="-10" width="74" height="74"><feFlood flood-opacity="0" result="BackgroundImageFix"/><feColorMatrix in="SourceAlpha" type="matrix" values="0 0 0 0 0 0 0 0 0 0 0 0 0 0 0 0 0 0 127 0"/><feOffset dy="2" dx="0"/><feGaussianBlur stdDeviation="3"/><feColorMatrix type="matrix" values="0 0 0 0 0 0 0 0 0 0 0 0 0 0 0 0 0 0 0.10000000149011612 0"/><feBlend mode="normal" in2="BackgroundImageFix" result="effect1_dropShadow"/><feBlend mode="normal" in="SourceGraphic" in2="effect1_dropShadow" result="shape"/></filter><clipPath id="master_svg1_112_00465"><rect x="23" y="21" width="22" height="22" rx="0"/></clipPath></defs><g><g filter="url(#master_svg0_112_00560)"><path d="M34,57Q34.6137,57,35.2267,56.9699Q35.8397,56.9398,36.4504,56.8796Q37.0612,56.8195,37.6683,56.7294Q38.2753,56.6394,38.877300000000005,56.5196Q39.4792,56.3999,40.0745,56.2508Q40.669799999999995,56.1017,41.2571,55.9235Q41.8444,55.7454,42.4222,55.5386Q43.0001,55.3318,43.5671,55.097Q44.1341,54.8621,44.6889,54.5997Q45.2437,54.3373,45.7849,54.048Q46.3262,53.7587,46.8526,53.4432Q47.379,53.1277,47.8892,52.7867Q48.3995,52.4458,48.8925,52.0802Q49.3854,51.7146,49.8598,51.3253Q50.3342,50.9359,50.789,50.5238Q51.2437,50.1116,51.6777,49.6777Q52.1116,49.2437,52.5238,48.789Q52.9359,48.3342,53.3253,47.8598Q53.7146,47.3854,54.0802,46.8925Q54.4458,46.3995,54.7867,45.8892Q55.1277,45.379,55.4432,44.8526Q55.7587,44.3262,56.048,43.7849Q56.3373,43.2437,56.5997,42.6889Q56.8621,42.1341,57.097,41.5671Q57.3318,41.0001,57.5386,40.4222Q57.7454,39.8444,57.9235,39.2571Q58.1017,38.669799999999995,58.2508,38.0745Q58.3999,37.4792,58.5196,36.877300000000005Q58.6394,36.2753,58.7294,35.6683Q58.8195,35.0612,58.8796,34.4504Q58.9398,33.8397,58.9699,33.2267Q59,32.6137,59,32Q59,31.3863,58.9699,30.7733Q58.9398,30.1603,58.8796,29.5496Q58.8195,28.9388,58.7294,28.3317Q58.6394,27.7247,58.5196,27.1227Q58.3999,26.5208,58.2508,25.9255Q58.1017,25.3302,57.9235,24.7429Q57.7454,24.1556,57.5386,23.5778Q57.3318,22.9999,57.097,22.4329Q56.8621,21.8659,56.5997,21.3111Q56.3373,20.7563,56.048,20.2151Q55.7587,19.6738,55.4432,19.147399999999998Q55.1277,18.621000000000002,54.7867,18.1107Q54.4458,17.6005,54.0802,17.1075Q53.7146,16.61458,53.3253,16.140169999999998Q52.9359,15.66576,52.5238,15.21103Q52.1116,14.75629,51.6777,14.322330000000001Q51.2437,13.88837,50.789,13.47622Q50.3342,13.06408,49.8598,12.67474Q49.3854,12.2854,48.8925,11.91981Q48.3995,11.55422,47.8892,11.21326Q47.379,10.8723,46.8526,10.55678Q46.3262,10.24127,45.7849,9.95197Q45.2437,9.662659999999999,44.6889,9.400269999999999Q44.1341,9.13787,43.5671,8.90301Q43.0001,8.66815,42.4222,8.4614Q41.8444,8.25464,41.2571,8.07649Q40.669799999999995,7.898339,40.0745,7.749219Q39.4792,7.600098,38.877300000000005,7.480368Q38.2753,7.360638,37.6683,7.270587Q37.0612,7.180536,36.4504,7.120382Q35.8397,7.0602272,35.2267,7.0301136Q34.6137,7,34,7Q33.3863,7,32.7733,7.0301136Q32.1603,7.0602272,31.5496,7.120382Q30.9388,7.180536,30.3317,7.270587Q29.7247,7.360638,29.1227,7.480368Q28.5208,7.600098,27.9255,7.749219Q27.3302,7.898339,26.7429,8.07649Q26.1556,8.25464,25.5778,8.4614Q24.9999,8.66815,24.4329,8.90301Q23.8659,9.13787,23.3111,9.400269999999999Q22.7563,9.662659999999999,22.2151,9.95197Q21.6738,10.24127,21.147399999999998,10.55678Q20.621000000000002,10.8723,20.1107,11.21326Q19.6005,11.55422,19.1075,11.91981Q18.61458,12.2854,18.140169999999998,12.67474Q17.66576,13.06408,17.21103,13.47622Q16.75629,13.88837,16.32233,14.322330000000001Q15.88837,14.75629,15.47622,15.21103Q15.06408,15.66576,14.67474,16.140169999999998Q14.2854,16.61458,13.91981,17.1075Q13.55422,17.6005,13.21326,18.1107Q12.8723,18.621000000000002,12.55678,19.147399999999998Q12.24127,19.6738,11.95197,20.2151Q11.662659999999999,20.7563,11.400269999999999,21.3111Q11.13787,21.8659,10.90301,22.4329Q10.66815,22.9999,10.4614,23.5777Q10.25464,24.1556,10.07649,24.7429Q9.898339,25.3302,9.749219,25.9255Q9.600098,26.5208,9.480368,27.1227Q9.360638,27.7247,9.270587,28.3317Q9.180536,28.9388,9.120382,29.5496Q9.0602272,30.1603,9.0301136,30.7733Q9,31.3863,9,32Q9,32.6137,9.0301136,33.2267Q9.0602272,33.8397,9.120382,34.4504Q9.180536,35.0612,9.270587,35.6683Q9.360638,36.2753,9.480368,36.877300000000005Q9.600098,37.4792,9.749219,38.0745Q9.898339,38.669799999999995,10.07649,39.2571Q10.25464,39.8444,10.4614,40.4222Q10.66815,41.0001,10.90301,41.5671Q11.13787,42.1341,11.400269999999999,42.6889Q11.662659999999999,43.2437,11.95197,43.7849Q12.24127,44.3262,12.55678,44.8526Q12.8723,45.379,13.21326,45.8892Q13.55422,46.3995,13.91981,46.8925Q14.2854,47.3854,14.67474,47.8598Q15.06408,48.3342,15.47622,48.789Q15.88837,49.2437,16.32233,49.6777Q16.75629,50.1116,17.21103,50.5238Q17.66576,50.9359,18.140169999999998,51.3253Q18.61458,51.7146,19.1075,52.0802Q19.6005,52.4458,20.1107,52.7867Q20.621000000000002,53.1277,21.147399999999998,53.4432Q21.6738,53.7587,22.2151,54.048Q22.7563,54.3373,23.3111,54.5997Q23.8659,54.8621,24.4329,55.097Q24.9999,55.3318,25.5777,55.5386Q26.1556,55.7454,26.7429,55.9235Q27.3302,56.1017,27.9255,56.2508Q28.5208,56.3999,29.1227,56.5196Q29.7247,56.6394,30.3317,56.7294Q30.9388,56.8195,31.5496,56.8796Q32.1603,56.9398,32.7733,56.9699Q33.3863,57,34,57ZM34,52Q34.491,52,34.9814,51.9759Q35.4717,51.9518,35.960300000000004,51.9037Q36.448899999999995,51.8556,36.9346,51.7835Q37.4203,51.7115,37.9018,51.6157Q38.3833,51.5199,38.8596,51.4006Q39.335899999999995,51.2813,39.8057,51.1388Q40.2755,50.9963,40.7378,50.8309Q41.2001,50.6655,41.6537,50.4776Q42.1073,50.2897,42.5511,50.0798Q42.9949,49.8699,43.4279,49.6384Q43.8609,49.407,44.2821,49.1546Q44.7032,48.9022,45.1114,48.6294Q45.5196,48.3566,45.914,48.0642Q46.3083,47.7717,46.6879,47.4602Q47.0674,47.1487,47.4312,46.819Q47.795,46.4893,48.1421,46.1421Q48.4893,45.795,48.819,45.4312Q49.1487,45.0674,49.4602,44.6879Q49.7717,44.3083,50.0642,43.914Q50.3566,43.5196,50.6294,43.1114Q50.9022,42.7032,51.1546,42.2821Q51.407,41.8609,51.6384,41.4279Q51.8699,40.9949,52.0798,40.5511Q52.2897,40.1073,52.4776,39.6537Q52.6655,39.2001,52.8309,38.7378Q52.9963,38.2755,53.1388,37.8057Q53.2813,37.335899999999995,53.4006,36.8596Q53.5199,36.3833,53.6157,35.9018Q53.7115,35.4203,53.7835,34.9346Q53.8556,34.448899999999995,53.9037,33.960300000000004Q53.9518,33.4717,53.9759,32.9814Q54,32.491,54,32Q54,31.509,53.9759,31.0186Q53.9518,30.5283,53.9037,30.0397Q53.8556,29.551,53.7835,29.0654Q53.7115,28.5797,53.6157,28.0982Q53.5199,27.6167,53.4006,27.1404Q53.2813,26.6641,53.1388,26.1943Q52.9963,25.7245,52.8309,25.2622Q52.6655,24.7999,52.4776,24.3463Q52.2897,23.8927,52.0798,23.4489Q51.8699,23.0051,51.6384,22.5721Q51.407,22.1391,51.1546,21.7179Q50.9022,21.296799999999998,50.6294,20.8886Q50.3566,20.4804,50.0642,20.086Q49.7717,19.6917,49.4602,19.3121Q49.1487,18.9326,48.819,18.5688Q48.4893,18.205,48.1421,17.8579Q47.795,17.5107,47.4312,17.180999999999997Q47.0674,16.85126,46.6879,16.53979Q46.3083,16.22832,45.914,15.93585Q45.5196,15.64338,45.1114,15.37061Q44.7032,15.09784,44.2821,14.84543Q43.8609,14.59302,43.4279,14.36157Q42.9949,14.130130000000001,42.5511,13.92021Q42.1073,13.7103,41.6537,13.52241Q41.2001,13.334520000000001,40.7378,13.16912Q40.2755,13.003720000000001,39.8057,12.86119Q39.335899999999995,12.71867,38.8596,12.59937Q38.3833,12.480080000000001,37.9018,12.38429Q37.4203,12.288509999999999,36.9346,12.216470000000001Q36.448899999999995,12.14443,35.960300000000004,12.096309999999999Q35.4717,12.04818,34.9814,12.024090000000001Q34.491,12,34,12Q33.509,12,33.0186,12.024090000000001Q32.5283,12.04818,32.039699999999996,12.096309999999999Q31.551,12.14443,31.0654,12.216470000000001Q30.5797,12.288509999999999,30.0982,12.38429Q29.6167,12.480080000000001,29.1404,12.59937Q28.6641,12.71867,28.1943,12.86119Q27.7245,13.003720000000001,27.2622,13.16912Q26.7999,13.334520000000001,26.3463,13.52241Q25.8927,13.7103,25.4489,13.92021Q25.0051,14.130130000000001,24.5721,14.36157Q24.1391,14.59302,23.7179,14.84543Q23.296799999999998,15.09784,22.8886,15.37061Q22.4804,15.64338,22.086,15.93585Q21.6917,16.22832,21.3121,16.53979Q20.9326,16.85126,20.5688,17.180999999999997Q20.205,17.5107,19.8579,17.8579Q19.5107,18.205,19.180999999999997,18.5688Q18.85126,18.9326,18.53979,19.3121Q18.22832,19.6917,17.935850000000002,20.086Q17.64338,20.4804,17.37061,20.8886Q17.097839999999998,21.296799999999998,16.84543,21.7179Q16.59302,22.1391,16.36157,22.5721Q16.13013,23.0051,15.92021,23.4489Q15.7103,23.8927,15.52241,24.3463Q15.334520000000001,24.7999,15.16912,25.2622Q15.00371,25.7245,14.86119,26.1943Q14.71867,26.6641,14.59937,27.1404Q14.480080000000001,27.6167,14.38429,28.0982Q14.288509999999999,28.5797,14.216470000000001,29.0654Q14.14443,29.551,14.096309999999999,30.0397Q14.04818,30.5283,14.024090000000001,31.0186Q14,31.509,14,32Q14,32.491,14.024090000000001,32.9814Q14.04818,33.4717,14.096309999999999,33.960300000000004Q14.14443,34.448899999999995,14.216470000000001,34.9346Q14.288509999999999,35.4203,14.38429,35.9018Q14.480080000000001,36.3833,14.59937,36.8596Q14.71867,37.335899999999995,14.86119,37.8057Q15.00371,38.2755,15.16912,38.7378Q15.334520000000001,39.2001,15.52241,39.6537Q15.7103,40.1073,15.92021,40.5511Q16.13013,40.9949,16.36157,41.4279Q16.59302,41.8609,16.84543,42.2821Q17.097839999999998,42.7032,17.37061,43.1114Q17.64338,43.5196,17.935850000000002,43.914Q18.22832,44.3083,18.53979,44.6879Q18.85126,45.0674,19.180999999999997,45.4312Q19.5107,45.795,19.8579,46.1421Q20.205,46.4893,20.5688,46.819Q20.9326,47.1487,21.3121,47.4602Q21.6917,47.7717,22.086,48.0642Q22.4804,48.3566,22.8886,48.6294Q23.296799999999998,48.9022,23.7179,49.1546Q24.1391,49.407,24.5721,49.6384Q25.0051,49.8699,25.4489,50.0798Q25.8927,50.2897,26.3463,50.4776Q26.7999,50.6655,27.2622,50.8309Q27.7245,50.9963,28.1943,51.1388Q28.6641,51.2813,29.1404,51.4006Q29.6167,51.5199,30.0982,51.6157Q30.5797,51.7115,31.0654,51.7835Q31.551,51.8556,32.039699999999996,51.9037Q32.5283,51.9518,33.0186,51.9759Q33.509,52,34,52Z" fill-rule="evenodd" fill="#A69480" fill-opacity="1"/></g><g clip-path="url(#master_svg1_112_00465)"><g><path d="M40.333330000000004,40.166669999999996L37.4375,40.166669999999996Q37.3390086,40.166669999999996,37.24241,40.18588Q37.145811,40.2051,37.054817,40.24279Q36.963822,40.28048,36.88193,40.3352Q36.800037,40.389920000000004,36.730393,40.459559999999996Q36.660749,40.5292,36.60603,40.6111Q36.551312,40.69299,36.513621,40.78398Q36.47593,40.87498,36.456715,40.97158Q36.4375,41.06818,36.4375,41.166669999999996Q36.4375,41.26516,36.456715,41.361760000000004Q36.47593,41.45836,36.513621,41.54935Q36.551312,41.64034,36.60603,41.72224Q36.660749,41.80413,36.730393,41.87377Q36.800037,41.94342,36.88193,41.99814Q36.963822,42.05285,37.054817,42.09055Q37.145811,42.12824,37.24241,42.14745Q37.3390086,42.166669999999996,37.4375,42.166669999999996L40.416669999999996,42.166669999999996Q41.210589999999996,42.166669999999996,41.77196,41.60529Q42.333330000000004,41.04392,42.333330000000004,40.25L42.333330000000004,36.125Q42.333330000000004,36.0265086,42.31412,35.92991Q42.2949,35.833311,42.25721,35.742317Q42.21952,35.651322,42.1648,35.56943Q42.110079999999996,35.487537,42.040440000000004,35.417893Q41.9708,35.348249,41.8889,35.29353Q41.80701,35.238812,41.71602,35.201121Q41.62502,35.16343,41.52842,35.144215Q41.43182,35.125,41.333330000000004,35.125Q41.23484,35.125,41.13824,35.144215Q41.04164,35.16343,40.95065,35.201121Q40.85966,35.238812,40.77776,35.29353Q40.69587,35.348249,40.62623,35.417893Q40.55658,35.487537,40.50186,35.56943Q40.44714,35.651322,40.40945,35.742317Q40.37176,35.833311,40.35255,35.92991Q40.333330000000004,36.0265086,40.333330000000004,36.125L40.333330000000004,40.166669999999996Z" fill-rule="evenodd" fill="#A69480" fill-opacity="1"/></g><g><path d="M27.58317090625,42.1666740234375L30.33317390625,42.1666740234375Q30.42491390625,42.1666740234375,30.51513390625,42.1499740234375Q30.60063390625,42.134174023437495,30.68212390625,42.1038740234375Q30.76362390625,42.0734740234375,30.83864390625,42.029574023437505Q30.91367390625,41.9855740234375,30.97999390625,41.929374023437504Q31.04631390625,41.873074023437496,31.10192390625,41.806274023437496Q31.157533906250002,41.7393740234375,31.20077390625,41.663974023437504Q31.24401390625,41.5884740234375,31.27358390625,41.5067740234375Q31.30315390625,41.4249740234375,31.31816390625,41.3392740234375Q31.33317390625,41.2536740234375,31.33317390625,41.1666740234375Q31.33317390625,41.0681740234375,31.31395390625,40.9715740234375Q31.294743906249998,40.8749740234375,31.25705390625,40.7839740234375Q31.21935390625,40.693074023437504,31.16464390625,40.6111740234375Q31.10992390625,40.5292740234375,31.04027390625,40.4595740234375Q30.97063390625,40.3899740234375,30.88874390625,40.3352740234375Q30.806843906250002,40.2804740234375,30.71585390625,40.2428740234375Q30.62486390625,40.2051740234375,30.52826390625,40.1858740234375Q30.43166390625,40.1666740234375,30.33317390625,40.1666740234375L27.66650390625,40.1666740234375L27.66650390625,23.8333740234375L40.33320390625,23.8333740234375L40.33320390625,28.3333740234375Q40.33320390625,28.431864023437498,40.352403906250004,28.5284640234375Q40.37160390625,28.6250640234375,40.40930390625,28.7160540234375Q40.44700390625,28.8070540234375,40.50170390625,28.8889440234375Q40.55640390625,28.9708340234375,40.62610390625,29.0404840234375Q40.69570390625,29.1101240234375,40.77760390625,29.1648440234375Q40.85950390625,29.2195640234375,40.95050390625,29.2572540234375Q41.04150390625,29.294944023437502,41.13810390625,29.3141540234375Q41.23470390625,29.3333740234375,41.33320390625,29.3333740234375Q41.43170390625,29.3333740234375,41.52830390625,29.3141540234375Q41.62490390625,29.294944023437502,41.71580390625,29.2572540234375Q41.806803906249996,29.2195640234375,41.88870390625,29.1648440234375Q41.97060390625,29.1101240234375,42.04030390625,29.0404840234375Q42.10990390625,28.9708340234375,42.16460390625,28.8889440234375Q42.21940390625,28.8070540234375,42.25700390625,28.7160540234375Q42.29470390625,28.6250640234375,42.31400390625,28.5284640234375Q42.33320390625,28.431864023437498,42.33320390625,28.3333740234375L42.33320390625,23.7500410234375Q42.33320390625,22.9561310234375,41.77180390625,22.3947560234375Q41.21040390625,21.8333740234375,40.41650390625,21.8333740234375L27.58317090625,21.8333740234375Q26.78926090625,21.8333740234375,26.22788190625,22.3947530234375Q25.66650390625,22.9561310234375,25.66650390625,23.7500410234375L25.66650390625,40.2500740234375Q25.66650390625,41.0439740234375,26.22788590625,41.6053740234375Q26.78926190625,42.1666740234375,27.58317090625,42.1666740234375Z" fill-rule="evenodd" fill="#A69480" fill-opacity="1"/></g><g><path d="M30.33349609375,29.3333740234375L36.750166093749996,29.3333740234375Q36.84865609375,29.3333740234375,36.945256093750004,29.3141590234375Q37.04185609375,29.294944023437502,37.13284609375,29.2572530234375Q37.22383609375,29.2195620234375,37.30573609375,29.1648440234375Q37.38762609375,29.1101250234375,37.45726609375,29.0404810234375Q37.52691609375,28.9708370234375,37.58163609375,28.8889440234375Q37.63634609375,28.8070520234375,37.67404609375,28.7160570234375Q37.71173609375,28.6250630234375,37.73094609375,28.5284640234375Q37.750166093749996,28.4318654234375,37.750166093749996,28.3333740234375Q37.750166093749996,28.2348826234375,37.73094609375,28.1382840234375Q37.71173609375,28.0416850234375,37.67404609375,27.9506910234375Q37.63634609375,27.8596960234375,37.58163609375,27.7778040234375Q37.52691609375,27.6959110234375,37.45726609375,27.6262670234375Q37.38762609375,27.5566230234375,37.30573609375,27.5019040234375Q37.22383609375,27.4471860234375,37.13284609375,27.4094950234375Q37.04185609375,27.371804023437498,36.945256093750004,27.3525890234375Q36.84865609375,27.3333740234375,36.750166093749996,27.3333740234375L30.33349609375,27.3333740234375Q30.23500469375,27.3333740234375,30.13840609375,27.3525890234375Q30.04180709375,27.371804023437498,29.95081309375,27.4094950234375Q29.85981809375,27.4471860234375,29.77792609375,27.5019040234375Q29.69603309375,27.5566230234375,29.62638909375,27.6262670234375Q29.55674509375,27.6959110234375,29.50202609375,27.7778040234375Q29.44730809375,27.8596960234375,29.40961709375,27.9506910234375Q29.371926093749998,28.0416850234375,29.35271109375,28.1382840234375Q29.33349609375,28.2348826234375,29.33349609375,28.3333740234375Q29.33349609375,28.4318654234375,29.35271109375,28.5284640234375Q29.371926093749998,28.6250630234375,29.40961709375,28.7160570234375Q29.44730809375,28.8070520234375,29.50202609375,28.8889440234375Q29.55674509375,28.9708370234375,29.62638909375,29.0404810234375Q29.69603309375,29.1101250234375,29.77792609375,29.1648440234375Q29.85981809375,29.2195620234375,29.95081309375,29.2572530234375Q30.04180709375,29.294944023437502,30.13840609375,29.3141590234375Q30.23500469375,29.3333740234375,30.33349609375,29.3333740234375Z" fill-rule="evenodd" fill="#A69480" fill-opacity="1"/></g><g><path d="M42.11000390625,32.1713359765625L42.11041390625,32.1708239765625Q42.21850390625,32.0373009765625,42.27583390625,31.8753589765625Q42.333173906249996,31.7134169765625,42.333173906249996,31.5416259765625L42.333173906249996,31.5402100665625Q42.33301390625,31.4286429765625,42.30827390625,31.3198549765625Q42.28352390625,31.2110659765625,42.23541390625,31.1104049765625Q42.18730390625,31.0097439765625,42.11819390625,30.9221609765625Q42.049083906250004,30.8345789765625,41.96237390625,30.7643809765625Q41.82884390625,30.6562909765625,41.66690390625,30.5989589765625Q41.50496390625,30.5416269765625,41.333173906249996,30.5416259765625L41.32480390625,30.5416609765625Q41.27651390625,30.5420649765625,41.22848390625,30.5471209765625Q41.03066390625,30.5679439765625,40.85587390625,30.6628839765625Q40.68108390625,30.7578239765625,40.55592390625,30.9124279765625L32.76453790625,40.5370859765625L32.76425890625,40.5374259765625Q32.65616890625,40.670955976562496,32.59883590625,40.8328959765625Q32.54150390625,40.9948359765625,32.54150390625,41.1666259765625L32.54153890625,41.174985976562496Q32.54194290625,41.2232759765625,32.54699890625,41.2713059765625Q32.56782190625,41.4691259765625,32.66276190625,41.6439259765625Q32.75770190625,41.818725976562504,32.91230590625,41.9438259765625Q33.04582890625,42.0519259765625,33.20777090625,42.1093259765625Q33.36971290625,42.1666259765625,33.54150390625,42.1666259765625L33.54291981625,42.1666259765625Q33.65448690625,42.1664259765625,33.76327490625,42.1417259765625Q33.87206390625,42.1170259765625,33.97272490625,42.0688259765625Q34.07338590625,42.0207259765625,34.16096790625,41.9516259765625Q34.24855090625,41.8825259765625,34.31874890625,41.7958259765625L34.31902690625,41.7955259765625L42.11000390625,32.1713359765625Z" fill-rule="evenodd" fill="#A69480" fill-opacity="1"/></g><g><path d="M30.33349609375,33L34.000166093749996,33Q34.09190609375,33,34.18212609375,32.983305Q34.26762609375,32.967483,34.34911609375,32.937138Q34.430616093750004,32.906794,34.50563609375,32.862839Q34.58066609375,32.818885,34.64698609375,32.762639Q34.71330609375,32.706394,34.76891609375,32.639545Q34.82452609375,32.572697,34.86776609375,32.497253Q34.911006093750004,32.421809,34.940576093749996,32.340034Q34.97014609375,32.258259,34.98515609375,32.172608Q35.000166093749996,32.0869565,35.000166093749996,32Q35.000166093749996,31.9015086,34.98094609375,31.80491Q34.96173609375,31.708311,34.92404609375,31.617317Q34.88634609375,31.526322,34.83163609375,31.44443Q34.77691609375,31.362537,34.70726609375,31.292893Q34.63762609375,31.223249,34.55573609375,31.16853Q34.47383609375,31.113812,34.38284609375,31.076121Q34.29185609375,31.038429999999998,34.19525609375,31.019215Q34.09865609375,31,34.000166093749996,31L30.33349609375,31Q30.23500469375,31,30.13840609375,31.019215Q30.04180709375,31.038429999999998,29.95081309375,31.076121Q29.85981809375,31.113812,29.77792609375,31.16853Q29.69603309375,31.223249,29.62638909375,31.292893Q29.55674509375,31.362537,29.50202609375,31.44443Q29.44730809375,31.526322,29.40961709375,31.617317Q29.371926093749998,31.708311,29.35271109375,31.80491Q29.33349609375,31.9015086,29.33349609375,32Q29.33349609375,32.0984914,29.35271109375,32.19509Q29.371926093749998,32.291689,29.40961709375,32.382683Q29.44730809375,32.473678,29.50202609375,32.55557Q29.55674509375,32.637463,29.62638909375,32.707107Q29.69603309375,32.776751,29.77792609375,32.83147Q29.85981809375,32.886188,29.95081309375,32.923879Q30.04180709375,32.96157,30.13840609375,32.980785Q30.23500469375,33,30.33349609375,33Z" fill-rule="evenodd" fill="#A69480" fill-opacity="1"/></g></g></g></svg>