<svg xmlns="http://www.w3.org/2000/svg" xmlns:xlink="http://www.w3.org/1999/xlink" fill="none" version="1.1" width="68" height="68" viewBox="0 0 68 68"><defs><filter id="master_svg0_79_9795" filterUnits="objectBoundingBox" color-interpolation-filters="sRGB" x="-12" y="-10" width="74" height="74"><feFlood flood-opacity="0" result="BackgroundImageFix"/><feColorMatrix in="SourceAlpha" type="matrix" values="0 0 0 0 0 0 0 0 0 0 0 0 0 0 0 0 0 0 127 0"/><feOffset dy="2" dx="0"/><feGaussianBlur stdDeviation="3"/><feColorMatrix type="matrix" values="0 0 0 0 0 0 0 0 0 0 0 0 0 0 0 0 0 0 0.10000000149011612 0"/><feBlend mode="normal" in2="BackgroundImageFix" result="effect1_dropShadow"/><feBlend mode="normal" in="SourceGraphic" in2="effect1_dropShadow" result="shape"/></filter><clipPath id="master_svg1_79_9802"><rect x="23" y="21" width="22" height="22" rx="0"/></clipPath></defs><g><g filter="url(#master_svg0_79_9795)"><ellipse cx="34" cy="32" rx="25" ry="25" fill="#FFFFFF" fill-opacity="1"/></g><g><ellipse cx="34" cy="32" rx="20" ry="20" fill="#CCCCCC" fill-opacity="1"/></g><g clip-path="url(#master_svg1_79_9802)"><g><path d="M35,36.125L35,27.875Q35,27.7765086,34.980785,27.67991Q34.96157,27.583311,34.923879,27.492317Q34.886188,27.401322,34.83147,27.31943Q34.776751,27.237537,34.707107,27.167893Q34.637463,27.098249,34.55557,27.04353Q34.473678,26.988812,34.382683,26.951121Q34.291689,26.913429999999998,34.19509,26.894215Q34.0984914,26.875,34,26.875Q33.9015086,26.875,33.80491,26.894215Q33.708311,26.913429999999998,33.617317,26.951121Q33.526322,26.988812,33.44443,27.04353Q33.362537,27.098249,33.292893,27.167893Q33.223249,27.237537,33.16853,27.31943Q33.113812,27.401322,33.076121,27.492317Q33.03843,27.583311,33.019215,27.67991Q33,27.7765086,33,27.875L33,36.125Q33,36.22349,33.019215,36.32009Q33.03843,36.41669,33.076121,36.50768Q33.113812,36.59868,33.16853,36.68057Q33.223249,36.762460000000004,33.292893,36.83211Q33.362537,36.90175,33.44443,36.956469999999996Q33.526322,37.01119,33.617317,37.04888Q33.708311,37.08657,33.80491,37.105779999999996Q33.9015086,37.125,34,37.125Q34.0984914,37.125,34.19509,37.105779999999996Q34.291689,37.08657,34.382683,37.04888Q34.473678,37.01119,34.55557,36.956469999999996Q34.637463,36.90175,34.707107,36.83211Q34.776751,36.762460000000004,34.83147,36.68057Q34.886188,36.59868,34.923879,36.50768Q34.96157,36.41669,34.980785,36.32009Q35,36.22349,35,36.125Z" fill-rule="evenodd" fill="#FFFFFF" fill-opacity="1"/></g><g><path d="M26.583251953125,27.875L26.583251953125,25.125Q26.583251953125,25.0265086,26.602466953125,24.92991Q26.621681953124998,24.833311,26.659372953125,24.742317Q26.697063953125,24.651322,26.751781953125,24.56943Q26.806500953125,24.487537,26.876144953125,24.417893Q26.945788953125,24.348249,27.027681953125,24.29353Q27.109573953125,24.238812,27.200568953125,24.201121Q27.291562953125,24.163429999999998,27.388161953125,24.144215Q27.484760553125,24.125,27.583251953125,24.125L40.416551953125,24.125Q40.515051953125,24.125,40.611651953125,24.144215Q40.708251953125,24.163429999999998,40.799251953125,24.201121Q40.890251953125,24.238812,40.972151953125,24.29353Q41.054051953125,24.348249,41.123651953125,24.417893Q41.193351953125,24.487537,41.248051953125,24.56943Q41.302751953125,24.651322,41.340451953125,24.742317Q41.378151953125,24.833311,41.397351953124996,24.92991Q41.416551953125,25.0265086,41.416551953125,25.125L41.416551953125,27.875Q41.416551953125,27.973489999999998,41.397351953124996,28.07009Q41.378151953125,28.16669,41.340451953125,28.25768Q41.302751953125,28.34868,41.248051953125,28.43057Q41.193351953125,28.51246,41.123651953125,28.58211Q41.054051953125,28.65175,40.972151953125,28.70647Q40.890251953125,28.76119,40.799251953125,28.79888Q40.708251953125,28.836570000000002,40.611651953125,28.85578Q40.515051953125,28.875,40.416551953125,28.875L27.583251953125,28.875Q27.484760553125,28.875,27.388161953125,28.85578Q27.291562953125,28.836570000000002,27.200568953125,28.79888Q27.109573953125,28.76119,27.027681953125,28.70647Q26.945788953125,28.65175,26.876144953125,28.58211Q26.806500953125,28.51246,26.751781953125,28.43057Q26.697063953125,28.34868,26.659372953125,28.25768Q26.621681953124998,28.16669,26.602466953125,28.07009Q26.583251953125,27.973489999999998,26.583251953125,27.875ZM28.583251953125,26.125L28.583251953125,26.875L39.416551953125,26.875L39.416551953125,26.125L28.583251953125,26.125Z" fill="#FFFFFF" fill-opacity="1"/></g><g><path d="M38.112948046875,33.4583740234375L40.575548046875,36.319104023437504Q40.645948046875,36.4008940234375,40.732148046875,36.4657840234375Q40.818448046875,36.5306640234375,40.916548046875,36.5756640234375Q41.014648046874996,36.6206540234375,41.120048046875,36.6436840234375Q41.225448046875,36.666704023437504,41.333448046875,36.666704023437504Q41.347848046875,36.666704023437504,41.362248046874996,36.6662940234375Q41.534248046875,36.6613340234375,41.694848046875,36.5991140234375Q41.855348046875,36.5369040234375,41.985848046875,36.4245840234375Q42.067648046875,36.3541840234375,42.132448046875,36.2679440234375Q42.197348046875,36.1817040234375,42.242348046875,36.0836040234375Q42.287348046874996,35.9855040234375,42.310348046875,35.8800640234375Q42.333448046875,35.7746340234375,42.333448046875,35.666704023437504Q42.333448046875,35.6523040234375,42.333048046875,35.6379140234375Q42.328048046875,35.4658240234375,42.265848046875,35.3053040234375Q42.203648046875,35.1447840234375,42.091248046875,35.0143140234375L39.329548046875004,31.8059800234375Q39.259148046875,31.7241870234375,39.172848046875,31.6593000234375Q39.086648046875,31.5944130234375,38.988548046874996,31.5494200234375Q38.890448046875,31.5044270234375,38.784948046875,31.4814010234375Q38.679548046875,31.4583740234375,38.571648046875,31.4583740234375L29.416748046875,31.4583740234375Q29.308558046875,31.4583740234375,29.202868046875,31.4815130234375Q29.097188046875,31.5046530234375,28.998888046875,31.5498610234375Q28.900598046875,31.5950690234375,28.814248046875,31.6602540234375Q28.727898046875,31.7254380234375,28.657488046875,31.8075830234375L25.907491046875,35.0159140234375Q25.790978046875,35.1518440234375,25.728863046875,35.3197640234375Q25.666748046875,35.4876740234375,25.666748046875,35.666704023437504L25.666758046875,35.6712440234375Q25.666922046875,35.7073740234375,25.669694046875,35.7434040234375Q25.684949046875,35.9417340234375,25.774940046875,36.1191240234375Q25.864931046875,36.2965140234375,26.015957046875,36.4259640234375Q26.151889046875,36.5424740234375,26.319802046875,36.6045940234375Q26.487715046875,36.666704023437504,26.666748046875,36.666704023437504L26.671282416875,36.6666940234375Q26.707416446875,36.6665340234375,26.743444446875,36.6637640234375Q26.941771046875,36.648504023437496,27.119163046875,36.558514023437496Q27.296554046875,36.4685240234375,27.426005046875,36.3174940234375L29.876678046875,33.4583740234375L38.112948046875,33.4583740234375Z" fill-rule="evenodd" fill="#FFFFFF" fill-opacity="1"/></g><g><path d="M23.833251953125,39.791669999999996L23.833251953125,36.125Q23.833251953125,36.0265086,23.852466953125,35.92991Q23.871681953124998,35.833311,23.909372953125,35.742317Q23.947063953125,35.651322,24.001781953125,35.56943Q24.056500953125,35.487537,24.126144953125,35.417893Q24.195788953125,35.348249,24.277681953125,35.29353Q24.359573953125,35.238812,24.450568953125,35.201121Q24.541562953125,35.16343,24.638161953125,35.144215Q24.734760553125,35.125,24.833251953125,35.125L28.499921953125,35.125Q28.598411953125,35.125,28.695011953125,35.144215Q28.791611953125,35.16343,28.882601953125,35.201121Q28.973591953125002,35.238812,29.055491953125,35.29353Q29.137381953125,35.348249,29.207021953125,35.417893Q29.276671953125,35.487537,29.331391953125,35.56943Q29.386101953125,35.651322,29.423801953125,35.742317Q29.461491953124998,35.833311,29.480701953125,35.92991Q29.499921953125,36.0265086,29.499921953125,36.125L29.499921953125,39.791669999999996Q29.499921953125,39.89016,29.480701953125,39.98676Q29.461491953124998,40.08336,29.423801953125,40.17435Q29.386101953125,40.26534,29.331391953125,40.34724Q29.276671953125,40.42913,29.207021953125,40.49877Q29.137381953125,40.56842,29.055491953125,40.62314Q28.973591953125002,40.67785,28.882601953125,40.71555Q28.791611953125,40.75324,28.695011953125,40.77245Q28.598411953125,40.791669999999996,28.499921953125,40.791669999999996L24.833251953125,40.791669999999996Q24.734760553125,40.791669999999996,24.638161953125,40.77245Q24.541562953125,40.75324,24.450568953125,40.71555Q24.359573953125,40.67785,24.277681953125,40.62314Q24.195788953125,40.56842,24.126144953125,40.49877Q24.056500953125,40.42913,24.001781953125,40.34724Q23.947063953125,40.26534,23.909372953125,40.17435Q23.871681953124998,40.08336,23.852466953125,39.98676Q23.833251953125,39.89016,23.833251953125,39.791669999999996ZM25.833251953125,37.125L25.833251953125,38.791669999999996L27.499921953125,38.791669999999996L27.499921953125,37.125L25.833251953125,37.125Z" fill="#FFFFFF" fill-opacity="1"/></g><g><path d="M31.166748046875,39.791669999999996L31.166748046875,36.125Q31.166748046875,36.0265086,31.185963046875,35.92991Q31.205178046874998,35.833311,31.242869046875,35.742317Q31.280560046875,35.651322,31.335278046875,35.56943Q31.389997046875,35.487537,31.459641046875,35.417893Q31.529285046875,35.348249,31.611178046875,35.29353Q31.693070046875,35.238812,31.784065046875,35.201121Q31.875059046875,35.16343,31.971658046875,35.144215Q32.068256646875,35.125,32.166748046875,35.125L35.833418046874996,35.125Q35.931908046875,35.125,36.028508046875,35.144215Q36.125108046875,35.16343,36.216098046875,35.201121Q36.307088046875,35.238812,36.388988046875,35.29353Q36.470878046875,35.348249,36.540518046875,35.417893Q36.610168046875,35.487537,36.664888046875,35.56943Q36.719598046875,35.651322,36.757298046875,35.742317Q36.794988046875,35.833311,36.814198046875,35.92991Q36.833418046874996,36.0265086,36.833418046874996,36.125L36.833418046874996,39.791669999999996Q36.833418046874996,39.89016,36.814198046875,39.98676Q36.794988046875,40.08336,36.757298046875,40.17435Q36.719598046875,40.26534,36.664888046875,40.34724Q36.610168046875,40.42913,36.540518046875,40.49877Q36.470878046875,40.56842,36.388988046875,40.62314Q36.307088046875,40.67785,36.216098046875,40.71555Q36.125108046875,40.75324,36.028508046875,40.77245Q35.931908046875,40.791669999999996,35.833418046874996,40.791669999999996L32.166748046875,40.791669999999996Q32.068256646875,40.791669999999996,31.971658046875,40.77245Q31.875059046875,40.75324,31.784065046875,40.71555Q31.693070046875,40.67785,31.611178046875,40.62314Q31.529285046875,40.56842,31.459641046875,40.49877Q31.389997046875,40.42913,31.335278046875,40.34724Q31.280560046875,40.26534,31.242869046875,40.17435Q31.205178046874998,40.08336,31.185963046875,39.98676Q31.166748046875,39.89016,31.166748046875,39.791669999999996ZM33.166748046875,37.125L33.166748046875,38.791669999999996L34.833418046874996,38.791669999999996L34.833418046874996,37.125L33.166748046875,37.125Z" fill="#FFFFFF" fill-opacity="1"/></g><g><path d="M38.5,39.791669999999996L38.5,36.125Q38.5,36.0265086,38.519215,35.92991Q38.53843,35.833311,38.576121,35.742317Q38.613812,35.651322,38.66853,35.56943Q38.723249,35.487537,38.792893,35.417893Q38.862537,35.348249,38.94443,35.29353Q39.026322,35.238812,39.117317,35.201121Q39.208311,35.16343,39.30491,35.144215Q39.4015086,35.125,39.5,35.125L43.166669999999996,35.125Q43.26516,35.125,43.36176,35.144215Q43.45836,35.16343,43.54935,35.201121Q43.64034,35.238812,43.72224,35.29353Q43.80413,35.348249,43.87377,35.417893Q43.94342,35.487537,43.99814,35.56943Q44.05285,35.651322,44.09055,35.742317Q44.12824,35.833311,44.14745,35.92991Q44.166669999999996,36.0265086,44.166669999999996,36.125L44.166669999999996,39.791669999999996Q44.166669999999996,39.89016,44.14745,39.98676Q44.12824,40.08336,44.09055,40.17435Q44.05285,40.26534,43.99814,40.34724Q43.94342,40.42913,43.87377,40.49877Q43.80413,40.56842,43.72224,40.62314Q43.64034,40.67785,43.54935,40.71555Q43.45836,40.75324,43.36176,40.77245Q43.26516,40.791669999999996,43.166669999999996,40.791669999999996L39.5,40.791669999999996Q39.4015086,40.791669999999996,39.30491,40.77245Q39.208311,40.75324,39.117317,40.71555Q39.026322,40.67785,38.94443,40.62314Q38.862537,40.56842,38.792893,40.49877Q38.723249,40.42913,38.66853,40.34724Q38.613812,40.26534,38.576121,40.17435Q38.53843,40.08336,38.519215,39.98676Q38.5,39.89016,38.5,39.791669999999996ZM40.5,37.125L40.5,38.791669999999996L42.166669999999996,38.791669999999996L42.166669999999996,37.125L40.5,37.125Z" fill="#FFFFFF" fill-opacity="1"/></g></g></g></svg>