<svg xmlns="http://www.w3.org/2000/svg" xmlns:xlink="http://www.w3.org/1999/xlink" fill="none" version="1.1" width="68" height="68" viewBox="0 0 68 68"><defs><filter id="master_svg0_79_9824" filterUnits="objectBoundingBox" color-interpolation-filters="sRGB" x="-12" y="-10" width="74" height="74"><feFlood flood-opacity="0" result="BackgroundImageFix"/><feColorMatrix in="SourceAlpha" type="matrix" values="0 0 0 0 0 0 0 0 0 0 0 0 0 0 0 0 0 0 127 0"/><feOffset dy="2" dx="0"/><feGaussianBlur stdDeviation="3"/><feColorMatrix type="matrix" values="0 0 0 0 0 0 0 0 0 0 0 0 0 0 0 0 0 0 0.10000000149011612 0"/><feBlend mode="normal" in2="BackgroundImageFix" result="effect1_dropShadow"/><feBlend mode="normal" in="SourceGraphic" in2="effect1_dropShadow" result="shape"/></filter><clipPath id="master_svg1_79_9839"><rect x="23" y="21" width="22" height="22" rx="0"/></clipPath></defs><g><g filter="url(#master_svg0_79_9824)"><ellipse cx="34" cy="32" rx="25" ry="25" fill="#FFFFFF" fill-opacity="1"/></g><g><ellipse cx="34" cy="32" rx="20" ry="20" fill="#CCCCCC" fill-opacity="1"/></g><g clip-path="url(#master_svg1_79_9839)"><g><rect x="23" y="21" width="22" height="22" rx="0" fill="#FFFFFF" fill-opacity="0"/></g><g><path d="M25.75,22.75Q25.6515086,22.75,25.55491,22.769215Q25.458311,22.788429999999998,25.367317,22.826121Q25.276322,22.863812,25.19443,22.91853Q25.112537,22.973249,25.042893,23.042893Q24.973249,23.112537,24.91853,23.19443Q24.863812,23.276322,24.826121,23.367317Q24.788429999999998,23.458311,24.769215,23.55491Q24.75,23.6515086,24.75,23.75L24.75,40.25Q24.75,40.3485,24.769215,40.4451Q24.788429999999998,40.5417,24.826121,40.6327Q24.863812,40.7237,24.91853,40.8056Q24.973249,40.8875,25.042893,40.9571Q25.112537,41.026700000000005,25.19443,41.0815Q25.276322,41.1362,25.367317,41.1739Q25.458311,41.211600000000004,25.55491,41.2308Q25.6515086,41.25,25.75,41.25L42.25,41.25Q42.3485,41.25,42.4451,41.2308Q42.5417,41.211600000000004,42.6327,41.1739Q42.7237,41.1362,42.8056,41.0815Q42.8875,41.026700000000005,42.9571,40.9571Q43.026700000000005,40.8875,43.0815,40.8056Q43.1362,40.7237,43.1739,40.6327Q43.211600000000004,40.5417,43.2308,40.4451Q43.25,40.3485,43.25,40.25L43.25,23.75Q43.25,23.6515086,43.2308,23.55491Q43.211600000000004,23.458311,43.1739,23.367317Q43.1362,23.276322,43.0815,23.19443Q43.026700000000005,23.112537,42.9571,23.042893Q42.8875,22.973249,42.8056,22.91853Q42.7237,22.863812,42.6327,22.826121Q42.5417,22.788429999999998,42.4451,22.769215Q42.3485,22.75,42.25,22.75L36.75,22.75Q36.676500000000004,22.75,36.6038,22.760745Q36.5311,22.77149,36.4607,22.792749Q36.3904,22.814008,36.3239,22.845325Q36.257400000000004,22.876641,36.1962,22.917342Q36.135,22.958042,36.0804,23.007252Q36.025800000000004,23.056463,35.979,23.113125Q35.9322,23.169787,35.8942,23.232684Q35.8562,23.295581,35.827799999999996,23.36336Q35.174530000000004,24.92149,34,24.92149Q32.82547,24.92149,32.17223,23.363361Q32.14381,23.295581,32.10579,23.232684Q32.06777,23.169788,32.02097,23.113125Q31.97416,23.056463,31.91957,23.007253Q31.86498,22.958043,31.80379,22.917342Q31.74259,22.876641,31.676099999999998,22.845325Q31.60961,22.814008,31.53926,22.792749Q31.46891,22.77149,31.3962,22.760745Q31.32349,22.75,31.25,22.75L25.75,22.75ZM26.75,24.75L26.75,39.25L41.25,39.25L41.25,24.75L37.3808,24.75Q36.2117,26.92149,34,26.92149Q31.78826,26.92149,30.61918,24.75L26.75,24.75Z" fill-rule="evenodd" fill="#FFFFFF" fill-opacity="1"/></g><g><path d="M38.83173,29.957482L38.83211,29.957107Q38.97276,29.816455,39.04888,29.632683Q39.125,29.448912,39.125,29.25Q39.125,29.051088,39.04888,28.867317Q38.97276,28.683545,38.83211,28.542893L38.83153,28.542321Q38.827529999999996,28.53832,38.82347,28.534365L38.822900000000004,28.5338Q38.68284,28.397326,38.5017,28.323663Q38.32055,28.25,38.125,28.25Q37.92609,28.25,37.74232,28.32612Q37.55855,28.402241,37.41789,28.542893L37.417519999999996,28.543268L32.625,33.33579L30.582107,31.29289Q30.441454,31.15224,30.257683,31.07612Q30.073912,31,29.875,31Q29.676088,31,29.492317,31.07612Q29.308546,31.15224,29.167893,31.29289Q29.027241,31.43355,28.95112,31.61732Q28.875,31.80109,28.875,32Q28.875,32.19891,28.95112,32.38268Q29.027241,32.56645,29.167893,32.70711L31.91789,35.45711Q32.05855,35.59776,32.24232,35.67388Q32.42609,35.75,32.625,35.75Q32.82391,35.75,33.00768,35.67388Q33.19145,35.59776,33.33211,35.45711L38.83173,29.957482Z" fill-rule="evenodd" fill="#FFFFFF" fill-opacity="1"/></g></g></g></svg>