<svg xmlns="http://www.w3.org/2000/svg" xmlns:xlink="http://www.w3.org/1999/xlink" fill="none" version="1.1" width="68" height="68" viewBox="0 0 68 68"><defs><filter id="master_svg0_79_9702" filterUnits="objectBoundingBox" color-interpolation-filters="sRGB" x="-12" y="-10" width="74" height="74"><feFlood flood-opacity="0" result="BackgroundImageFix"/><feColorMatrix in="SourceAlpha" type="matrix" values="0 0 0 0 0 0 0 0 0 0 0 0 0 0 0 0 0 0 127 0"/><feOffset dy="2" dx="0"/><feGaussianBlur stdDeviation="3"/><feColorMatrix type="matrix" values="0 0 0 0 0 0 0 0 0 0 0 0 0 0 0 0 0 0 0.10000000149011612 0"/><feBlend mode="normal" in2="BackgroundImageFix" result="effect1_dropShadow"/><feBlend mode="normal" in="SourceGraphic" in2="effect1_dropShadow" result="shape"/></filter><clipPath id="master_svg1_79_9715"><rect x="23" y="21" width="22" height="22" rx="0"/></clipPath></defs><g><g filter="url(#master_svg0_79_9702)"><ellipse cx="34" cy="32" rx="25" ry="25" fill="#FFFFFF" fill-opacity="1"/></g><g><ellipse cx="34" cy="32" rx="20" ry="20" fill="#CCCCCC" fill-opacity="1"/></g><g clip-path="url(#master_svg1_79_9715)"><g><rect x="23" y="21" width="22" height="22" rx="0" fill="#FFFFFF" fill-opacity="0"/></g><g><path d="M43.16679609375,39.4166259765625Q43.265296093749996,39.4166259765625,43.361896093750005,39.3974259765625Q43.45849609375,39.378225976562504,43.54949609375,39.3405259765625Q43.64049609375,39.3028259765625,43.72239609375,39.2481259765625Q43.80429609375,39.1933259765625,43.873896093750005,39.1237259765625Q43.94359609375,39.0541259765625,43.99829609375,38.9722259765625Q44.05299609375,38.8903259765625,44.09069609375,38.7993259765625Q44.12839609375,38.7083259765625,44.147596093749996,38.6117259765625Q44.16679609375,38.5151259765625,44.16679609375,38.4166259765625L44.16679609375,24.6666259765625Q44.16679609375,24.5681345765625,44.147596093749996,24.4715359765625Q44.12839609375,24.3749369765625,44.09069609375,24.2839429765625Q44.05299609375,24.1929479765625,43.99829609375,24.1110559765625Q43.94359609375,24.0291629765625,43.873896093750005,23.9595189765625Q43.80429609375,23.8898749765625,43.72239609375,23.8351559765625Q43.64049609375,23.7804379765625,43.54949609375,23.7427469765625Q43.45849609375,23.705055976562498,43.361896093750005,23.6858409765625Q43.265296093749996,23.6666259765625,43.16679609375,23.6666259765625L24.83349609375,23.6666259765625Q24.73500469375,23.6666259765625,24.63840609375,23.6858409765625Q24.54180709375,23.705055976562498,24.45081309375,23.7427469765625Q24.35981809375,23.7804379765625,24.27792609375,23.8351559765625Q24.19603309375,23.8898749765625,24.12638909375,23.9595189765625Q24.05674509375,24.0291629765625,24.00202609375,24.1110559765625Q23.94730809375,24.1929479765625,23.90961709375,24.2839429765625Q23.871926093749998,24.3749369765625,23.85271109375,24.4715359765625Q23.83349609375,24.5681345765625,23.83349609375,24.6666259765625L23.83349609375,38.4166259765625Q23.83349609375,38.5151259765625,23.85271109375,38.6117259765625Q23.871926093749998,38.7083259765625,23.90961709375,38.7993259765625Q23.94730809375,38.8903259765625,24.00202609375,38.9722259765625Q24.05674509375,39.0541259765625,24.12638909375,39.1237259765625Q24.19603309375,39.1933259765625,24.27792609375,39.2481259765625Q24.35981809375,39.3028259765625,24.45081309375,39.3405259765625Q24.54180709375,39.378225976562504,24.63840609375,39.3974259765625Q24.73500469375,39.4166259765625,24.83349609375,39.4166259765625L31.29428609375,39.4166259765625L33.293056093749996,41.4154259765625Q33.36269609375,41.4850259765625,33.44459609375,41.5397259765625Q33.52648609375,41.5945259765625,33.61747609375,41.6321259765625Q33.70847609375,41.6698259765625,33.80507609375,41.6891259765625Q33.90166609375,41.7083259765625,34.000166093749996,41.7083259765625Q34.09865609375,41.7083259765625,34.195256093750004,41.6891259765625Q34.291846093749996,41.6698259765625,34.382846093750004,41.6321259765625Q34.47383609375,41.5945259765625,34.55573609375,41.5397259765625Q34.63762609375,41.4850259765625,34.70726609375,41.4154259765625L36.70599609375,39.4166259765625L43.16679609375,39.4166259765625ZM42.16679609375,37.4166259765625L36.29179609375,37.4166259765625Q36.09289609375,37.4166259765625,35.90919609375,37.4927259765625Q35.72539609375,37.5688259765625,35.58469609375,37.7095259765625L34.000166093749996,39.2941259765625L32.41560609375,37.7095259765625Q32.27494609375,37.5688259765625,32.09117609375,37.4927259765625Q31.907406093749998,37.4166259765625,31.70849609375,37.4166259765625L25.83349609375,37.4166259765625L25.83349609375,25.6666259765625L42.16679609375,25.6666259765625L42.16679609375,37.4166259765625Z" fill-rule="evenodd" fill="#FFFFFF" fill-opacity="1"/></g><g><path d="M27.5,29.7083740234375L27.5,33.375044023437496Q27.5,33.4667840234375,27.516695,33.5570040234375Q27.532517,33.6425040234375,27.562862,33.7239940234375Q27.593206,33.805494023437504,27.637161,33.8805140234375Q27.681115,33.9555440234375,27.737361,34.0218640234375Q27.793606,34.0881840234375,27.860455,34.1437940234375Q27.927303,34.1994040234375,28.002747,34.2426440234375Q28.078191,34.285884023437504,28.159966,34.315454023437496Q28.241741,34.3450240234375,28.327392,34.3600340234375Q28.4130435,34.375044023437496,28.5,34.375044023437496Q28.5984914,34.375044023437496,28.69509,34.3558240234375Q28.791689,34.3366140234375,28.882683,34.2989240234375Q28.973678,34.2612240234375,29.05557,34.2065140234375Q29.137463,34.1517940234375,29.207107,34.0821440234375Q29.276751,34.0125040234375,29.33147,33.9306140234375Q29.386188,33.8487140234375,29.423879,33.7577240234375Q29.461570000000002,33.6667340234375,29.480785,33.5701340234375Q29.5,33.4735340234375,29.5,33.375044023437496L29.5,29.7083740234375Q29.5,29.6098826234375,29.480785,29.5132840234375Q29.461570000000002,29.4166850234375,29.423879,29.3256910234375Q29.386188,29.2346960234375,29.33147,29.1528040234375Q29.276751,29.0709110234375,29.207107,29.0012670234375Q29.137463,28.9316230234375,29.05557,28.8769040234375Q28.973678,28.8221860234375,28.882683,28.7844950234375Q28.791689,28.746804023437498,28.69509,28.7275890234375Q28.5984914,28.7083740234375,28.5,28.7083740234375Q28.4015086,28.7083740234375,28.30491,28.7275890234375Q28.208311,28.746804023437498,28.117317,28.7844950234375Q28.026322,28.8221860234375,27.94443,28.8769040234375Q27.862537,28.9316230234375,27.792893,29.0012670234375Q27.723249,29.0709110234375,27.66853,29.1528040234375Q27.613812,29.2346960234375,27.576121,29.3256910234375Q27.538429999999998,29.4166850234375,27.519215,29.5132840234375Q27.5,29.6098826234375,27.5,29.7083740234375Z" fill-rule="evenodd" fill="#FFFFFF" fill-opacity="1"/></g><g><path d="M31.16650390625,28.3333740234375L31.16650390625,34.750044023437496Q31.16650390625,34.8485340234375,31.18571890625,34.945134023437504Q31.204933906249998,35.0417340234375,31.24262490625,35.1327240234375Q31.28031590625,35.2237140234375,31.33503390625,35.3056140234375Q31.38975290625,35.3875040234375,31.45939690625,35.4571440234375Q31.52904090625,35.5267940234375,31.61093390625,35.5815140234375Q31.69282590625,35.6362240234375,31.78382090625,35.6739240234375Q31.87481490625,35.7116140234375,31.97141390625,35.7308240234375Q32.06801250625,35.750044023437496,32.16650390625,35.750044023437496Q32.26499530625,35.750044023437496,32.36159390625,35.7308240234375Q32.45819290625,35.7116140234375,32.54918690625,35.6739240234375Q32.64018190625,35.6362240234375,32.72207390625,35.5815140234375Q32.80396690625,35.5267940234375,32.87361090625,35.4571440234375Q32.94325490625,35.3875040234375,32.99797390625,35.3056140234375Q33.05269190625,35.2237140234375,33.09038290625,35.1327240234375Q33.12807390625,35.0417340234375,33.14728890625,34.945134023437504Q33.16650390625,34.8485340234375,33.16650390625,34.750044023437496L33.16650390625,28.3333740234375Q33.16650390625,28.2348826234375,33.14728890625,28.1382840234375Q33.12807390625,28.0416850234375,33.09038290625,27.9506910234375Q33.05269190625,27.8596960234375,32.99797390625,27.7778040234375Q32.94325490625,27.6959110234375,32.87361090625,27.6262670234375Q32.80396690625,27.5566230234375,32.72207390625,27.5019040234375Q32.64018190625,27.4471860234375,32.54918690625,27.4094950234375Q32.45819290625,27.371804023437498,32.36159390625,27.3525890234375Q32.26499530625,27.3333740234375,32.16650390625,27.3333740234375Q32.06801250625,27.3333740234375,31.97141390625,27.3525890234375Q31.87481490625,27.371804023437498,31.78382090625,27.4094950234375Q31.69282590625,27.4471860234375,31.61093390625,27.5019040234375Q31.52904090625,27.5566230234375,31.45939690625,27.6262670234375Q31.38975290625,27.6959110234375,31.33503390625,27.7778040234375Q31.28031590625,27.8596960234375,31.24262490625,27.9506910234375Q31.204933906249998,28.0416850234375,31.18571890625,28.1382840234375Q31.16650390625,28.2348826234375,31.16650390625,28.3333740234375Z" fill-rule="evenodd" fill="#FFFFFF" fill-opacity="1"/></g><g><path d="M34.83349609375,30.625L34.83349609375,32.45833Q34.83349609375,32.55682,34.85271109375,32.65342Q34.87192609375,32.75002,34.90961709375,32.84102Q34.94730809375,32.93201,35.00202609375,33.0139Q35.05674509375,33.0958,35.12638909375,33.16544Q35.19603309375,33.235079999999996,35.27792609375,33.2898Q35.35981809375,33.34452,35.45081309375,33.38221Q35.54180709375,33.4199,35.63840609375,33.43912Q35.73500469375,33.458330000000004,35.83349609375,33.458330000000004Q35.93198749375,33.458330000000004,36.02858609375,33.43912Q36.12518509375,33.4199,36.21617909375,33.38221Q36.30717409375,33.34452,36.38906609375,33.2898Q36.47095909375,33.235079999999996,36.54060309375,33.16544Q36.61024709375,33.0958,36.66496609375,33.0139Q36.71968409375,32.93201,36.75737509375,32.84102Q36.79506609375,32.75002,36.81428109375,32.65342Q36.83349609375,32.55682,36.83349609375,32.45833L36.83349609375,30.625Q36.83349609375,30.5265086,36.81428109375,30.42991Q36.79506609375,30.333311,36.75737509375,30.242317Q36.71968409375,30.151322,36.66496609375,30.06943Q36.61024709375,29.987537,36.54060309375,29.917893Q36.47095909375,29.848249,36.38906609375,29.79353Q36.30717409375,29.738812,36.21617909375,29.701121Q36.12518509375,29.663429999999998,36.02858609375,29.644215Q35.93198749375,29.625,35.83349609375,29.625Q35.73500469375,29.625,35.63840609375,29.644215Q35.54180709375,29.663429999999998,35.45081309375,29.701121Q35.35981809375,29.738812,35.27792609375,29.79353Q35.19603309375,29.848249,35.12638909375,29.917893Q35.05674509375,29.987537,35.00202609375,30.06943Q34.94730809375,30.151322,34.90961709375,30.242317Q34.87192609375,30.333311,34.85271109375,30.42991Q34.83349609375,30.5265086,34.83349609375,30.625Z" fill-rule="evenodd" fill="#FFFFFF" fill-opacity="1"/></g><g><path d="M38.5,29.7083740234375L38.5,33.375044023437496Q38.5,33.4667840234375,38.516695,33.5570040234375Q38.532517,33.6425040234375,38.562862,33.7239940234375Q38.593206,33.805494023437504,38.637161,33.8805140234375Q38.681115,33.9555440234375,38.737361,34.0218640234375Q38.793606,34.0881840234375,38.860455,34.1437940234375Q38.927303,34.1994040234375,39.002747,34.2426440234375Q39.078191,34.285884023437504,39.159966,34.315454023437496Q39.241741,34.3450240234375,39.327392,34.3600340234375Q39.4130435,34.375044023437496,39.5,34.375044023437496Q39.5984914,34.375044023437496,39.69509,34.3558240234375Q39.791689,34.3366140234375,39.882683,34.2989240234375Q39.973678,34.2612240234375,40.05557,34.2065140234375Q40.137463,34.1517940234375,40.207107,34.0821440234375Q40.276751,34.0125040234375,40.33147,33.9306140234375Q40.386188,33.8487140234375,40.423879,33.7577240234375Q40.46157,33.6667340234375,40.480785,33.5701340234375Q40.5,33.4735340234375,40.5,33.375044023437496L40.5,29.7083740234375Q40.5,29.6098826234375,40.480785,29.5132840234375Q40.46157,29.4166850234375,40.423879,29.3256910234375Q40.386188,29.2346960234375,40.33147,29.1528040234375Q40.276751,29.0709110234375,40.207107,29.0012670234375Q40.137463,28.9316230234375,40.05557,28.8769040234375Q39.973678,28.8221860234375,39.882683,28.7844950234375Q39.791689,28.746804023437498,39.69509,28.7275890234375Q39.5984914,28.7083740234375,39.5,28.7083740234375Q39.4015086,28.7083740234375,39.30491,28.7275890234375Q39.208311,28.746804023437498,39.117317,28.7844950234375Q39.026322,28.8221860234375,38.94443,28.8769040234375Q38.862537,28.9316230234375,38.792893,29.0012670234375Q38.723249,29.0709110234375,38.66853,29.1528040234375Q38.613812,29.2346960234375,38.576121,29.3256910234375Q38.53843,29.4166850234375,38.519215,29.5132840234375Q38.5,29.6098826234375,38.5,29.7083740234375Z" fill-rule="evenodd" fill="#FFFFFF" fill-opacity="1"/></g></g></g></svg>