<svg xmlns="http://www.w3.org/2000/svg" xmlns:xlink="http://www.w3.org/1999/xlink" fill="none" version="1.1" width="160" height="120" viewBox="0 0 160 120"><defs><filter id="master_svg0_307_08221" filterUnits="objectBoundingBox" color-interpolation-filters="sRGB" x="0" y="0" width="160" height="50"><feFlood flood-opacity="0" result="BackgroundImageFix"/><feBlend mode="normal" in="SourceGraphic" in2="BackgroundImageFix" result="shape"/><feGaussianBlur in="BackgroundImage" stdDeviation="11.333333015441895"/><feComposite in2="SourceAlpha" operator="in" result="effect1_foregroundBlur"/><feBlend mode="normal" in="SourceGraphic" in2="effect1_foregroundBlur" result="shape"/></filter><linearGradient x1="0.5" y1="0" x2="0.5" y2="1" id="master_svg1_307_07660"><stop offset="0%" stop-color="#2C687A" stop-opacity="0.800000011920929"/><stop offset="100%" stop-color="#FFFFFF" stop-opacity="0"/></linearGradient><filter id="master_svg2_307_08217" filterUnits="objectBoundingBox" color-interpolation-filters="sRGB" x="0" y="0" width="11.034482955932617" height="13.090278625488281"><feFlood flood-opacity="0" result="BackgroundImageFix"/><feBlend mode="normal" in="SourceGraphic" in2="BackgroundImageFix" result="shape"/><feGaussianBlur in="BackgroundImage" stdDeviation="1.1111111640930176"/><feComposite in2="SourceAlpha" operator="in" result="effect1_foregroundBlur"/><feBlend mode="normal" in="SourceGraphic" in2="effect1_foregroundBlur" result="shape"/></filter><radialGradient cx="0" cy="0" r="1" gradientUnits="userSpaceOnUse" id="master_svg3_307_07192" gradientTransform="translate(139.8262087556268 40.540996974719974) rotate(54.942005275498815) scale(8.131332808754344 6.8543272342966395)"><stop offset="0%" stop-color="#3A99B5" stop-opacity="0.3799999952316284"/><stop offset="100%" stop-color="#B8FFDD" stop-opacity="0.2199999988079071"/></radialGradient><filter id="master_svg4_307_08220" filterUnits="objectBoundingBox" color-interpolation-filters="sRGB" x="0" y="0" width="8.82758617401123" height="10.472222328186035"><feFlood flood-opacity="0" result="BackgroundImageFix"/><feBlend mode="normal" in="SourceGraphic" in2="BackgroundImageFix" result="shape"/><feGaussianBlur in="BackgroundImage" stdDeviation="0.8888888359069824"/><feComposite in2="SourceAlpha" operator="in" result="effect1_foregroundBlur"/><feBlend mode="normal" in="SourceGraphic" in2="effect1_foregroundBlur" result="shape"/></filter><radialGradient cx="0" cy="0" r="1" gradientUnits="userSpaceOnUse" id="master_svg5_307_07192" gradientTransform="translate(153.28282059476533 57.39378717686216) rotate(54.94200438557554) scale(6.505065962464793 5.483461728722873)"><stop offset="0%" stop-color="#3A99B5" stop-opacity="0.3799999952316284"/><stop offset="100%" stop-color="#B8FFDD" stop-opacity="0.2199999988079071"/></radialGradient><filter id="master_svg6_307_08213" filterUnits="objectBoundingBox" color-interpolation-filters="sRGB" x="0" y="0" width="14.429707527160645" height="17.074275970458984"><feFlood flood-opacity="0" result="BackgroundImageFix"/><feBlend mode="normal" in="SourceGraphic" in2="BackgroundImageFix" result="shape"/><feGaussianBlur in="BackgroundImage" stdDeviation="1.1111111640930176"/><feComposite in2="SourceAlpha" operator="in" result="effect1_foregroundBlur"/><feBlend mode="normal" in="SourceGraphic" in2="effect1_foregroundBlur" result="shape"/></filter><radialGradient cx="0" cy="0" r="1" gradientUnits="userSpaceOnUse" id="master_svg7_307_07192" gradientTransform="translate(10.803184266719654 37.62220805076947) rotate(54.87298779560971) scale(10.615066322627406 8.970939832642792)"><stop offset="0%" stop-color="#3A99B5" stop-opacity="0.3799999952316284"/><stop offset="100%" stop-color="#B8FFDD" stop-opacity="0.2199999988079071"/></radialGradient><filter id="master_svg8_307_08120" filterUnits="objectBoundingBox" color-interpolation-filters="sRGB" x="0" y="0" width="70" height="70"><feFlood flood-opacity="0" result="BackgroundImageFix"/><feBlend mode="normal" in="SourceGraphic" in2="BackgroundImageFix" result="shape"/><feGaussianBlur in="BackgroundImage" stdDeviation="3.555555582046509"/><feComposite in2="SourceAlpha" operator="in" result="effect1_foregroundBlur"/><feBlend mode="normal" in="SourceGraphic" in2="effect1_foregroundBlur" result="shape"/></filter><linearGradient x1="0.03279924392700195" y1="0.15283584594726562" x2="0.9506592750549316" y2="0.9293041229248047" id="master_svg9_307_07934"><stop offset="0%" stop-color="#3E93AC" stop-opacity="0.10000000149011612"/><stop offset="99.99998211860657%" stop-color="#3E93AC" stop-opacity="0.30000001192092896"/></linearGradient></defs><g><g><g><g style="opacity:0.5;" filter="url(#master_svg0_307_08221)"><path d="M0,68.26003370361329C0,73.22933370361328,2.23858,77.96333370361327,6.2868,82.26923370361328L153.713,82.26923370361328C157.761,77.96333370361327,160,73.22933370361328,160,68.26003370361329C160,48.38283370361329,124.183,32.26923370361328,80,32.26923370361328C35.8172,32.26923370361328,0,48.38283370361329,0,68.26003370361329Z" fill="url(#master_svg1_307_07660)" fill-opacity="1"/></g><g><g><rect x="141.3262162208557" y="44.45669984817505" width="2.546419143676758" height="13.090278625488281" rx="1.273209571838379" fill="#255867" fill-opacity="1"/></g><g filter="url(#master_svg2_307_08217)"><path d="M140.99840383789063,38.59697868408203Q136.15252683789063,44.38533868408203,137.30287183789062,47.330688684082034C138.62701383789062,50.72098868408203,146.57183383789064,50.72098868408203,147.89598383789064,47.330688684082034Q149.04628383789063,44.38533868408203,144.20054383789062,38.59697868408203C143.36899383789063,37.60368368408203,141.82996383789063,37.603692684082034,140.99840383789063,38.59697868408203Z" fill="url(#master_svg3_307_07192)" fill-opacity="1"/><path d="M140.99840383789063,38.59697868408203Q136.15252683789063,44.38533868408203,137.30287183789062,47.330688684082034C138.62701383789062,50.72098868408203,146.57183383789064,50.72098868408203,147.89598383789064,47.330688684082034Q149.04628383789063,44.38533868408203,144.20054383789062,38.59697868408203C143.36899383789063,37.60368368408203,141.82996383789063,37.603692684082034,140.99840383789063,38.59697868408203ZM141.33919383789063,38.88227868408203Q136.66227683789063,44.46881868408203,137.71686083789064,47.16898868408203Q138.1252138378906,48.21448868408203,139.51124383789062,48.83168868408203Q140.85252383789063,49.42888868408203,142.5994238378906,49.42888868408203Q144.34632383789062,49.42888868408203,145.68760383789063,48.83168868408203Q147.0736338378906,48.21448868408203,147.48198383789062,47.16898868408203Q148.53658383789062,44.46881868408203,143.85975383789062,38.88227868408203Q143.36933383789062,38.29645868408203,142.59948383789063,38.29645868408203Q141.8296338378906,38.29645868408203,141.33919383789063,38.88227868408203Z" fill-rule="evenodd" fill="#2C687A" fill-opacity="0.019999999552965164"/></g></g><g><g><rect x="154.48282647132874" y="60.706905364990234" width="1.6976128816604614" height="10.472222328186035" rx="0.8488064408302307" fill="#255867" fill-opacity="1"/></g><g filter="url(#master_svg4_307_08220)"><path d="M154.22058070800782,55.838570708618164Q150.3438747080078,60.469260708618165,151.2641507080078,62.82551070861817C152.32346070800781,65.53776070861817,158.67932070800782,65.53776070861817,159.7386307080078,62.82551070861817Q160.65891070800782,60.469260708618165,156.78229070800782,55.838570708618164C156.1170507080078,55.04393670861816,154.8858207080078,55.04394470861816,154.22058070800782,55.838570708618164Z" fill="url(#master_svg5_307_07192)" fill-opacity="1"/><path d="M154.22058070800782,55.838570708618164Q150.3438747080078,60.469260708618165,151.2641507080078,62.82551070861817C152.32346070800781,65.53776070861817,158.67932070800782,65.53776070861817,159.7386307080078,62.82551070861817Q160.65891070800782,60.469260708618165,156.78229070800782,55.838570708618164C156.1170507080078,55.04393670861816,154.8858207080078,55.04394470861816,154.22058070800782,55.838570708618164ZM154.4932107080078,56.06681070861816Q150.75167070800782,60.53604070861817,151.59534170800782,62.696160708618166Q151.92202470800783,63.532590708618166,153.03085070800782,64.02633070861816Q154.1038707080078,64.50416070861816,155.50139070800782,64.50416070861816Q156.8989107080078,64.50416070861816,157.97193070800782,64.02633070861816Q159.0807607080078,63.532590708618166,159.4074407080078,62.696160708618166Q160.25111070800781,60.53604070861817,156.5096607080078,56.06681070861816Q156.1173207080078,55.598150708618164,155.5014407080078,55.598150708618164Q154.8855607080078,55.59816070861817,154.4932107080078,56.06681070861816Z" fill-rule="evenodd" fill="#2C687A" fill-opacity="0.019999999552965164"/></g></g><g><g><rect x="12.634066104888916" y="42.72964859008789" width="3.3952252864837646" height="17.074275970458984" rx="1.6976126432418823" fill="#255867" fill-opacity="1"/></g><g filter="url(#master_svg6_307_08213)"><path d="M12.840264226837158,34.49431868408203Q5.9406942268371585,42.487318684082034,7.5034352268371585,46.47828868408203C9.235004226837159,50.90038868408203,19.62434422683716,50.90038868408203,21.35594422683716,46.47828868408203Q22.91864422683716,42.487318684082034,16.019284226837158,34.49431868408203C15.174294226837159,33.51539868408203,13.68525422683716,33.51540768408203,12.840264226837158,34.49431868408203Z" fill="url(#master_svg7_307_07192)" fill-opacity="1"/><path d="M12.840264226837158,34.49431868408203Q5.9406942268371585,42.487318684082034,7.5034352268371585,46.47828868408203C9.235004226837159,50.90038868408203,19.62434422683716,50.90038868408203,21.35594422683716,46.47828868408203Q22.91864422683716,42.487318684082034,16.019284226837158,34.49431868408203C15.174294226837159,33.51539868408203,13.68525422683716,33.51540768408203,12.840264226837158,34.49431868408203ZM13.176694226837158,34.78472868408203Q6.4522712268371585,42.57483868408203,7.917284226837158,46.31618868408203Q8.471564226837158,47.731788684082034,10.335294226837158,48.559488684082034Q12.11599422683716,49.350388684082034,14.429694226837158,49.350388684082034Q16.743394226837157,49.350388684082034,18.52404422683716,48.559488684082034Q20.38784422683716,47.731788684082034,20.942144226837158,46.31618868408203Q22.407144226837158,42.57483868408203,15.682844226837158,34.78472868408203Q15.18206422683716,34.20457868408203,14.429774226837157,34.20457868408203Q13.677484226837159,34.20457868408203,13.176694226837158,34.78472868408203Z" fill-rule="evenodd" fill="#2C687A" fill-opacity="0.019999999552965164"/></g></g></g><g><g><rect x="46.15376281738281" y="8.730770111083984" width="50" height="50" rx="7.111111164093018" fill="#255867" fill-opacity="1"/></g><g filter="url(#master_svg8_307_08120)"><rect x="64.00000762939453" y="0" width="70" height="70" rx="7.111111164093018" fill="url(#master_svg9_307_07934)" fill-opacity="1"/></g><g><path d="M77.44800762939452,37.164L85.20600762939453,37.164L84.70200762939453,40.8L87.54600762939452,40.8Q87.72600762939453,40.8,87.86100762939454,40.692Q87.99600762939453,40.584,88.01400762939453,40.403999999999996L89.85000762939453,27.3L86.98800762939453,27.3Q86.82600762939452,27.3,86.70000762939453,27.408Q86.57400762939453,27.516,86.53800762939453,27.695999999999998L85.44000762939453,35.436L79.82400762939453,35.436Q79.55400762939453,35.436,79.41000762939453,35.274Q79.26600762939454,35.094,79.30200762939452,34.824L80.34600762939453,27.3L77.43000762939454,27.3Q77.28600762939453,27.3,77.16900762939453,27.39Q77.05200762939454,27.48,77.03400762939454,27.642L75.93600762939454,35.4Q75.84600762939453,36.12,76.27800762939454,36.641999999999996Q76.72800762939453,37.164,77.44800762939452,37.164ZM97.24800762939454,27.3L105.81600762939453,27.3L104.12400762939453,39.18Q104.07000762939452,39.486000000000004,103.89000762939453,39.756Q103.85400762939453,39.792,103.83600762939453,39.828Q103.65600762939454,40.098,103.40400762939453,40.296Q103.35000762939453,40.332,103.31400762939452,40.367999999999995Q103.04400762939453,40.584,102.72000762939453,40.71Q102.39600762939453,40.8,102.05400762939453,40.8Q102.03600762939453,40.8,102.03600762939453,40.8L93.19800762939454,40.8Q93.19800762939454,40.8,93.18000762939454,40.8Q92.82000762939452,40.8,92.51400762939453,40.71Q92.47800762939454,40.692,92.42400762939454,40.674Q92.15400762939453,40.584,91.97400762939454,40.385999999999996Q91.75800762939453,40.152,91.65000762939454,39.846000000000004Q91.65000762939454,39.81,91.63200762939454,39.774Q91.52400762939453,39.504000000000005,91.54200762939453,39.18L93.19800762939454,27.3L96.79800762939453,27.3L95.21400762939453,38.586Q95.21400762939453,38.658,95.19600762939453,38.694Q95.17800762939453,38.766,95.17800762939453,38.811Q95.17800762939453,38.856,95.25000762939453,38.928Q95.28600762939453,38.982,95.34000762939453,39Q95.39400762939454,39.018,95.46600762939454,39.018Q95.50200762939453,39,95.57400762939453,39L100.16400762939453,39Q100.21800762939453,39,100.25400762939454,39.018Q100.30800762939452,39.018,100.36200762939453,39Q100.41600762939453,38.982,100.48800762939453,38.928Q100.56000762939453,38.856,100.58700762939453,38.811Q100.61400762939454,38.766,100.61400762939454,38.694Q100.61400762939454,38.658,100.61400762939454,38.586L101.94600762939453,29.1L96.99600762939453,29.1L97.24800762939454,27.3ZM108.82200762939453,37.164L116.58000762939453,37.164L116.07600762939452,40.8L118.92000762939453,40.8Q119.10000762939453,40.8,119.23500762939453,40.692Q119.37000762939454,40.584,119.38800762939454,40.403999999999996L121.22400762939452,27.3L118.36200762939453,27.3Q118.20000762939453,27.3,118.07400762939453,27.408Q117.94800762939454,27.516,117.91200762939454,27.695999999999998L116.81400762939452,35.436L111.19800762939454,35.436Q110.92800762939453,35.436,110.78400762939452,35.274Q110.64000762939453,35.094,110.67600762939453,34.824L111.72000762939453,27.3L108.80400762939453,27.3Q108.66000762939453,27.3,108.54300762939454,27.39Q108.42600762939453,27.48,108.40800762939453,27.642L107.31000762939453,35.4Q107.22000762939453,36.12,107.65200762939453,36.641999999999996Q108.10200762939454,37.164,108.82200762939453,37.164Z" fill="#FFFFFF" fill-opacity="1"/></g></g></g><g></g></g></svg>