<?xml version="1.0" encoding="UTF-8"?>
<svg width="30px" height="30px" viewBox="0 0 30 30" version="1.1" xmlns="http://www.w3.org/2000/svg" xmlns:xlink="http://www.w3.org/1999/xlink">
    <title>icon/ZIP备份</title>
    <g id="icon/ZIP备份" stroke="none" stroke-width="1" fill="none" fill-rule="evenodd">
        <g id="文件夹" fill-rule="nonzero">
            <rect id="矩形" fill="#000000" opacity="0" x="0" y="0" width="30" height="30"></rect>
            <path d="M26.914248,25.8691406 L3.05645508,25.8691406 C2.41927734,25.8691406 1.90429688,25.4111719 1.90429688,24.844541 L1.90429688,8.11444336 C1.90429688,7.5478125 2.41927734,7.08984375 3.05645508,7.08984375 L26.914248,7.08984375 C27.5514258,7.08984375 28.0664063,7.5478125 28.0664063,8.11444336 L28.0664063,24.844541 C28.0664063,25.4085937 27.5485254,25.8691406 26.914248,25.8691406 Z" id="路径" fill="#FFE9B4"></path>
            <path d="M15,12.0410156 L1.90429688,12.0410156 L1.90429688,6.16318359 C1.90429688,5.52530273 2.41986328,5.00976562 3.05774414,5.00976562 L12.0202441,5.00976562 C12.5300098,5.00976562 12.9785449,5.34181641 13.1241797,5.83113281 L15,12.0410156 Z" id="路径" fill="#FFB02C"></path>
            <path d="M26.914248,25.8691406 L3.05645508,25.8691406 C2.41927734,25.8691406 1.90429688,25.3541016 1.90429688,24.7168359 L1.90429688,9.82417969 C1.90429688,9.18691406 2.41927734,8.671875 3.05645508,8.671875 L26.914248,8.671875 C27.5514258,8.671875 28.0664063,9.18691406 28.0664063,9.82417969 L28.0664063,24.7168359 C28.0664063,25.3511719 27.5485254,25.8691406 26.914248,25.8691406 Z" id="路径" fill="#FFCA28"></path>
        </g>
    </g>
</svg>