<?xml version="1.0" encoding="UTF-8"?>
<svg width="30px" height="30px" viewBox="0 0 30 30" version="1.1" xmlns="http://www.w3.org/2000/svg" xmlns:xlink="http://www.w3.org/1999/xlink">
    <title>icon/图片</title>
    <g id="icon/图片" stroke="none" stroke-width="1" fill="none" fill-rule="evenodd">
        <g id="编组" transform="translate(3.000000, 1.000000)" fill-rule="nonzero">
            <g id="word">
                <path d="M3.20052288,0 C1.43429594,0 0,1.39224942 0,3.11114149 L0,24.8888859 C0,26.6062166 1.43119938,28 3.20052288,28 L20.801024,28 C22.5657068,28 24,26.6077779 24,24.8888859 L24,5 L19.5241664,0 L3.20052288,0 Z" id="形状" fill="#3B87F7"></path>
                <path d="M17.734217,9 L5.5991163,9 C5.26810455,9 5,9.26810455 5,9.59761851 L5,19.6747547 C5,19.9922864 5.25762001,20.2499064 5.57515165,20.2499064 L17.734217,20.2499064 C18.0652288,20.2499064 18.3333333,19.9818018 18.3333333,19.6507901 L18.3333333,9.5991163 C18.3318355,9.26810455 18.0652288,9 17.734217,9 Z M14.3237475,11.5851868 C14.8959035,11.5851868 15.364712,12.0539954 15.364712,12.6261514 C15.364712,13.1983075 14.8959035,13.667116 14.3237475,13.667116 C13.7515914,13.667116 13.2827829,13.1983075 13.2827829,12.6261514 C13.2827829,12.0539954 13.7500936,11.5851868 14.3237475,11.5851868 Z M15.8425073,18.5034824 C15.8425073,18.821014 15.5848873,19.078634 15.2673557,19.078634 L6.62809855,19.078634 C6.31056691,19.078634 6.0529469,18.821014 6.0529469,18.5034824 L6.0529469,17.07459 C6.0529469,16.9038418 6.12933423,16.7405826 6.26113982,16.6327417 L9.31513518,14.1044709 C9.5218303,13.9337228 9.81689508,13.9277316 10.0295814,14.0909908 L15.5848873,17.7845428 C15.7451509,17.8908859 15.8410095,18.0706208 15.8410095,18.2623381 L15.8410095,18.5034824 L15.8425073,18.5034824 Z" id="形状" fill="#FFFFFF"></path>
            </g>
            <path d="M19.5241565,4.09987937 C19.5241565,4.59752212 19.951012,5 20.476575,5 L24,5 L19.5241565,0 L19.5241565,4.09987937 Z" id="路径" fill="#8ABFFA"></path>
        </g>
    </g>
</svg>