<svg xmlns="http://www.w3.org/2000/svg" xmlns:xlink="http://www.w3.org/1999/xlink" fill="none" version="1.1" width="24.999998092651367" height="24.999998092651367" viewBox="0 0 24.999998092651367 24.999998092651367"><defs><clipPath id="master_svg0_216_5234"><rect x="0" y="0" width="24.999998092651367" height="24.999998092651367" rx="0"/></clipPath><clipPath id="master_svg1_216_5234/267_7281"><rect x="1.25" y="1.25" width="22.499998092651367" height="22.499998092651367" rx="0"/></clipPath></defs><g clip-path="url(#master_svg0_216_5234)"><g clip-path="url(#master_svg1_216_5234/267_7281)"><g><path d="M23.749299999999998,12.39808023841858C23.7315,10.823590238418578,23.239800000000002,9.29099023841858,22.3384,8.000000238418579C21.0923,6.209480238418579,19.159100000000002,5.016242238418579,17.00001,4.704876338418579C16.627380000000002,4.651589938418579,16.25143,4.624898614418579,15.87501,4.625000238418579C13.19886,4.625000238418579,10.83501,5.959700238418579,9.41166,8.000000238418579C9.22204,8.271590238418579,9.0498,8.554910238418579,8.895957,8.84825023841858C8.305585,9.97483023841858,7.99809662,11.22810023841858,8.00000823975,12.500000238418579C8.00000823975,10.01960023841858,10.00656,8.00810023841858,12.48493,8.000000238418579L12.50001,8.000000238418579L12.545010000000001,8.000000238418579L12.56751,8.000000238418579C12.58866,8.000000238418579,12.61003,8.000000238418579,12.63118,8.00135023841858C14.198419999999999,8.03364023841858,15.719940000000001,8.535250238418579,16.99911,9.441350238418579C19.0138,10.867620238418578,20.3291,13.21685023841858,20.3291,15.87320023841858C20.3291,16.24960023841858,20.3024,16.625600238418578,20.249200000000002,16.99820023841858C20.122999999999998,17.880700238418576,19.847,18.735200238418578,19.4329,19.52470023841858C18.852899999999998,20.63130023841858,18.019199999999998,21.58480023841858,17.00001,22.30730023841858C15.71012,23.22140023841858,14.17393,23.72410023841858,12.593160000000001,23.74930023841858L12.56841,23.74930023841858L12.54591,23.74930023841858L12.500910000000001,23.74930023841858C14.04947,23.75140023841858,15.58166,23.43260023841858,17.000909999999998,22.813100238418578C19.600099999999998,21.67460023841858,21.6754,19.59920023841858,22.8138,17.00000023841858C23.4195,15.612100238418579,23.7377,14.11594023841858,23.749299999999998,12.60170023841858C23.749299999999998,12.567720238418579,23.749299999999998,12.53420023841858,23.749299999999998,12.500000238418579C23.749299999999998,12.465800238418579,23.7496,12.43205023841858,23.749299999999998,12.39808023841858Z" fill="#70ABB9" fill-opacity="1"/></g><g><path d="M22.8138,8.00001C21.6754,5.40026,19.5997,3.32453,17,2.18601C15.5807,1.5666039999999999,14.0486,1.24790985,12.5,1.2500109863C10.95146,1.24786316,9.41926,1.566563,8.00001,2.18601C5.40019,3.32445,3.32445,5.40019,2.18601,8.00001C1.566563,9.41926,1.24786316,10.95146,1.2500109863,12.5L1.2500109863,20.375C1.2500109863,22.239,2.76105,23.75,4.62501,23.75C5.65861,23.7508,6.63537,23.277,7.27461,22.4648C7.38033,22.3317,7.47585,22.1908,7.56036,22.0434C7.85002,21.5351,8.00196,20.96,8.00113,20.375L8.00113,12.5C7.99922,11.22811,8.306709999999999,9.97484,8.897079999999999,8.84826C9.05092,8.55492,9.22317,8.2716,9.41278,8.00001C10.83568,5.95971,13.2,4.62501,15.8761,4.62501C16.2526,4.62491,16.628500000000003,4.6516,17.0011,4.70489C19.1598,5.0165500000000005,21.0925,6.20976,22.3384,8.00001C23.2398,9.291,23.7315,10.8236,23.7493,12.3981C23.7377,10.88392,23.4195,9.3878,22.8138,8.00001Z" fill="#255867" fill-opacity="1"/></g><g><path d="M17,9.443130435943603C15.720839999999999,8.537033435943604,14.19931,8.035422035943604,12.63208,8.003130435943604C15.05623,8.072879835943603,17,10.059860435943603,17,12.501100435943602C17,14.986230435943604,14.98513,17.001110435943602,12.5,17.001110435943602C11.63313,16.999890435943605,10.79928,17.333440435943604,10.17238,17.932150435943605C9.502562,18.568530435943604,9.1238327,19.452230435943605,9.12500274658,20.3761304359436C9.1249835205,22.2342304359436,10.62686,23.742830435943603,12.48493,23.7511304359436L12.54478,23.7511304359436L12.56728,23.7511304359436L12.59203,23.7511304359436C14.17337,23.725630435943604,15.71001,23.222330435943604,17,22.3072304359436C18.01935,21.585430435943604,18.85335,20.632530435943604,19.433799999999998,19.526530435943606C19.8479,18.737030435943602,20.1241,17.8825104359436,20.2504,16.999980435943606C20.3035,16.627210435943603,20.330199999999998,16.251270435943603,20.330199999999998,15.874980435943604C20.33,13.218630435943602,19.01465,10.869400435943604,17,9.443130435943603Z" fill="#FF7D22" fill-opacity="1"/></g></g></g></svg>