<?xml version="1.0" encoding="UTF-8"?>
<svg width="30px" height="30px" viewBox="0 0 30 30" version="1.1" xmlns="http://www.w3.org/2000/svg" xmlns:xlink="http://www.w3.org/1999/xlink">
    <title>icon/音乐</title>
    <g id="icon/音乐" stroke="none" stroke-width="1" fill="none" fill-rule="evenodd">
        <g id="编组" transform="translate(3.000000, 1.000000)" fill-rule="nonzero">
            <g id="word">
                <path d="M3.20052288,0 C1.43429594,0 0,1.39224942 0,3.11114149 L0,24.8888859 C0,26.6062166 1.43119938,28 3.20052288,28 L20.801024,28 C22.5657068,28 24,26.6077779 24,24.8888859 L24,5 L19.5241664,0 L3.20052288,0 Z" id="形状" fill="#FF5BA1"></path>
                <path d="M9.19999863,10.066657 L9.19999863,16.679984 C8.87999914,16.5199842 8.50666599,16.4666505 8.13333408,16.4666505 C6.96000221,16.4666505 6,17.1599832 6,18.066648 C6,18.9733128 6.95999846,19.6666454 8.13333408,19.6666454 C9.30666595,19.6666454 10.2666682,18.9733128 10.2666682,18.066648 L10.2666682,10.9733218 L15.5999971,10.2266568 L15.5999971,16.679984 C15.2799976,16.5199842 14.9066645,16.4666505 14.5333326,16.4666505 C13.3600007,16.4666505 12.3999985,17.1599832 12.3999985,18.066648 C12.3999985,18.9733128 13.359997,19.6666454 14.5333326,19.6666454 C15.7066645,19.6666454 16.6666667,18.9733128 16.6666667,18.066648 L16.6666667,9 L9.20001612,10.0666645 L9.19999863,10.066657 Z" id="路径" fill="#FFFFFF"></path>
            </g>
            <path d="M19.5241565,4.09987937 C19.5241565,4.59752212 19.951012,5 20.476575,5 L24,5 L19.5241565,0 L19.5241565,4.09987937 Z" id="路径" fill="#FF83B8"></path>
        </g>
    </g>
</svg>