<svg xmlns="http://www.w3.org/2000/svg" xmlns:xlink="http://www.w3.org/1999/xlink" fill="none" version="1.1" width="160" height="120" viewBox="0 0 160 120"><defs><filter id="master_svg0_307_10988" filterUnits="objectBoundingBox" color-interpolation-filters="sRGB" x="0" y="0" width="160" height="50"><feFlood flood-opacity="0" result="BackgroundImageFix"/><feBlend mode="normal" in="SourceGraphic" in2="BackgroundImageFix" result="shape"/><feGaussianBlur in="BackgroundImage" stdDeviation="11.333333015441895"/><feComposite in2="SourceAlpha" operator="in" result="effect1_foregroundBlur"/><feBlend mode="normal" in="SourceGraphic" in2="effect1_foregroundBlur" result="shape"/></filter><linearGradient x1="0.5" y1="0" x2="0.5" y2="1" id="master_svg1_307_07660"><stop offset="0%" stop-color="#2C687A" stop-opacity="0.800000011920929"/><stop offset="100%" stop-color="#FFFFFF" stop-opacity="0"/></linearGradient><filter id="master_svg2_307_10991" filterUnits="objectBoundingBox" color-interpolation-filters="sRGB" x="0" y="0" width="11.034482955932617" height="13.090278625488281"><feFlood flood-opacity="0" result="BackgroundImageFix"/><feBlend mode="normal" in="SourceGraphic" in2="BackgroundImageFix" result="shape"/><feGaussianBlur in="BackgroundImage" stdDeviation="1.1111111640930176"/><feComposite in2="SourceAlpha" operator="in" result="effect1_foregroundBlur"/><feBlend mode="normal" in="SourceGraphic" in2="effect1_foregroundBlur" result="shape"/></filter><radialGradient cx="0" cy="0" r="1" gradientUnits="userSpaceOnUse" id="master_svg3_307_07192" gradientTransform="translate(139.8262087556268 48.171925014270755) rotate(54.942005275498815) scale(8.131332808754344 6.8543272342966395)"><stop offset="0%" stop-color="#3A99B5" stop-opacity="0.3799999952316284"/><stop offset="100%" stop-color="#B8FFDD" stop-opacity="0.2199999988079071"/></radialGradient><filter id="master_svg4_307_10994" filterUnits="objectBoundingBox" color-interpolation-filters="sRGB" x="0" y="0" width="8.82758617401123" height="10.472222328186035"><feFlood flood-opacity="0" result="BackgroundImageFix"/><feBlend mode="normal" in="SourceGraphic" in2="BackgroundImageFix" result="shape"/><feGaussianBlur in="BackgroundImage" stdDeviation="0.8888888359069824"/><feComposite in2="SourceAlpha" operator="in" result="effect1_foregroundBlur"/><feBlend mode="normal" in="SourceGraphic" in2="effect1_foregroundBlur" result="shape"/></filter><radialGradient cx="0" cy="0" r="1" gradientUnits="userSpaceOnUse" id="master_svg5_307_07192" gradientTransform="translate(153.28282059476533 65.02471521641294) rotate(54.94200438557554) scale(6.505065962464793 5.483461728722873)"><stop offset="0%" stop-color="#3A99B5" stop-opacity="0.3799999952316284"/><stop offset="100%" stop-color="#B8FFDD" stop-opacity="0.2199999988079071"/></radialGradient><filter id="master_svg6_307_10997" filterUnits="objectBoundingBox" color-interpolation-filters="sRGB" x="0" y="0" width="14.429707527160645" height="17.074275970458984"><feFlood flood-opacity="0" result="BackgroundImageFix"/><feBlend mode="normal" in="SourceGraphic" in2="BackgroundImageFix" result="shape"/><feGaussianBlur in="BackgroundImage" stdDeviation="1.1111111640930176"/><feComposite in2="SourceAlpha" operator="in" result="effect1_foregroundBlur"/><feBlend mode="normal" in="SourceGraphic" in2="effect1_foregroundBlur" result="shape"/></filter><radialGradient cx="0" cy="0" r="1" gradientUnits="userSpaceOnUse" id="master_svg7_307_07192" gradientTransform="translate(10.803184266719654 45.253136090320254) rotate(54.87298779560971) scale(10.615066322627406 8.970939832642792)"><stop offset="0%" stop-color="#3A99B5" stop-opacity="0.3799999952316284"/><stop offset="100%" stop-color="#B8FFDD" stop-opacity="0.2199999988079071"/></radialGradient><filter id="master_svg8_307_11002" filterUnits="objectBoundingBox" color-interpolation-filters="sRGB" x="0" y="0" width="54.55531311035156" height="69.9001693725586"><feFlood flood-opacity="0" result="BackgroundImageFix"/><feBlend mode="normal" in="SourceGraphic" in2="BackgroundImageFix" result="shape"/><feGaussianBlur in="BackgroundImage" stdDeviation="3.555555582046509"/><feComposite in2="SourceAlpha" operator="in" result="effect1_foregroundBlur"/><feBlend mode="normal" in="SourceGraphic" in2="effect1_foregroundBlur" result="shape"/></filter><linearGradient x1="0.03279924392700195" y1="0.15283584594726562" x2="0.9506592750549316" y2="0.9293041229248047" id="master_svg9_307_07915"><stop offset="0%" stop-color="#3E93AC" stop-opacity="0.10000000149011612"/><stop offset="99.99998211860657%" stop-color="#3E93AC" stop-opacity="0.30000001192092896"/></linearGradient></defs><g><g><g><g style="opacity:0.5;" filter="url(#master_svg0_307_10988)"><path d="M0,75.89096174316407C0,80.86026174316406,2.23858,85.59426174316405,6.2868,89.90016174316406L153.713,89.90016174316406C157.761,85.59426174316405,160,80.86026174316406,160,75.89096174316407C160,56.01376174316407,124.183,39.90016174316406,80,39.90016174316406C35.8172,39.90016174316406,0,56.01376174316407,0,75.89096174316407Z" fill="url(#master_svg1_307_07660)" fill-opacity="1"/></g><g><g><rect x="141.3262162208557" y="52.08762788772583" width="2.546419143676758" height="13.090278625488281" rx="1.273209571838379" fill="#255867" fill-opacity="1"/></g><g filter="url(#master_svg2_307_10991)"><path d="M140.99840383789063,46.22790672363281Q136.15252683789063,52.01626672363281,137.30287183789062,54.961616723632815C138.62701383789062,58.35191672363281,146.57183383789064,58.35191672363281,147.89598383789064,54.961616723632815Q149.04628383789063,52.01626672363281,144.20054383789062,46.22790672363281C143.36899383789063,45.23461172363281,141.82996383789063,45.234620723632815,140.99840383789063,46.22790672363281Z" fill="url(#master_svg3_307_07192)" fill-opacity="1"/><path d="M140.99840383789063,46.22790672363281Q136.15252683789063,52.01626672363281,137.30287183789062,54.961616723632815C138.62701383789062,58.35191672363281,146.57183383789064,58.35191672363281,147.89598383789064,54.961616723632815Q149.04628383789063,52.01626672363281,144.20054383789062,46.22790672363281C143.36899383789063,45.23461172363281,141.82996383789063,45.234620723632815,140.99840383789063,46.22790672363281ZM141.33919383789063,46.51320672363281Q136.66227683789063,52.09974672363281,137.71686083789064,54.79991672363281Q138.1252138378906,55.84541672363281,139.51124383789062,56.46261672363281Q140.85252383789063,57.059816723632814,142.5994238378906,57.059816723632814Q144.34632383789062,57.059816723632814,145.68760383789063,56.46261672363281Q147.0736338378906,55.84541672363281,147.48198383789062,54.79991672363281Q148.53658383789062,52.09974672363281,143.85975383789062,46.51320672363281Q143.36933383789062,45.927386723632814,142.59948383789063,45.927386723632814Q141.8296338378906,45.927386723632814,141.33919383789063,46.51320672363281Z" fill-rule="evenodd" fill="#2C687A" fill-opacity="0.019999999552965164"/></g></g><g><g><rect x="154.48282647132874" y="68.33783340454102" width="1.6976128816604614" height="10.472222328186035" rx="0.8488064408302307" fill="#255867" fill-opacity="1"/></g><g filter="url(#master_svg4_307_10994)"><path d="M154.22058070800782,63.469498748168945Q150.3438747080078,68.10018874816895,151.2641507080078,70.45643874816895C152.32346070800781,73.16868874816895,158.67932070800782,73.16868874816895,159.7386307080078,70.45643874816895Q160.65891070800782,68.10018874816895,156.78229070800782,63.469498748168945C156.1170507080078,62.67486474816894,154.8858207080078,62.674872748168944,154.22058070800782,63.469498748168945Z" fill="url(#master_svg5_307_07192)" fill-opacity="1"/><path d="M154.22058070800782,63.469498748168945Q150.3438747080078,68.10018874816895,151.2641507080078,70.45643874816895C152.32346070800781,73.16868874816895,158.67932070800782,73.16868874816895,159.7386307080078,70.45643874816895Q160.65891070800782,68.10018874816895,156.78229070800782,63.469498748168945C156.1170507080078,62.67486474816894,154.8858207080078,62.674872748168944,154.22058070800782,63.469498748168945ZM154.4932107080078,63.697738748168945Q150.75167070800782,68.16696874816894,151.59534170800782,70.32708874816895Q151.92202470800783,71.16351874816894,153.03085070800782,71.65725874816894Q154.1038707080078,72.13508874816894,155.50139070800782,72.13508874816894Q156.8989107080078,72.13508874816894,157.97193070800782,71.65725874816894Q159.0807607080078,71.16351874816894,159.4074407080078,70.32708874816895Q160.25111070800781,68.16696874816894,156.5096607080078,63.697738748168945Q156.1173207080078,63.229078748168945,155.5014407080078,63.229078748168945Q154.8855607080078,63.22908874816895,154.4932107080078,63.697738748168945Z" fill-rule="evenodd" fill="#2C687A" fill-opacity="0.019999999552965164"/></g></g><g><g><rect x="12.634066104888916" y="50.36057662963867" width="3.3952252864837646" height="17.074275970458984" rx="1.6976126432418823" fill="#255867" fill-opacity="1"/></g><g filter="url(#master_svg6_307_10997)"><path d="M12.840264226837158,42.12524672363281Q5.9406942268371585,50.118246723632815,7.5034352268371585,54.10921672363281C9.235004226837159,58.53131672363281,19.62434422683716,58.53131672363281,21.35594422683716,54.10921672363281Q22.91864422683716,50.118246723632815,16.019284226837158,42.12524672363281C15.174294226837159,41.14632672363281,13.68525422683716,41.14633572363281,12.840264226837158,42.12524672363281Z" fill="url(#master_svg7_307_07192)" fill-opacity="1"/><path d="M12.840264226837158,42.12524672363281Q5.9406942268371585,50.118246723632815,7.5034352268371585,54.10921672363281C9.235004226837159,58.53131672363281,19.62434422683716,58.53131672363281,21.35594422683716,54.10921672363281Q22.91864422683716,50.118246723632815,16.019284226837158,42.12524672363281C15.174294226837159,41.14632672363281,13.68525422683716,41.14633572363281,12.840264226837158,42.12524672363281ZM13.176694226837158,42.415656723632814Q6.4522712268371585,50.20576672363281,7.917284226837158,53.94711672363281Q8.471564226837158,55.362716723632815,10.335294226837158,56.190416723632815Q12.11599422683716,56.981316723632816,14.429694226837158,56.981316723632816Q16.743394226837157,56.981316723632816,18.52404422683716,56.190416723632815Q20.38784422683716,55.362716723632815,20.942144226837158,53.94711672363281Q22.407144226837158,50.20576672363281,15.682844226837158,42.415656723632814Q15.18206422683716,41.83550672363281,14.429774226837157,41.83550672363281Q13.677484226837159,41.83550672363281,13.176694226837158,42.415656723632814Z" fill-rule="evenodd" fill="#2C687A" fill-opacity="0.019999999552965164"/></g></g></g><g><g><path d="M68.11697572631836,11.705761743164063L68.11697572631836,11.702721743164062Q68.11697572631836,11.584831743164063,68.11127572631835,11.467071743164063Q68.10557572631836,11.349321743164062,68.09427572631836,11.231991743164063Q68.08297572631835,11.114661743164064,68.06597572631836,10.998041743164062Q68.04907572631836,10.881421743164061,68.02647572631835,10.765791743164062Q68.00397572631836,10.650161743164062,67.97587572631836,10.535791743164062Q67.94777572631835,10.421431743164062,67.91427572631835,10.308611743164063Q67.88067572631836,10.195791743164062,67.84177572631836,10.084791743164063Q67.80277572631836,9.973781743164063,67.75857572631836,9.864861743164063Q67.71437572631837,9.755941743164062,67.66497572631836,9.649361743164063Q67.61557572631835,9.542781743164063,67.56107572631836,9.438811743164063Q67.50657572631836,9.334831743164063,67.44717572631836,9.233711743164061Q67.38777572631835,9.132591743164063,67.32357572631835,9.034561743164062Q67.25937572631835,8.936531743164062,67.19047572631835,8.841841743164062Q67.12167572631836,8.747141743164063,67.04837572631835,8.656011743164063Q66.97507572631835,8.564871743164062,66.89737572631836,8.477521743164063Q66.81977572631835,8.390161743164063,66.73807572631836,8.306801743164062Q66.65637572631836,8.223431743164063,66.57077572631836,8.144261743164062Q66.48507572631836,8.065081743164063,66.39577572631836,7.990291743164063Q66.30647572631835,7.915501743164063,66.21357572631837,7.845269743164063Q66.12077572631836,7.775038743164062,66.02467572631836,7.709538743164062Q65.92857572631836,7.644039743164063,65.82947572631836,7.583428743164062Q65.73037572631836,7.522817743164063,65.62847572631836,7.467241743164062Q65.52647572631835,7.411665743164063,65.42207572631835,7.361258743164062Q65.31757572631835,7.310851743164062,65.21077572631836,7.265734743164063Q65.10407572631836,7.220617743164063,64.99517572631837,7.180899743164063Q64.88637572631836,7.141181743164062,64.77577572631836,7.106958743164062Q64.66527572631836,7.072734743164062,64.55307572631835,7.044088743164062Q64.44097572631836,7.015441743164063,64.32767572631836,6.992441643164063Q64.21437572631837,6.969441143164063,64.09997572631836,6.9521422431640625Q63.98567572631836,6.934843243164062,63.87067572631836,6.923287343164063Q63.75567572631836,6.911731543164063,63.640275726318364,6.905946643164063Q63.52477572631836,6.9001617431640625,63.409275726318356,6.9001617431640625Q63.293675726318355,6.9001617431640625,63.17827572631836,6.905946643164063Q63.06287572631836,6.911731543164063,62.947775726318355,6.923287343164063Q62.83277572631836,6.934843243164062,62.71847572631836,6.9521422431640625Q62.60417572631836,6.969441143164063,62.49077572631836,6.992441643164063Q62.37747572631836,7.015441743164063,62.26537572631836,7.044088743164062Q62.153275726318356,7.072734743164062,62.042675726318365,7.106958743164062Q61.93207572631836,7.141181743164062,61.82327572631836,7.180899743164063Q61.714475726318355,7.220617743164063,61.60767572631836,7.265734743164063Q61.500875726318355,7.310851743164062,61.39647572631836,7.361258743164062Q61.291975726318356,7.411665743164063,61.190075726318355,7.467241743164062Q61.088175726318354,7.522817743164063,60.98897572631836,7.583428743164062Q60.88987572631836,7.644039743164063,60.79377572631836,7.709538743164062Q60.69767572631836,7.775038743164062,60.604875726318355,7.845269743164063Q60.51207572631836,7.915501743164063,60.42267572631836,7.990291743164063Q60.33337572631836,8.065081743164063,60.24777572631836,8.144261743164062Q60.16217572631836,8.223431743164063,60.08037572631836,8.306801743164062Q59.99867572631836,8.390161743164063,59.921075726318364,8.477521743164063Q59.84347572631836,8.564871743164062,59.77017572631836,8.656011743164063Q59.69687572631836,8.747141743164063,59.627975726318354,8.841841743164062Q59.55917572631836,8.936531743164062,59.49497572631836,9.034561743164062Q59.43077572631836,9.132591743164063,59.37137572631836,9.233711743164061Q59.31187572631836,9.334831743164063,59.25747572631836,9.438811743164063Q59.20297572631836,9.542781743164063,59.15357572631836,9.649361743164063Q59.10417572631836,9.755941743164062,59.05987572631836,9.864861743164063Q59.015675726318364,9.973781743164063,58.97677572631836,10.084791743164063Q58.937775726318364,10.195791743164062,58.90427572631836,10.308611743164063Q58.87077572631836,10.421431743164062,58.84267572631836,10.535791743164062Q58.81457572631836,10.650161743164062,58.791975726318356,10.765791743164062Q58.76947572631836,10.881421743164061,58.75247572631836,10.998041743164062Q58.73557572631836,11.114661743164064,58.72427572631836,11.231991743164063Q58.71287572631836,11.349321743164062,58.70727572631836,11.467071743164063Q58.70157572631836,11.584831743164063,58.70157572631836,11.702721743164062L58.70157572631836,11.705761743164063L47.01527572631836,11.705761743164063Q46.87387572631836,11.705761743164063,46.73264572631836,11.712701743164063Q46.59141572631836,11.719641743164063,46.45069572631836,11.733501743164062Q46.309975726318356,11.747351743164064,46.17010572631836,11.768101743164063Q46.03023572631836,11.788851743164063,45.89155572631836,11.816441743164063Q45.75287572631836,11.844021743164063,45.61570572631836,11.878381743164063Q45.47854572631836,11.912741743164062,45.34323572631836,11.953781743164061Q45.20792572631836,11.994831743164063,45.07478572631836,12.042461743164061Q44.94165572631836,12.090101743164062,44.81101572631836,12.144211743164062Q44.68038572631836,12.198321743164062,44.55255572631836,12.258781743164063Q44.42473572631836,12.319241743164064,44.30002572631836,12.385891743164063Q44.17532572631836,12.452551743164062,44.05404572631836,12.525241743164063Q43.93275572631836,12.597941743164062,43.81519572631836,12.676491743164062Q43.69762572631836,12.755051743164064,43.58404572631836,12.839281743164062Q43.47047572631836,12.923521743164063,43.36116572631836,13.013221743164063Q43.25186572631836,13.102921743164062,43.14709572631836,13.197881743164062Q43.04232572631836,13.292841743164063,42.94233572631836,13.392821743164063Q42.84235572631836,13.492811743164062,42.74739572631836,13.597581743164064Q42.65243572631836,13.702351743164062,42.56273572631836,13.811651743164063Q42.47303572631836,13.920961743164064,42.38879572631836,14.034531743164063Q42.30456572631836,14.148101743164062,42.22601072631836,14.265671743164063Q42.147452726318356,14.383241743164064,42.07475872631836,14.504531743164062Q42.00206472631836,14.625811743164062,41.93540972631836,14.750511743164061Q41.86875372631836,14.875221743164062,41.80829772631836,15.003041743164063Q41.74784072631836,15.130871743164063,41.69372972631836,15.261501743164063Q41.639617726318356,15.392141743164062,41.59198172631836,15.525271743164062Q41.54434572631836,15.658411743164063,41.50329972631836,15.793721743164063Q41.46225272631836,15.929031743164062,41.42789572631836,16.06619174316406Q41.39353872631836,16.203361743164063,41.36595272631836,16.34204174316406Q41.33836672631836,16.48072174316406,41.31761902631836,16.620591743164063Q41.29687132631836,16.760461743164065,41.28301172631836,16.90116174316406Q41.26915202631836,17.041861743164063,41.26221389631836,17.183161743164064Q41.25527572631836,17.32436174316406,41.25527572631836,17.465761743164062L41.25527572631836,58.46406174316406Q41.25527572631836,58.605461743164064,41.26221389631836,58.746761743164065Q41.26915202631836,58.88796174316406,41.28301172631836,59.028661743164065Q41.29687132631836,59.16936174316406,41.31761902631836,59.309261743164065Q41.33836672631836,59.44916174316406,41.36595272631836,59.58786174316406Q41.39353872631836,59.726461743164066,41.42789572631836,59.863661743164066Q41.46225272631836,60.000861743164066,41.50329972631836,60.13616174316406Q41.54434572631836,60.27146174316406,41.59198172631836,60.40456174316406Q41.639617726318356,60.53776174316406,41.69372972631836,60.66836174316406Q41.74784072631836,60.798961743164064,41.80829772631836,60.926761743164064Q41.86875372631836,61.05466174316406,41.93540872631836,61.179361743164066Q42.00206472631836,61.30406174316406,42.07475872631836,61.42536174316406Q42.147452726318356,61.546661743164066,42.22601072631836,61.664161743164065Q42.30456572631836,61.78176174316406,42.38879572631836,61.89536174316406Q42.47303572631836,62.00886174316406,42.56273572631836,62.118161743164066Q42.65243572631836,62.22746174316406,42.74739572631836,62.33226174316406Q42.84235572631836,62.437061743164065,42.94233572631836,62.53706174316406Q43.04232572631836,62.63706174316406,43.14709572631836,62.731961743164064Q43.25186572631836,62.82696174316406,43.36116572631836,62.91666174316406Q43.47047572631836,63.006361743164064,43.58404572631836,63.09056174316406Q43.69762572631836,63.17476174316406,43.81519572631836,63.253361743164064Q43.93275572631836,63.331961743164065,44.05404572631836,63.40466174316406Q44.17532572631836,63.477261743164064,44.30002572631836,63.54396174316406Q44.42473572631836,63.610661743164066,44.55255572631836,63.67106174316406Q44.68038572631836,63.731561743164065,44.81101572631836,63.78566174316406Q44.94165572631836,63.83976174316406,45.07478572631836,63.887361743164064Q45.20792572631836,63.93506174316406,45.34323572631836,63.97606174316406Q45.47854572631836,64.01716174316405,45.61570572631836,64.05146174316405Q45.75287572631836,64.08586174316406,45.89155572631836,64.11346174316407Q46.03023572631836,64.14096174316407,46.17010572631836,64.16176174316406Q46.309975726318356,64.18246174316405,46.45069572631836,64.19636174316406Q46.59141572631836,64.21026174316407,46.73264572631836,64.21716174316407Q46.87387572631836,64.22406174316407,47.01527572631836,64.22406174316407L79.68507572631836,64.22406174316407Q79.82647572631836,64.22406174316407,79.96767572631836,64.21716174316407Q80.10897572631836,64.21026174316407,80.24967572631836,64.19636174316406Q80.39037572631835,64.18246174316405,80.53027572631837,64.16176174316406Q80.67007572631836,64.14096174316407,80.80877572631836,64.11346174316407Q80.94747572631836,64.08586174316406,81.08467572631835,64.05146174316405Q81.22177572631836,64.01706174316406,81.35707572631836,63.97606174316406Q81.49247572631836,63.93506174316406,81.62557572631836,63.887361743164064Q81.75867572631836,63.83976174316406,81.88937572631835,63.78566174316406Q82.01997572631836,63.731561743164065,82.14777572631836,63.67106174316406Q82.27557572631835,63.610661743164066,82.40027572631837,63.54396174316406Q82.52497572631836,63.477261743164064,82.64627572631835,63.40456174316406Q82.76757572631837,63.331961743164065,82.88517572631835,63.253361743164064Q83.00277572631836,63.17476174316406,83.11627572631835,63.09056174316406Q83.22987572631837,63.006361743164064,83.33917572631836,62.91666174316406Q83.44847572631835,62.82696174316406,83.55327572631836,62.731961743164064Q83.65807572631836,62.63706174316406,83.75797572631836,62.53706174316406Q83.85797572631836,62.437061743164065,83.95297572631836,62.33226174316406Q84.04787572631835,62.22746174316406,84.13757572631836,62.118161743164066Q84.22727572631837,62.00886174316406,84.31157572631835,61.89536174316406Q84.39577572631836,61.78176174316406,84.47437572631836,61.664161743164065Q84.55287572631836,61.546661743164066,84.62557572631836,61.42536174316406Q84.69827572631836,61.30406174316406,84.76497572631837,61.179361743164066Q84.83157572631836,61.05466174316406,84.89207572631835,60.926761743164064Q84.95247572631837,60.798961743164064,85.00657572631836,60.66836174316406Q85.06077572631835,60.53776174316406,85.10837572631836,60.40456174316406Q85.15597572631836,60.27146174316406,85.19707572631836,60.13616174316406Q85.23807572631836,60.000861743164066,85.27247572631836,59.863661743164066Q85.30677572631836,59.726461743164066,85.33437572631836,59.58786174316406Q85.36197572631835,59.44916174316406,85.38277572631836,59.309261743164065Q85.40347572631836,59.16936174316406,85.41737572631837,59.028661743164065Q85.43117572631836,58.88796174316406,85.43817572631835,58.746761743164065Q85.44507572631835,58.605461743164064,85.44507572631835,58.46406174316406L85.44507572631835,17.465761743164062Q85.44507572631835,17.32436174316406,85.43817572631835,17.183161743164064Q85.43117572631836,17.041861743164063,85.41737572631837,16.90116174316406Q85.40347572631836,16.760461743164065,85.38277572631836,16.620591743164063Q85.36197572631835,16.48072174316406,85.33437572631836,16.34204174316406Q85.30677572631836,16.203361743164063,85.27247572631836,16.06619174316406Q85.23807572631836,15.929031743164062,85.19707572631836,15.793721743164063Q85.15597572631836,15.658411743164063,85.10837572631836,15.525271743164062Q85.06077572631835,15.392141743164062,85.00657572631836,15.261501743164063Q84.95247572631837,15.130871743164063,84.89207572631835,15.003041743164063Q84.83157572631836,14.875221743164062,84.76497572631837,14.750511743164061Q84.69827572631836,14.625811743164062,84.62557572631836,14.504531743164062Q84.55287572631836,14.383241743164064,84.47437572631836,14.265671743164063Q84.39577572631836,14.148101743164062,84.31157572631835,14.034531743164063Q84.22727572631837,13.920961743164064,84.13757572631836,13.811651743164063Q84.04787572631835,13.702351743164062,83.95297572631836,13.597581743164064Q83.85797572631836,13.492811743164062,83.75797572631836,13.392821743164063Q83.65807572631836,13.292841743164063,83.55327572631836,13.197881743164062Q83.44847572631835,13.102921743164062,83.33917572631836,13.013221743164063Q83.22987572631837,12.923521743164063,83.11627572631835,12.839281743164062Q83.00277572631836,12.755051743164064,82.88517572631835,12.676491743164062Q82.76757572631837,12.597941743164062,82.64627572631835,12.525241743164063Q82.52497572631836,12.452551743164062,82.40027572631837,12.385891743164063Q82.27557572631835,12.319241743164064,82.14777572631836,12.258781743164063Q82.01997572631836,12.198321743164062,81.88937572631835,12.144211743164062Q81.75867572631836,12.090101743164062,81.62557572631836,12.042461743164061Q81.49247572631836,11.994831743164063,81.35707572631836,11.953781743164061Q81.22177572631836,11.912741743164062,81.08467572631835,11.878381743164063Q80.94747572631836,11.844021743164063,80.80877572631836,11.816441743164063Q80.67007572631836,11.788851743164063,80.53027572631837,11.768101743164063Q80.39037572631835,11.747351743164064,80.24967572631836,11.733501743164062Q80.10897572631836,11.719641743164063,79.96767572631836,11.712701743164063Q79.82647572631836,11.705761743164063,79.68507572631836,11.705761743164063L68.11697572631836,11.705761743164063Z" fill-rule="evenodd" fill="#255867" fill-opacity="1"/></g><g filter="url(#master_svg8_307_11002)"><path d="M88.90960463256836,5.06274L103.44410463256835,5.06274Q103.61870463256835,5.06274,103.79300463256837,5.0713Q103.96740463256836,5.07987,104.14110463256836,5.09698Q104.31480463256835,5.11409,104.48750463256836,5.1397Q104.66020463256837,5.16532,104.83140463256836,5.19937Q105.00260463256836,5.23343,105.17200463256836,5.27585Q105.34130463256835,5.31826,105.50830463256835,5.36894Q105.67540463256836,5.41961,105.83980463256836,5.47842Q106.00410463256836,5.53723,106.16540463256837,5.60404Q106.32670463256835,5.67084,106.48450463256836,5.74548Q106.64230463256837,5.82012,106.79630463256836,5.90241Q106.95020463256836,5.9847,107.09990463256835,6.07444Q107.24970463256835,6.16419,107.39480463256837,6.26117Q107.54000463256835,6.35816,107.68020463256836,6.46215Q107.82040463256837,6.56614,107.95530463256836,6.67688Q108.09030463256836,6.78763,108.21960463256836,6.90486Q108.34900463256835,7.02209,108.47240463256836,7.14553Q108.59590463256836,7.26897,108.71310463256836,7.39832Q108.83030463256836,7.52766,108.94110463256837,7.66261Q109.05180463256836,7.79755,109.15580463256836,7.93776Q109.25980463256836,8.07798,109.35680463256836,8.22312Q109.45380463256836,8.36827,109.54350463256836,8.51801Q109.63320463256835,8.66774,109.71550463256835,8.82169Q109.79780463256836,8.97565,109.87250463256836,9.13346Q109.94710463256837,9.29126,110.01390463256837,9.45254Q110.08070463256837,9.61382,110.13950463256836,9.77818Q110.19830463256835,9.94255,110.24900463256836,10.1096Q110.29970463256836,10.2767,110.34210463256835,10.446Q110.38450463256837,10.6153,110.41860463256836,10.7865Q110.45260463256835,10.9578,110.47820463256835,11.1304Q110.50390463256835,11.3031,110.52100463256835,11.4768Q110.53810463256836,11.6506,110.54660463256836,11.8249Q110.55520463256836,11.9993,110.55520463256836,12.1738L110.55520463256836,62.7891Q110.55520463256836,62.9636,110.54660463256836,63.138Q110.53810463256836,63.3123,110.52100463256835,63.4861Q110.50390463256835,63.6598,110.47820463256835,63.8325Q110.45260463256835,64.0051,110.41860463256836,64.1764Q110.38450463256837,64.3476,110.34210463256835,64.5169Q110.29970463256836,64.6862,110.24900463256836,64.8533Q110.19830463256835,65.0203,110.13950463256836,65.1847Q110.08070463256837,65.3491,110.01390463256837,65.5104Q109.94710463256837,65.6716,109.87250463256836,65.8294Q109.79780463256836,65.9873,109.71550463256835,66.1412Q109.63320463256835,66.2952,109.54350463256836,66.4449Q109.45370463256836,66.5946,109.35680463256836,66.7398Q109.25980463256836,66.8849,109.15580463256836,67.0251Q109.05180463256836,67.1653,108.94110463256837,67.3003Q108.83030463256836,67.4352,108.71310463256836,67.5646Q108.59590463256836,67.6939,108.47240463256836,67.8174Q108.34900463256835,67.9408,108.21960463256836,68.058Q108.09030463256836,68.1753,107.95530463256836,68.286Q107.82040463256837,68.3968,107.68020463256836,68.5008Q107.54000463256835,68.6047,107.39480463256837,68.7017Q107.24970463256835,68.7987,107.09990463256835,68.8885Q106.95020463256836,68.9782,106.79630463256836,69.0605Q106.64230463256837,69.1428,106.48450463256836,69.2174Q106.32670463256835,69.2921,106.16540463256837,69.3589Q106.00410463256836,69.4257,105.83980463256836,69.4845Q105.67540463256836,69.5433,105.50830463256835,69.594Q105.34130463256835,69.6446,105.17200463256836,69.6871Q105.00260463256836,69.7295,104.83140463256836,69.7635Q104.66020463256837,69.7976,104.48750463256836,69.8232Q104.31480463256835,69.8488,104.14110463256836,69.8659Q103.96740463256836,69.883,103.79300463256837,69.8916Q103.61870463256835,69.9002,103.44410463256835,69.9002L63.111014632568356,69.9002Q62.93644463256836,69.9002,62.76209463256836,69.8916Q62.587734632568356,69.883,62.41400463256836,69.8659Q62.24027463256836,69.8488,62.06759463256836,69.8232Q61.89492463256836,69.7976,61.72370463256836,69.7635Q61.55249463256836,69.7295,61.38315463256836,69.6871Q61.21382463256836,69.6446,61.04676463256836,69.594Q60.87971463256836,69.5433,60.715354632568356,69.4845Q60.55099463256836,69.4257,60.38971463256836,69.3589Q60.22843463256836,69.2921,60.07062463256836,69.2174Q59.912814632568356,69.1428,59.75886463256836,69.0605Q59.604904632568356,68.9782,59.45517463256836,68.8885Q59.30544463256836,68.7987,59.16029463256836,68.7017Q59.01514463256836,68.6047,58.87493463256836,68.5008Q58.73471463256836,68.3968,58.59977463256836,68.286Q58.46483463256836,68.1753,58.33548463256836,68.058Q58.20613463256836,67.9408,58.08270463256836,67.8174Q57.959264632568356,67.6939,57.84203463256836,67.5646Q57.72479463256836,67.4352,57.61405463256836,67.3003Q57.50330463256836,67.1653,57.39931463256836,67.0251Q57.29532463256836,66.8849,57.19834463256836,66.7398Q57.10135463256836,66.5946,57.01161463256836,66.4449Q56.92186663256836,66.2952,56.83957563256836,66.1412Q56.75728463256836,65.9873,56.68264763256836,65.8294Q56.60800963256836,65.6716,56.54120563256836,65.5104Q56.47440163256836,65.3491,56.41559163256836,65.1847Q56.35678063256836,65.0203,56.30610663256836,64.8533Q56.25543263256836,64.6862,56.21301563256836,64.5169Q56.17059963256836,64.3476,56.13654263256836,64.1764Q56.10248563256836,64.0051,56.07687163256836,63.8325Q56.05125723256836,63.6598,56.03414653256836,63.4861Q56.01703593256836,63.3123,56.00847027256836,63.138Q55.99990463256836,62.9636,55.99990463256836,62.7891L55.99990463256836,12.1738Q55.99990463256836,11.9993,56.00847027256836,11.8249Q56.01703593256836,11.6506,56.03414653256836,11.4768Q56.05125723256836,11.3031,56.07687163256836,11.1304Q56.10248563256836,10.9578,56.13654263256836,10.7865Q56.17059963256836,10.6153,56.21301563256836,10.446Q56.25543263256836,10.2767,56.30610663256836,10.1096Q56.35678063256836,9.94255,56.41559163256836,9.77818Q56.47440163256836,9.61382,56.54120563256836,9.45254Q56.60800963256836,9.29126,56.68264763256836,9.13346Q56.75728463256836,8.97565,56.83957563256836,8.82169Q56.92186663256836,8.66774,57.01161463256836,8.51801Q57.10135463256836,8.36827,57.19834463256836,8.22312Q57.29532463256836,8.07798,57.39931463256836,7.93776Q57.50330463256836,7.79755,57.61405463256836,7.66261Q57.72479463256836,7.52766,57.84203463256836,7.39832Q57.959264632568356,7.26897,58.08270463256836,7.14553Q58.20613463256836,7.02209,58.33548463256836,6.90486Q58.46483463256836,6.78763,58.59977463256836,6.67688Q58.73471463256836,6.56614,58.87493463256836,6.46215Q59.01514463256836,6.35816,59.16029463256836,6.26117Q59.30544463256836,6.16419,59.45517463256836,6.07444Q59.604904632568356,5.9847,59.75886463256836,5.90241Q59.912814632568356,5.82012,60.07062463256836,5.74548Q60.22843463256836,5.67084,60.38971463256836,5.60404Q60.55099463256836,5.53723,60.715354632568356,5.47842Q60.87971463256836,5.41961,61.04676463256836,5.36894Q61.21381463256836,5.31826,61.38315463256836,5.27585Q61.55249463256836,5.23343,61.72370463256836,5.19937Q61.89492463256836,5.16532,62.06759463256836,5.1397Q62.24027463256836,5.11409,62.41400463256836,5.09698Q62.587734632568356,5.07987,62.76209463256836,5.0713Q62.93644463256836,5.06274,63.111014632568356,5.06274L77.09020463256836,5.06274Q77.13560463256836,4.79937,77.20320463256836,4.54103Q77.27090463256836,4.2827,77.36030463256836,4.03137Q77.44980463256836,3.78004,77.56040463256836,3.53762Q77.67110463256836,3.29521,77.80200463256836,3.06356Q77.93290463256835,2.83191,78.08310463256836,2.61279Q78.23340463256835,2.39368,78.40180463256836,2.18876Q78.57010463256836,1.98384,78.75540463256836,1.79468Q78.94070463256836,1.60552,79.14140463256837,1.43356Q79.34210463256835,1.2616,79.55680463256836,1.10815Q79.77140463256836,0.954709,79.99840463256837,0.820943Q80.22530463256837,0.687178,80.46290463256835,0.574113Q80.70040463256836,0.461048,80.94670463256836,0.369545Q81.19300463256836,0.278042,81.44610463256836,0.208797Q81.69930463256836,0.139553,81.95740463256836,0.0930942Q82.21560463256836,0.0466359,82.47670463256836,0.023318Q82.73780463256836,0,82.99990463256836,0Q83.26200463256836,0,83.52310463256836,0.023318Q83.78420463256836,0.0466359,84.04240463256836,0.0930942Q84.30050463256836,0.139553,84.55370463256835,0.208797Q84.80680463256836,0.278042,85.05310463256836,0.369545Q85.29940463256835,0.461048,85.53690463256837,0.574113Q85.77450463256835,0.687178,86.00140463256835,0.820943Q86.22840463256836,0.954709,86.44300463256836,1.10815Q86.65770463256837,1.2616,86.85840463256835,1.43356Q87.05910463256836,1.60552,87.24440463256836,1.79468Q87.42970463256836,1.98384,87.59800463256836,2.18876Q87.76640463256837,2.39368,87.91670463256835,2.61279Q88.06690463256837,2.83191,88.19780463256836,3.06356Q88.32870463256836,3.29521,88.43940463256837,3.53762Q88.55000463256836,3.78004,88.63950463256836,4.03137Q88.72890463256836,4.2827,88.79660463256836,4.54103Q88.86420463256836,4.79937,88.90960463256836,5.06274Z" fill-rule="evenodd" fill="url(#master_svg9_307_07915)" fill-opacity="1"/></g><g><ellipse cx="82.99990463256836" cy="6" rx="3" ry="3" fill="#FFFFFF" fill-opacity="1"/></g><g><path d="M63.29146957397461,59.22318190917969L63.29146957397461,15.739861909179687Q63.29146957397461,15.652521909179688,63.30003006397461,15.565611909179687Q63.30859057397461,15.478691909179688,63.32562907397461,15.393031909179687Q63.34266757397461,15.307371909179688,63.36802007397461,15.223801909179688Q63.39337257397461,15.140221909179687,63.42679457397461,15.059531909179688Q63.46021757397461,14.978841909179687,63.50138757397461,14.901820909179687Q63.54255757397461,14.824796909179687,63.59107957397461,14.752178909179687Q63.63960057397461,14.679561909179688,63.69500657397461,14.612048909179688Q63.75041257397461,14.544536909179687,63.81216857397461,14.482780909179688Q63.87392457397461,14.421024909179687,63.941436573974606,14.365618909179688Q64.0089495739746,14.310212909179688,64.08156657397461,14.261691909179687Q64.1541845739746,14.213169909179687,64.23120857397461,14.171999909179688Q64.30822957397461,14.130829909179688,64.3889195739746,14.097406909179687Q64.46960957397461,14.063984909179688,64.5531895739746,14.038632409179687Q64.63675957397462,14.013279909179687,64.7224195739746,13.996241409179687Q64.80807957397461,13.979202909179687,64.89499957397462,13.970642399179688Q64.9819095739746,13.962081909179688,65.06924957397462,13.962081909179688L101.22996957397461,13.962081909179688Q101.31726957397461,13.962081909179688,101.4041695739746,13.970642399179688Q101.49116957397462,13.979202909179687,101.57676957397462,13.996241409179687Q101.66246957397462,14.013279909179687,101.7459695739746,14.038632409179687Q101.82956957397461,14.063984909179688,101.9102695739746,14.097406909179687Q101.99096957397461,14.130829909179688,102.06796957397461,14.171999909179688Q102.1449695739746,14.213169909179687,102.2176695739746,14.261691909179687Q102.29026957397461,14.310212909179688,102.35776957397461,14.365618909179688Q102.42526957397462,14.421024909179687,102.48706957397461,14.482780909179688Q102.54876957397461,14.544536909179687,102.60416957397462,14.612048909179688Q102.65956957397461,14.679561909179688,102.7081695739746,14.752178909179687Q102.75666957397462,14.824796909179687,102.79786957397461,14.901820909179687Q102.83896957397461,14.978841909179687,102.87236957397461,15.059531909179688Q102.90586957397461,15.140221909179687,102.93116957397461,15.223801909179688Q102.9565695739746,15.307371909179688,102.9735695739746,15.393031909179687Q102.9906695739746,15.478691909179688,102.99916957397461,15.565611909179687Q103.0077695739746,15.652521909179688,103.0077695739746,15.739861909179687L103.0077695739746,59.22318190917969Q103.0077695739746,59.31058190917969,102.99916957397461,59.39748190917969Q102.9906695739746,59.48438190917969,102.9735695739746,59.570081909179684Q102.9565695739746,59.65568190917969,102.93116957397461,59.73928190917969Q102.90586957397461,59.822881909179685,102.87236957397461,59.903581909179685Q102.83896957397461,59.984281909179685,102.79776957397462,60.06128190917969Q102.75666957397462,60.13828190917969,102.7081695739746,60.21088190917969Q102.65956957397461,60.283481909179685,102.60416957397462,60.35108190917969Q102.54876957397461,60.418581909179686,102.48706957397461,60.48028190917969Q102.42526957397462,60.542081909179686,102.35776957397461,60.597481909179685Q102.29026957397461,60.65288190917969,102.2176695739746,60.70138190917969Q102.1449695739746,60.749881909179685,102.06796957397461,60.79108190917969Q101.99096957397461,60.832281909179684,101.9102695739746,60.865681909179685Q101.82956957397461,60.899081909179685,101.7459695739746,60.92448190917969Q101.66246957397462,60.949781909179684,101.57676957397462,60.96688190917969Q101.49116957397462,60.983881909179686,101.4041695739746,60.99248190917969Q101.31726957397461,61.000981909179686,101.22996957397461,61.000981909179686L65.06924957397462,61.000981909179686Q64.9819095739746,61.000981909179686,64.89499957397462,60.99248190917969Q64.80807957397461,60.983881909179686,64.7224195739746,60.96688190917969Q64.63675957397462,60.949781909179684,64.5531895739746,60.92448190917969Q64.46960957397461,60.899081909179685,64.3889195739746,60.865681909179685Q64.30822957397461,60.832281909179684,64.23120857397461,60.79108190917969Q64.1541845739746,60.749881909179685,64.08156657397461,60.70138190917969Q64.0089495739746,60.65288190917969,63.941436573974606,60.597481909179685Q63.87392457397461,60.542081909179686,63.81216857397461,60.48028190917969Q63.75041257397461,60.418581909179686,63.69500657397461,60.35098190917969Q63.63960057397461,60.283481909179685,63.59107957397461,60.21088190917969Q63.54255757397461,60.13828190917969,63.50138757397461,60.06128190917969Q63.46021757397461,59.984281909179685,63.42679457397461,59.903581909179685Q63.39337257397461,59.822881909179685,63.36802007397461,59.73928190917969Q63.34266757397461,59.65568190917969,63.32562907397461,59.570081909179684Q63.30859057397461,59.48438190917969,63.30003006397461,59.39748190917969Q63.29146957397461,59.31058190917969,63.29146957397461,59.22318190917969ZM69.4018195739746,25.161781909179687Q69.4018195739746,25.093281909179687,69.40853957397461,25.02508190917969Q69.41525957397461,24.956881909179685,69.4286295739746,24.889681909179686Q69.44199957397461,24.822481909179686,69.46188957397462,24.75688190917969Q69.48178957397461,24.691281909179686,69.50801957397461,24.627981909179688Q69.53423957397462,24.56468190917969,69.56654957397461,24.504181909179685Q69.59885957397461,24.443781909179688,69.63692957397461,24.38678190917969Q69.6750095739746,24.329781909179687,69.71848957397461,24.27678190917969Q69.76196957397461,24.223781909179685,69.8104295739746,24.175381909179688Q69.85888957397461,24.126881909179687,69.91186957397461,24.083381909179685Q69.9648495739746,24.039981909179687,70.0218395739746,24.001881909179687Q70.07881957397461,23.963781909179687,70.13925957397461,23.931471909179688Q70.19970957397462,23.899171909179685,70.2630295739746,23.872941909179687Q70.32634957397461,23.84671190917969,70.39192957397461,23.826821909179685Q70.4575095739746,23.806921909179685,70.52472957397461,23.793551909179687Q70.5919495739746,23.78018190917969,70.66015957397461,23.773461909179687Q70.72835957397461,23.766741909179686,70.79689957397461,23.766741909179686L95.3571695739746,23.766741909179686Q95.4256695739746,23.766741909179686,95.4938695739746,23.773461909179687Q95.56206957397461,23.78018190917969,95.62926957397461,23.793551909179687Q95.69656957397461,23.806921909179685,95.7620695739746,23.826821909179685Q95.82766957397462,23.84671190917969,95.89096957397462,23.872941909179687Q95.95436957397462,23.899171909179685,96.0147695739746,23.931471909179688Q96.07516957397462,23.963781909179687,96.13216957397461,24.001881909179687Q96.18916957397461,24.039981909179687,96.2421695739746,24.083381909179685Q96.29516957397462,24.126881909179687,96.3435695739746,24.175381909179688Q96.39206957397461,24.223781909179685,96.43556957397462,24.27678190917969Q96.47906957397461,24.329781909179687,96.51706957397461,24.38678190917969Q96.55516957397461,24.443781909179688,96.5874695739746,24.504181909179685Q96.61976957397461,24.56468190917969,96.64596957397461,24.627981909179688Q96.6722695739746,24.691281909179686,96.69216957397461,24.75688190917969Q96.71206957397462,24.822481909179686,96.7253695739746,24.889681909179686Q96.73876957397461,24.956881909179685,96.74546957397462,25.02508190917969Q96.75216957397461,25.093281909179687,96.75216957397461,25.161781909179687Q96.75216957397461,25.230381909179687,96.74546957397462,25.29858190917969Q96.73876957397461,25.366781909179686,96.7253695739746,25.433981909179685Q96.71206957397462,25.501181909179685,96.69216957397461,25.56678190917969Q96.6722695739746,25.632381909179685,96.64596957397461,25.695681909179687Q96.61976957397461,25.75898190917969,96.5874695739746,25.819481909179686Q96.55516957397461,25.879881909179687,96.51706957397461,25.93688190917969Q96.47906957397461,25.993881909179688,96.43556957397462,26.04688190917969Q96.39206957397461,26.099881909179686,96.3435695739746,26.148281909179687Q96.29516957397462,26.196781909179688,96.2421695739746,26.240281909179686Q96.18916957397461,26.283681909179688,96.13216957397461,26.321781909179688Q96.07516957397462,26.359881909179688,96.0147695739746,26.392181909179687Q95.95436957397462,26.42448190917969,95.89096957397462,26.450681909179686Q95.82766957397462,26.47698190917969,95.7620695739746,26.496881909179688Q95.69656957397461,26.516681909179688,95.62926957397461,26.530081909179685Q95.56206957397461,26.54348190917969,95.4938695739746,26.55018190917969Q95.4256695739746,26.556881909179687,95.3571695739746,26.556881909179687L70.79689957397461,26.556881909179687Q70.72835957397461,26.556881909179687,70.66015957397461,26.55018190917969Q70.5919495739746,26.54348190917969,70.52472957397461,26.530081909179685Q70.4575095739746,26.516681909179688,70.39192957397461,26.496881909179688Q70.32634957397461,26.47698190917969,70.2630295739746,26.450681909179686Q70.19970957397462,26.42448190917969,70.13926957397462,26.392181909179687Q70.07881957397461,26.359881909179688,70.0218395739746,26.321781909179688Q69.9648495739746,26.283681909179688,69.91186957397461,26.240281909179686Q69.85888957397461,26.196781909179688,69.8104295739746,26.148281909179687Q69.76196957397461,26.099881909179686,69.71848957397461,26.04688190917969Q69.6750095739746,25.993881909179688,69.63692957397461,25.93688190917969Q69.59885957397461,25.879881909179687,69.56654957397461,25.819481909179686Q69.53423957397462,25.75898190917969,69.50801957397461,25.695681909179687Q69.48178957397461,25.632381909179685,69.46188957397462,25.56678190917969Q69.44199957397461,25.501181909179685,69.4286295739746,25.433981909179685Q69.41525957397461,25.366781909179686,69.40853957397461,25.29858190917969Q69.4018195739746,25.230381909179687,69.4018195739746,25.161781909179687ZM70.79689957397461,30.782381909179687Q70.72835957397461,30.782381909179687,70.66015957397461,30.78918190917969Q70.5919495739746,30.795881909179688,70.52472957397461,30.80918190917969Q70.4575095739746,30.822581909179686,70.39192957397461,30.84248190917969Q70.32634957397461,30.86238190917969,70.2630295739746,30.88858190917969Q70.19970957397462,30.914881909179687,70.13926957397462,30.947181909179687Q70.07881957397461,30.979481909179686,70.0218395739746,31.017581909179686Q69.9648495739746,31.055581909179686,69.91186957397461,31.099081909179688Q69.85888957397461,31.142581909179686,69.8104295739746,31.191081909179687Q69.76196957397461,31.239481909179688,69.71848957397461,31.29248190917969Q69.6750095739746,31.34548190917969,69.63692957397461,31.402481909179688Q69.59885957397461,31.459381909179687,69.56654957397461,31.519881909179688Q69.53423957397462,31.58028190917969,69.50801957397461,31.643581909179687Q69.48178957397461,31.70698190917969,69.46188957397462,31.77258190917969Q69.44199957397461,31.83808190917969,69.4286295739746,31.905381909179688Q69.41525957397461,31.972581909179688,69.40853957397461,32.040781909179685Q69.4018195739746,32.10898190917969,69.4018195739746,32.17748190917969Q69.4018195739746,32.246081909179686,69.40853957397461,32.314281909179684Q69.41525957397461,32.38248190917969,69.4286295739746,32.44968190917969Q69.44199957397461,32.51688190917969,69.46188957397462,32.58248190917969Q69.48178957397461,32.64808190917969,69.50801957397461,32.71138190917969Q69.53423957397462,32.77468190917969,69.56654957397461,32.83518190917969Q69.59885957397461,32.89558190917968,69.63692957397461,32.952581909179685Q69.6750095739746,33.00958190917969,69.71848957397461,33.06248190917969Q69.76196957397461,33.11548190917969,69.8104295739746,33.16398190917968Q69.85888957397461,33.21248190917969,69.91186957397461,33.25588190917969Q69.9648495739746,33.29938190917969,70.0218395739746,33.33748190917969Q70.07881957397461,33.37558190917969,70.13925957397461,33.407881909179686Q70.19970957397462,33.440181909179685,70.2630295739746,33.46638190917969Q70.32634957397461,33.49258190917969,70.39192957397461,33.512481909179684Q70.4575095739746,33.53238190917969,70.52472957397461,33.54578190917969Q70.5919495739746,33.559181909179685,70.66015957397461,33.56588190917969Q70.72835957397461,33.57258190917969,70.79689957397461,33.57258190917969L95.3571695739746,33.57258190917969Q95.4256695739746,33.57258190917969,95.4938695739746,33.56588190917969Q95.56206957397461,33.559181909179685,95.62926957397461,33.54578190917969Q95.69656957397461,33.53238190917969,95.7620695739746,33.512481909179684Q95.82766957397462,33.49258190917969,95.89096957397462,33.46638190917969Q95.95436957397462,33.440181909179685,96.0147695739746,33.407881909179686Q96.07516957397462,33.37558190917969,96.13216957397461,33.33748190917969Q96.18916957397461,33.29938190917969,96.2421695739746,33.25588190917969Q96.29516957397462,33.21248190917969,96.3435695739746,33.16398190917968Q96.39206957397461,33.11548190917969,96.43556957397462,33.06248190917969Q96.47906957397461,33.00958190917969,96.51706957397461,32.952581909179685Q96.55516957397461,32.89558190917968,96.5874695739746,32.83518190917969Q96.61976957397461,32.77468190917969,96.64596957397461,32.71138190917969Q96.6722695739746,32.64808190917969,96.69216957397461,32.58248190917969Q96.71206957397462,32.51688190917969,96.7253695739746,32.44968190917969Q96.73876957397461,32.38248190917969,96.74546957397462,32.314281909179684Q96.75216957397461,32.246081909179686,96.75216957397461,32.17748190917969Q96.75216957397461,32.10898190917969,96.74546957397462,32.040781909179685Q96.73876957397461,31.972581909179688,96.7253695739746,31.905381909179688Q96.71206957397462,31.83808190917969,96.69216957397461,31.77258190917969Q96.6722695739746,31.70698190917969,96.64596957397461,31.643581909179687Q96.61976957397461,31.58028190917969,96.5874695739746,31.519881909179688Q96.55516957397461,31.459381909179687,96.51706957397461,31.402481909179688Q96.47906957397461,31.34548190917969,96.43556957397462,31.29248190917969Q96.39206957397461,31.239481909179688,96.3435695739746,31.191081909179687Q96.29516957397462,31.142581909179686,96.2421695739746,31.099081909179688Q96.18916957397461,31.055581909179686,96.13216957397461,31.017581909179686Q96.07516957397462,30.979481909179686,96.0147695739746,30.947181909179687Q95.95436957397462,30.914881909179687,95.89096957397462,30.88858190917969Q95.82766957397462,30.86238190917969,95.7620695739746,30.84248190917969Q95.69656957397461,30.822581909179686,95.62926957397461,30.80918190917969Q95.56206957397461,30.795881909179688,95.4938695739746,30.78918190917969Q95.4256695739746,30.782381909179687,95.3571695739746,30.782381909179687L70.79689957397461,30.782381909179687ZM69.63570957397461,39.19328190917969Q69.63570957397461,39.124681909179685,69.64242957397461,39.05648190917969Q69.64913957397461,38.98828190917969,69.6625095739746,38.92108190917969Q69.67587957397461,38.85388190917969,69.6957795739746,38.78828190917969Q69.71566957397461,38.722681909179684,69.7418995739746,38.659381909179686Q69.7681295739746,38.59608190917969,69.80043957397461,38.53558190917968Q69.8327395739746,38.47518190917969,69.87081957397461,38.41818190917969Q69.90889957397461,38.36118190917969,69.95237957397461,38.30818190917969Q69.99585957397461,38.255281909179686,70.0443195739746,38.20678190917969Q70.09277957397461,38.15828190917969,70.14575957397462,38.11488190917969Q70.1987395739746,38.07138190917969,70.2557195739746,38.03328190917969Q70.31270957397462,37.99518190917969,70.37314957397462,37.962881909179686Q70.43358957397461,37.930581909179686,70.4969095739746,37.90438190917969Q70.56022957397461,37.87818190917969,70.62581957397461,37.85828190917969Q70.6913995739746,37.83838190917969,70.75861957397461,37.824981909179684Q70.8258395739746,37.81158190917969,70.89404957397461,37.804881909179684Q70.9622495739746,37.79818190917969,71.03078957397462,37.79818190917969L83.28336957397461,37.79818190917969Q83.35186957397461,37.79818190917969,83.42006957397462,37.804881909179684Q83.4882695739746,37.81158190917969,83.5554695739746,37.824981909179684Q83.62276957397461,37.83838190917969,83.68826957397461,37.85828190917969Q83.75386957397461,37.87818190917969,83.81716957397461,37.90438190917969Q83.88056957397461,37.930581909179686,83.94096957397461,37.962881909179686Q84.00146957397462,37.99518190917969,84.0583695739746,38.03328190917969Q84.1153695739746,38.07138190917969,84.16836957397462,38.11488190917969Q84.22136957397461,38.15828190917969,84.26976957397461,38.20678190917969Q84.31826957397462,38.255281909179686,84.36176957397461,38.30818190917969Q84.4052695739746,38.36118190917969,84.44326957397462,38.41818190917969Q84.4813695739746,38.47518190917969,84.51366957397461,38.53558190917968Q84.54596957397462,38.59608190917969,84.57226957397461,38.659381909179686Q84.59846957397461,38.722681909179684,84.6183695739746,38.78828190917969Q84.63826957397461,38.85388190917969,84.65156957397461,38.92108190917969Q84.66496957397462,38.98828190917969,84.67166957397461,39.05648190917969Q84.67846957397461,39.124681909179685,84.67846957397461,39.19328190917969Q84.67846957397461,39.26178190917969,84.67166957397461,39.329981909179686Q84.66496957397462,39.398181909179684,84.65156957397461,39.46538190917968Q84.63826957397461,39.532681909179686,84.6183695739746,39.59818190917969Q84.59846957397461,39.66378190917969,84.57226957397461,39.72708190917969Q84.54596957397462,39.79048190917969,84.51366957397461,39.85088190917969Q84.4813695739746,39.91128190917969,84.44326957397462,39.96828190917969Q84.4052695739746,40.02528190917968,84.36176957397461,40.07828190917969Q84.31826957397462,40.13128190917969,84.26976957397461,40.17968190917969Q84.22136957397461,40.22818190917969,84.16836957397462,40.27168190917969Q84.1153695739746,40.315181909179685,84.0583695739746,40.35318190917969Q84.00146957397462,40.39128190917969,83.94096957397461,40.42358190917969Q83.88056957397461,40.45588190917969,83.81716957397461,40.48218190917969Q83.75386957397461,40.50838190917969,83.68826957397461,40.52828190917968Q83.62276957397461,40.54818190917969,83.5554695739746,40.56148190917969Q83.4882695739746,40.57488190917969,83.42006957397462,40.58158190917969Q83.35186957397461,40.58838190917969,83.28336957397461,40.58838190917969L71.03078957397462,40.58838190917969Q70.9622495739746,40.58838190917969,70.89404957397461,40.58158190917969Q70.8258395739746,40.57488190917969,70.75861957397461,40.56148190917969Q70.6913995739746,40.54818190917969,70.62581957397461,40.52828190917968Q70.56022957397461,40.50838190917969,70.4969095739746,40.48218190917969Q70.43358957397461,40.45588190917969,70.37314957397462,40.42358190917969Q70.31270957397462,40.39128190917969,70.2557195739746,40.35318190917969Q70.1987395739746,40.315181909179685,70.14575957397462,40.27168190917969Q70.09277957397461,40.22818190917969,70.0443195739746,40.17968190917969Q69.99585957397461,40.13128190917969,69.95237957397461,40.07828190917969Q69.90889957397461,40.02528190917968,69.87081957397461,39.96828190917969Q69.8327395739746,39.91138190917969,69.80043957397461,39.85088190917969Q69.7681295739746,39.79048190917969,69.7418995739746,39.72708190917969Q69.71566957397461,39.66378190917969,69.6957795739746,39.59818190917969Q69.67587957397461,39.532681909179686,69.6625095739746,39.46538190917968Q69.64913957397461,39.398181909179684,69.64242957397461,39.329981909179686Q69.63570957397461,39.26178190917969,69.63570957397461,39.19328190917969ZM91.52536957397461,54.75278190917969Q91.45686957397461,54.75278190917969,91.38866957397461,54.75958190917969Q91.3204695739746,54.76628190917969,91.2532695739746,54.77958190917969Q91.1860695739746,54.79298190917969,91.12046957397462,54.81288190917969Q91.05486957397461,54.83278190917969,90.9915695739746,54.85898190917969Q90.9282695739746,54.88528190917969,90.86776957397461,54.91758190917969Q90.80736957397461,54.94988190917969,90.75036957397461,54.98798190917969Q90.6933695739746,55.025981909179684,90.64036957397461,55.069481909179686Q90.58736957397461,55.11298190917969,90.53896957397461,55.16138190917969Q90.49046957397461,55.209881909179686,90.44696957397461,55.26288190917969Q90.40356957397461,55.31588190917969,90.36546957397461,55.372781909179686Q90.32736957397461,55.42978190917969,90.29506957397462,55.490281909179686Q90.26276957397461,55.55068190917969,90.2365695739746,55.613981909179685Q90.21026957397461,55.67738190917969,90.1903695739746,55.74288190917969Q90.17046957397461,55.80848190917969,90.15716957397461,55.875781909179686Q90.14376957397461,55.942981909179686,90.13706957397461,56.01118190917969Q90.1303695739746,56.07938190917969,90.1303695739746,56.14788190917969Q90.1303695739746,56.216481909179684,90.13706957397461,56.28468190917969Q90.14376957397461,56.352881909179686,90.15716957397461,56.420081909179686Q90.17046957397461,56.487281909179686,90.1903695739746,56.55288190917969Q90.21026957397461,56.618481909179685,90.2365695739746,56.68178190917969Q90.26276957397461,56.74508190917969,90.29506957397462,56.805581909179686Q90.32736957397461,56.86598190917969,90.36546957397461,56.92298190917969Q90.40356957397461,56.979981909179685,90.44696957397461,57.032881909179686Q90.49046957397461,57.08588190917969,90.53896957397461,57.13438190917969Q90.58736957397461,57.18278190917969,90.64036957397461,57.22628190917969Q90.6933695739746,57.269781909179684,90.75036957397461,57.307881909179684Q90.80736957397461,57.345981909179685,90.86776957397461,57.37828190917969Q90.9282695739746,57.41058190917969,90.9915695739746,57.436781909179686Q91.05486957397461,57.46298190917969,91.12046957397462,57.48288190917969Q91.1860695739746,57.50278190917969,91.2532695739746,57.516181909179686Q91.3204695739746,57.52958190917969,91.38866957397461,57.536281909179685Q91.45686957397461,57.54298190917969,91.52536957397461,57.54298190917969L95.12316957397461,57.54298190917969Q95.19166957397461,57.54298190917969,95.25986957397461,57.536281909179685Q95.3280695739746,57.52958190917969,95.39526957397462,57.516181909179686Q95.4624695739746,57.50278190917969,95.52806957397462,57.48288190917969Q95.59366957397461,57.46298190917969,95.6569695739746,57.436781909179686Q95.72036957397461,57.41058190917969,95.78076957397461,57.37828190917969Q95.84116957397461,57.345981909179685,95.8981695739746,57.307881909179684Q95.95516957397462,57.269781909179684,96.00816957397461,57.22628190917969Q96.06116957397461,57.18278190917969,96.10956957397461,57.13438190917969Q96.15806957397461,57.08588190917969,96.20156957397461,57.032881909179686Q96.2450695739746,56.979981909179685,96.28306957397461,56.92298190917969Q96.3211695739746,56.86598190917969,96.3534695739746,56.805581909179686Q96.38576957397461,56.74508190917969,96.4119695739746,56.68178190917969Q96.43826957397461,56.618481909179685,96.4581695739746,56.55288190917969Q96.47806957397461,56.487281909179686,96.49136957397461,56.420081909179686Q96.50476957397461,56.352881909179686,96.51146957397461,56.28468190917969Q96.5181695739746,56.216481909179684,96.5181695739746,56.14788190917969Q96.5181695739746,56.07938190917969,96.51146957397461,56.01118190917969Q96.50476957397461,55.942981909179686,96.49136957397461,55.875781909179686Q96.47806957397461,55.80848190917969,96.4581695739746,55.74288190917969Q96.43826957397461,55.67738190917969,96.4119695739746,55.613981909179685Q96.38576957397461,55.55068190917969,96.3534695739746,55.490281909179686Q96.3211695739746,55.42978190917969,96.28306957397461,55.372781909179686Q96.2450695739746,55.31588190917969,96.20156957397461,55.26288190917969Q96.15806957397461,55.209881909179686,96.10956957397461,55.16138190917969Q96.06116957397461,55.11298190917969,96.00816957397461,55.069481909179686Q95.95516957397462,55.025981909179684,95.8981695739746,54.987881909179684Q95.84116957397461,54.94988190917969,95.78076957397461,54.91758190917969Q95.72036957397461,54.88528190917969,95.6569695739746,54.85898190917969Q95.59366957397461,54.83278190917969,95.52806957397462,54.81288190917969Q95.4624695739746,54.79298190917969,95.39526957397462,54.77958190917969Q95.3280695739746,54.76628190917969,95.25986957397461,54.75958190917969Q95.19166957397461,54.75278190917969,95.12316957397461,54.75278190917969L91.52536957397461,54.75278190917969Z" fill-rule="evenodd" fill="#FFFFFF" fill-opacity="1"/></g></g></g><g><path d="M56.016,100.60416174316407C55.28,100.66816174316406,54.496,100.73216174316406,53.664,100.79616174316406L53.664,99.53216174316407L56.16,99.53216174316407L56.16,98.58816174316406L53.664,98.58816174316406L53.664,97.53216174316407L52.608,97.53216174316407L52.608,98.58816174316406L50.752,98.58816174316406C51.152,98.06016174316406,51.536,97.45216174316405,51.888,96.78016174316406L56.272,96.78016174316406L56.272,95.75616174316406L52.368,95.75616174316406C52.496,95.46816174316406,52.608,95.18016174316406,52.72,94.89216174316407L51.568,94.70016174316406C51.44,95.05216174316406,51.296,95.40416174316407,51.152,95.75616174316406L48.928,95.75616174316406L48.928,96.78016174316406L50.64,96.78016174316406C50.256,97.50016174316406,49.824,98.10816174316406,49.376,98.62016174316406L49.632,99.53216174316407L52.608,99.53216174316407L52.608,100.86016174316407C51.52,100.92416174316406,50.352,100.97216174316407,49.136,101.03616174316406L49.28,102.06016174316406C50.432,101.99616174316407,51.552,101.91616174316407,52.608,101.85216174316406L52.608,103.00416174316406L53.664,103.00416174316406L53.664,101.77216174316406C54.480000000000004,101.69216174316406,55.264,101.61216174316407,56.016,101.54816174316406L56.016,100.60416174316407ZM58.256,99.54816174316406L60.336,99.54816174316406L60.336,103.02016174316407L61.44,103.02016174316407L61.44,99.54816174316406L63.135999999999996,99.54816174316406L63.135999999999996,98.54016174316406L58.336,98.54016174316406L58.336,96.87616174316406C60.064,96.68416174316407,61.504,96.31616174316406,62.688,95.80416174316406L61.952,94.94016174316407C60.832,95.45216174316405,59.263999999999996,95.80416174316406,57.28,95.99616174316407L57.28,98.50816174316407C57.248,99.94816174316406,56.864000000000004,101.18016174316406,56.16,102.22016174316406L56.96,103.05216174316406C57.647999999999996,102.06016174316406,58.08,100.89216174316407,58.256,99.54816174316406ZM61.344,103.48416174316407L50.848,103.48416174316407L50.848,109.50016174316406L52.032,109.50016174316406L52.032,108.87616174316406L60.16,108.87616174316406L60.16,109.50016174316406L61.344,109.50016174316406L61.344,103.48416174316407ZM52.032,107.88416174316407L52.032,106.63616174316407L60.16,106.63616174316407L60.16,107.88416174316407L52.032,107.88416174316407ZM52.032,105.70816174316406L52.032,104.46016174316406L60.16,104.46016174316406L60.16,105.70816174316406L52.032,105.70816174316406ZM66.128,95.69216174316406L66.128,96.81216174316407L70.72,96.81216174316407L70.72,97.88416174316406C70.70400000000001,98.87616174316406,70.64,99.82016174316406,70.512,100.68416174316407L65.056,100.68416174316407L65.056,101.78816174316407L70.32,101.78816174316407C70.112,102.79616174316406,69.824,103.70816174316406,69.44,104.50816174316407C68.576,106.14016174316406,67.056,107.43616174316406,64.848,108.42816174316405L65.488,109.45216174316405C67.712,108.49216174316406,69.312,107.13216174316406,70.304,105.40416174316407C70.848,104.38016174316407,71.248,103.18016174316406,71.504,101.78816174316407L72.8,101.78816174316407L72.8,107.61216174316407C72.8,108.70016174316406,73.312,109.24416174316406,74.368,109.24416174316406L76.96000000000001,109.24416174316406C77.632,109.24416174316406,78.112,109.10016174316407,78.416,108.81216174316407C78.768,108.46016174316406,79.008,107.51616174316406,79.136,105.94816174316406L78.048,105.59616174316406C77.968,106.84416174316407,77.824,107.58016174316407,77.6,107.83616174316407C77.424,108.04416174316407,77.136,108.15616174316406,76.752,108.15616174316406L74.72,108.15616174316406C74.208,108.15616174316406,73.952,107.88416174316407,73.952,107.37216174316407L73.952,101.78816174316407L78.912,101.78816174316407L78.912,100.68416174316407L71.68,100.68416174316407C71.792,99.82016174316406,71.856,98.87616174316406,71.888,97.88416174316406L71.888,96.81216174316407L77.616,96.81216174316407L77.616,95.69216174316406L66.128,95.69216174316406ZM90.52799999999999,98.38016174316407L92.896,98.38016174316407C92.832,100.54016174316406,92.49600000000001,102.42816174316407,91.872,104.04416174316407C91.232,102.70016174316406,90.72,101.08416174316406,90.32,99.21216174316406L90.52799999999999,98.38016174316407ZM91.344,105.19616174316405C90.608,106.55616174316407,89.632,107.66016174316407,88.384,108.52416174316406L88.976,109.48416174316407C90.176,108.62016174316406,91.168,107.54816174316406,91.936,106.26816174316406C92.73599999999999,107.61216174316407,93.696,108.70016174316406,94.816,109.50016174316406L95.44,108.55616174316407C94.288,107.77216174316406,93.312,106.66816174316406,92.47999999999999,105.22816174316407C93.376,103.34016174316406,93.872,101.05216174316406,93.952,98.38016174316407L94.99199999999999,98.38016174316407L94.99199999999999,97.27616174316407L90.768,97.27616174316407C90.896,96.57216174316406,91.024,95.80416174316406,91.12,94.98816174316406L90,94.79616174316406C89.68,97.83616174316407,89.03999999999999,100.25216174316407,88.096,102.04416174316407L88.816,102.92416174316406C89.152,102.34816174316407,89.47200000000001,101.69216174316406,89.75999999999999,100.95616174316406C90.19200000000001,102.55616174316407,90.72,103.96416174316406,91.344,105.19616174316405ZM83.75999999999999,102.26816174316406C83.648,102.58816174316406,83.52000000000001,102.92416174316406,83.376,103.27616174316407L81.03999999999999,103.27616174316407L81.03999999999999,104.28416174316406L82.928,104.28416174316406C82.608,104.92416174316406,82.24000000000001,105.58016174316407,81.824,106.28416174316406C82.608,106.57216174316406,83.344,106.87616174316406,84.048,107.18016174316406C83.12,107.70816174316406,81.98400000000001,108.14016174316406,80.672,108.49216174316406L81.21600000000001,109.45216174316405C82.816,109.00416174316406,84.144,108.41216174316406,85.2,107.67616174316406C86.144,108.09216174316407,86.96000000000001,108.52416174316406,87.664,108.94016174316405L88.288,108.04416174316407C87.584,107.66016174316407,86.848,107.30816174316406,86.08,106.95616174316406C86.912,106.18816174316406,87.50399999999999,105.27616174316407,87.856,104.22016174316406L87.856,103.27616174316407L84.512,103.27616174316407C84.608,102.98816174316406,84.72,102.70016174316406,84.832,102.39616174316406L83.75999999999999,102.26816174316406ZM85.024,106.50816174316407C84.44800000000001,106.26816174316406,83.84,106.04416174316407,83.2,105.82016174316406C83.52000000000001,105.34016174316406,83.80799999999999,104.82816174316406,84.064,104.28416174316406L86.816,104.28416174316406C86.432,105.11616174316406,85.824,105.86816174316407,85.024,106.50816174316407ZM82.304,95.13216174316406L81.392,95.43616174316406C81.77600000000001,96.04416174316407,82.128,96.73216174316406,82.464,97.51616174316406L83.29599999999999,97.13216174316406C83.00800000000001,96.42816174316407,82.688,95.75616174316406,82.304,95.13216174316406ZM87.168,95.08416174316406C86.88,95.75616174316406,86.464,96.42816174316407,85.952,97.11616174316406L86.768,97.53216174316407C87.28,96.86016174316406,87.68,96.17216174316407,88,95.46816174316406L87.168,95.08416174316406ZM81.072,97.90016174316406L81.072,98.90816174316406L83.344,98.90816174316406C82.864,99.78816174316407,82,100.58816174316406,80.768,101.30816174316406L81.328,102.23616174316406C82.70400000000001,101.30816174316406,83.664,100.22016174316406,84.19200000000001,98.95616174316406L84.19200000000001,101.99616174316407L85.26400000000001,101.99616174316407L85.26400000000001,99.91616174316407C85.84,100.30016174316407,86.52799999999999,100.81216174316407,87.328,101.45216174316405L87.92,100.55616174316407C87.024,100.01216174316406,86.128,99.51616174316406,85.26400000000001,99.08416174316406L85.26400000000001,98.90816174316406L88.176,98.90816174316406L88.176,97.90016174316406L85.26400000000001,97.90016174316406L85.26400000000001,94.84416174316407L84.19200000000001,94.84416174316407L84.19200000000001,97.90016174316406L81.072,97.90016174316406ZM98.624,109.35616174316407C99.52000000000001,109.35616174316407,99.968,108.87616174316406,99.968,107.94816174316406L99.968,103.27616174316407C100.464,103.05216174316406,100.96000000000001,102.82816174316406,101.456,102.57216174316406L101.456,101.43616174316406C100.976,101.69216174316406,100.47999999999999,101.93216174316406,99.968,102.15616174316406L99.968,99.00416174316406L101.50399999999999,99.00416174316406L101.50399999999999,97.90016174316406L99.968,97.90016174316406L99.968,94.87616174316406L98.848,94.87616174316406L98.848,97.90016174316406L96.928,97.90016174316406L96.928,99.00416174316406L98.848,99.00416174316406L98.848,102.62016174316406C98.144,102.87616174316406,97.408,103.10016174316407,96.672,103.27616174316407L96.96000000000001,104.39616174316406C97.584,104.20416174316406,98.208,103.98016174316406,98.848,103.74016174316407L98.848,107.66016174316407C98.848,108.10816174316406,98.64,108.34816174316407,98.24000000000001,108.34816174316407C97.856,108.34816174316407,97.44,108.31616174316406,97.024,108.26816174316406L97.26400000000001,109.35616174316407L98.624,109.35616174316407ZM103.408,102.28416174316406L106.672,102.28416174316406L106.672,104.25216174316407L104,104.25216174316407L104,109.50016174316406L105.072,109.50016174316406L105.072,108.71616174316407L109.408,108.71616174316407L109.408,109.50016174316406L110.47999999999999,109.50016174316406L110.47999999999999,104.25216174316407L107.792,104.25216174316407L107.792,102.28416174316406L111.21600000000001,102.28416174316406L111.21600000000001,101.24416174316406L107.792,101.24416174316406L107.792,99.35616174316407L110.8,99.35616174316407L110.8,95.46816174316406L102.368,95.46816174316406L102.368,100.47616174316406C102.352,103.83616174316407,101.77600000000001,106.58816174316406,100.64,108.70016174316406L101.536,109.50016174316406C102.592,107.42016174316406,103.21600000000001,105.02016174316407,103.408,102.28416174316406ZM106.672,99.35616174316407L106.672,101.24416174316406L103.47200000000001,101.24416174316406C103.47200000000001,100.98816174316406,103.488,100.73216174316406,103.488,100.47616174316406L103.488,99.35616174316407L106.672,99.35616174316407ZM105.072,107.69216174316406L105.072,105.27616174316407L109.408,105.27616174316407L109.408,107.69216174316406L105.072,107.69216174316406ZM109.68,96.54016174316406L109.68,98.31616174316406L103.488,98.31616174316406L103.488,96.54016174316406L109.68,96.54016174316406Z" fill="#999999" fill-opacity="1"/></g></g></svg>