<?xml version="1.0" encoding="UTF-8"?>
<svg width="30px" height="30px" viewBox="0 0 30 30" version="1.1" xmlns="http://www.w3.org/2000/svg" xmlns:xlink="http://www.w3.org/1999/xlink">
    <title>icon/pdf</title>
    <g id="icon/pdf" stroke="none" stroke-width="1" fill="none" fill-rule="evenodd">
        <g id="编组" transform="translate(3.000000, 1.000000)" fill-rule="nonzero">
            <g id="word">
                <path d="M3.20052288,0 C1.43429594,0 0,1.39224942 0,3.11114149 L0,24.8888859 C0,26.6062166 1.43119938,28 3.20052288,28 L20.801024,28 C22.5657068,28 24,26.6077779 24,24.8888859 L24,5 L19.5241664,0 L3.20052288,0 Z" id="形状" fill="#FF5B5B"></path>
                <path d="M16.306685,18.0146709 C15.3851592,17.953071 14.5125894,17.5116048 13.8444831,16.7562724 C12.4621944,17.1346719 11.2296535,17.637738 9.89776633,18.3300039 C8.87112894,20.5960012 7.9481632,21.6666667 7.07559341,21.6666667 L7.07559345,21.6666667 C6.88975081,21.6607812 6.71063344,21.5944824 6.56443458,21.4774669 C6.20446355,21.2882671 6,20.8482676 6,20.3466682 C6,19.9682686 6.05183583,18.9621365 9.23110563,17.3253384 C9.94816794,15.6885403 10.5644383,14.0517537 11.0252013,12.2888052 C10.6148343,11.2812064 9.74370439,8.95214241 10.3585349,7.69373242 L10.3585349,7.69373253 C10.5403948,7.27984655 10.9401074,7.00974817 11.3851723,7 C11.7451433,7 12.0518386,7.18919978 12.257742,7.56613267 C12.718505,8.32146513 12.668109,9.83213004 12.1036744,12.0981274 C12.6162732,13.3579926 13.3347754,14.3641248 14.1540695,15.3101237 C14.8725716,15.1194572 15.5910738,14.9947907 16.2059044,14.9947907 C17.7955365,15.0578573 18,15.9378563 18,16.5054556 C18,18.0161205 16.8725707,18.0161205 16.3081361,18.0161205 L16.306685,18.0146709 Z M7.33333333,20.3333333 L7.44405458,20.2646217 C7.94307992,20.0519427 8.33294347,19.5611452 8.66666667,19 C8.05536062,19.2813906 7.66705653,19.7721881 7.33333333,20.3333333 Z M11.8345412,8.40599148 C11.8345412,8.40599148 11.7556383,8.29246313 11.6000241,8.3492273 C11.4422182,8.40599148 11.4422182,8.46275566 11.4422182,8.46275566 C11.2098928,9.08584152 11.3655069,9.76569155 11.7556383,10.3333333 C12.0668666,9.6521632 12.0668666,9.08584152 11.8345412,8.40599148 Z M11.8844119,14.3333333 C11.8844119,14.3333333 11.1306471,16.170033 10.6666667,17 L13.3333333,16.171414 L13.3333333,16.1714133 C12.7479802,15.621469 12.2599104,15.0023086 11.8844111,14.3333333 L11.8844119,14.3333333 Z M16.3639456,16.3333333 C16,16.3333333 15.6972789,16.3333333 15.3333333,16.4448768 C15.7585034,16.7795071 16.2431973,17 16.5459184,17 C16.8486395,17 17.0901361,17 17.3333333,16.8884565 C17.2721088,16.7795071 17.1513605,16.3333333 16.3639456,16.3333333 Z" id="形状" fill="#FFFFFF"></path>
            </g>
            <path d="M19.5241565,4.09987937 C19.5241565,4.59752212 19.951012,5 20.476575,5 L24,5 L19.5241565,0 L19.5241565,4.09987937 Z" id="路径" fill="#FF8A8A"></path>
        </g>
    </g>
</svg>