<?xml version="1.0" encoding="UTF-8"?>
<svg width="30px" height="30px" viewBox="0 0 30 30" version="1.1" xmlns="http://www.w3.org/2000/svg" xmlns:xlink="http://www.w3.org/1999/xlink">
    <title>icon/PPT</title>
    <g id="icon/PPT" stroke="none" stroke-width="1" fill="none" fill-rule="evenodd">
        <g id="编组" transform="translate(3.000000, 1.000000)" fill-rule="nonzero">
            <g id="word" fill="#FF6936">
                <path d="M3.20052288,0 C1.43429594,0 0,1.39224942 0,3.11114149 L0,24.8888859 C0,26.6062166 1.43119938,28 3.20052288,28 L20.801024,28 C22.5657068,28 24,26.6077779 24,24.8888859 L24,5 L19.5241664,0 L3.20052288,0 Z" id="形状"></path>
            </g>
            <path d="M10.052,20.848 L10.804,16.608 L16.5,16.608 L17.668,9.872 L9.348,9.408 L7.332,20.848 L10.052,20.848 Z M14.356,14.448 L11.172,14.448 L11.652,11.712 L14.82,11.808 L14.356,14.448 Z" id="P" fill="#FFFFFF"></path>
            <path d="M19.5241565,4.09987937 C19.5241565,4.59752212 19.951012,5 20.476575,5 L24,5 L19.5241565,0 L19.5241565,4.09987937 Z" id="路径" fill="#FDA586"></path>
        </g>
    </g>
</svg>