<?xml version="1.0" encoding="UTF-8"?>
<svg width="30px" height="30px" viewBox="0 0 30 30" version="1.1" xmlns="http://www.w3.org/2000/svg" xmlns:xlink="http://www.w3.org/1999/xlink">
    <title>icon/rar</title>
    <g id="icon/rar" stroke="none" stroke-width="1" fill="none" fill-rule="evenodd">
        <g id="编组-2" transform="translate(3.000000, 1.000000)">
            <g id="编组" fill-rule="nonzero">
                <g id="word" fill="#3B87F7">
                    <path d="M3.20052288,0 C1.43429594,0 0,1.39224942 0,3.11114149 L0,24.8888859 C0,26.6062166 1.43119938,28 3.20052288,28 L20.801024,28 C22.5657068,28 24,26.6077779 24,24.8888859 L24,5 L19.5241664,0 L3.20052288,0 Z" id="形状"></path>
                </g>
                <path d="M19.5241565,4.09987937 C19.5241565,4.59752212 19.951012,5 20.476575,5 L24,5 L19.5241565,0 L19.5241565,4.09987937 Z" id="路径" fill="#8ABFFA"></path>
            </g>
            <g id="编组" transform="translate(4.000000, 0.000000)">
                <rect id="矩形" fill="#FFFFFF" x="6.07291994e-14" y="0" width="2" height="2"></rect>
                <rect id="矩形备份" fill="#FFFFFF" x="2" y="2" width="2" height="2"></rect>
                <rect id="矩形备份-2" fill="#FFFFFF" x="6.07291994e-14" y="4" width="2" height="2"></rect>
                <rect id="矩形备份-3" fill="#FFFFFF" x="2" y="6" width="2" height="2"></rect>
                <rect id="矩形备份-5" fill="#FFFFFF" x="2" y="10" width="2" height="2"></rect>
                <rect id="矩形备份-4" fill="#FFFFFF" x="6.07291994e-14" y="8" width="2" height="2"></rect>
                <rect id="矩形备份-6" stroke="#FFFFFF" x="0.5" y="12.5" width="3" height="2"></rect>
            </g>
            <path d="M4.94880892,23.7901673 L4.94880892,21.4303092 L6.44906234,21.4303092 C6.77344146,21.4303092 7.02483528,21.495185 7.19513431,21.6411556 C7.35732387,21.7790167 7.45463761,22.0060821 7.48707552,22.3223517 L7.56006082,23.0359858 C7.59249873,23.3603649 7.67359351,23.6117587 7.81145464,23.7901673 L8.84135834,23.7901673 C8.64673087,23.5793208 8.5250887,23.2954891 8.49265079,22.9386721 L8.39533705,22.0060821 C8.33046123,21.4384187 8.0466295,21.1059301 7.54384187,20.9923974 L7.54384187,20.9761784 C7.85200203,20.8950836 8.10339584,20.7247846 8.28180436,20.4652813 C8.44399392,20.2301064 8.5250887,19.9624937 8.5250887,19.662443 C8.5250887,19.1109985 8.3385707,18.6893056 7.98175367,18.3973644 C7.6411556,18.1297516 7.17080588,18 6.57881399,18 L4,18 L4,23.7901673 L4.94880892,23.7901673 Z M6.44906234,20.6193614 L4.94880892,20.6193614 L4.94880892,18.8109478 L6.44906234,18.8109478 C6.83831728,18.8109478 7.12214901,18.8758236 7.30055753,19.0217942 C7.47896604,19.1596553 7.5681703,19.3867207 7.5681703,19.7029904 C7.5681703,19.9949316 7.47896604,20.221997 7.30055753,20.3841865 C7.10593006,20.5382666 6.82209833,20.6193614 6.44906234,20.6193614 Z M10.0983274,23.7901673 L10.6254435,22.3385707 L13.0501774,22.3385707 L13.5772935,23.7901673 L14.5909782,23.7901673 L12.3770907,18 L11.2985302,18 L9.08464268,23.7901673 L10.0983274,23.7901673 Z M12.7663457,21.5600608 L10.9092752,21.5600608 L11.8256462,19.0217942 L11.8580841,19.0217942 L12.7663457,21.5600608 Z M16.1074506,23.7901673 L16.1074506,21.4303092 L17.607704,21.4303092 C17.9320831,21.4303092 18.1834769,21.495185 18.353776,21.6411556 C18.5159655,21.7790167 18.6132793,22.0060821 18.6457172,22.3223517 L18.7187025,23.0359858 C18.7511404,23.3603649 18.8322352,23.6117587 18.9700963,23.7901673 L20,23.7901673 C19.8053725,23.5793208 19.6837304,23.2954891 19.6512924,22.9386721 L19.5539787,22.0060821 C19.4891029,21.4384187 19.2052712,21.1059301 18.7024835,20.9923974 L18.7024835,20.9761784 C19.0106437,20.8950836 19.2620375,20.7247846 19.440446,20.4652813 C19.6026356,20.2301064 19.6837304,19.9624937 19.6837304,19.662443 C19.6837304,19.1109985 19.4972124,18.6893056 19.1403953,18.3973644 C18.7997973,18.1297516 18.3294475,18 17.7374557,18 L15.1586417,18 L15.1586417,23.7901673 L16.1074506,23.7901673 Z M17.607704,20.6193614 L16.1074506,20.6193614 L16.1074506,18.8109478 L17.607704,18.8109478 C17.9969589,18.8109478 18.2807907,18.8758236 18.4591992,19.0217942 C18.6376077,19.1596553 18.726812,19.3867207 18.726812,19.7029904 C18.726812,19.9949316 18.6376077,20.221997 18.4591992,20.3841865 C18.2645717,20.5382666 17.98074,20.6193614 17.607704,20.6193614 Z" id="RAR" fill="#FFFFFF" fill-rule="nonzero"></path>
        </g>
    </g>
</svg>