<?xml version="1.0" encoding="UTF-8"?>
<svg width="30px" height="30px" viewBox="0 0 30 30" version="1.1" xmlns="http://www.w3.org/2000/svg" xmlns:xlink="http://www.w3.org/1999/xlink">
    <title>icon/txt</title>
    <g id="icon/txt" stroke="none" stroke-width="1" fill="none" fill-rule="evenodd">
        <g id="word" transform="translate(3.000000, 1.000000)" fill-rule="nonzero">
            <path d="M3.20052288,0 C1.43429594,0 0,1.39224942 0,3.11114149 L0,24.8888859 C0,26.6062166 1.43119938,28 3.20052288,28 L20.801024,28 C22.5657068,28 24,26.6077779 24,24.8888859 L24,5 L19.5241664,0 L3.20052288,0 Z" id="形状" fill="#96B6DC"></path>
            <polygon id="T" fill="#FFFFFF" points="12.14 20.848 13.596 11.808 16.7 11.808 17.1 9.52 8.3 9.52 7.9 11.808 10.812 11.808 9.1 20.848"></polygon>
        </g>
        <path d="M19.5241565,4.09987937 C19.5241565,4.59752212 19.951012,5 20.476575,5 L24,5 L19.5241565,0 L19.5241565,4.09987937 Z" id="路径" fill="#C1D1E7" fill-rule="nonzero"></path>
    </g>
</svg>