<?xml version="1.0" encoding="UTF-8"?>
<svg width="30px" height="30px" viewBox="0 0 30 30" version="1.1" xmlns="http://www.w3.org/2000/svg" xmlns:xlink="http://www.w3.org/1999/xlink">
    <title>icon/视频</title>
    <g id="icon/视频" stroke="none" stroke-width="1" fill="none" fill-rule="evenodd">
        <g id="编组" transform="translate(3.000000, 1.000000)" fill-rule="nonzero">
            <g id="word" fill="#B05BFF">
                <path d="M3.20052288,0 C1.43429594,0 0,1.39224942 0,3.11114149 L0,24.8888859 C0,26.6062166 1.43119938,28 3.20052288,28 L20.801024,28 C22.5657068,28 24,26.6077779 24,24.8888859 L24,5 L19.5241664,0 L3.20052288,0 Z" id="形状"></path>
            </g>
            <path d="M19.5241565,4.09987937 C19.5241565,4.59752212 19.951012,5 20.476575,5 L24,5 L19.5241565,0 L19.5241565,4.09987937 Z" id="路径" fill="#C791FA"></path>
        </g>
        <path d="M17.9777177,13.0418886 L20.1605811,16.1949134 C20.789313,17.1030818 20.562785,18.3489857 19.6546166,18.9777177 C19.3201415,19.2092774 18.9230056,19.3333333 18.5161967,19.3333333 L14.15047,19.3333333 C13.0459005,19.3333333 12.15047,18.4379028 12.15047,17.3333333 C12.15047,16.9265244 12.2745259,16.5293885 12.5060856,16.1949134 L14.688949,13.0418886 C15.3176809,12.1337201 16.5635849,11.9071921 17.4717533,12.5359241 C17.669452,12.6727925 17.8408494,12.8441898 17.9777177,13.0418886 Z" id="三角形" fill="#FFFFFF" transform="translate(16.333333, 15.000000) rotate(-270.000000) translate(-16.333333, -15.000000) "></path>
    </g>
</svg>