<?xml version="1.0" encoding="UTF-8"?>
<svg width="30px" height="30px" viewBox="0 0 30 30" version="1.1" xmlns="http://www.w3.org/2000/svg" xmlns:xlink="http://www.w3.org/1999/xlink">
    <title>icon/word</title>
    <g id="icon/word" stroke="none" stroke-width="1" fill="none" fill-rule="evenodd">
        <g id="编组" transform="translate(3.000000, 1.000000)" fill-rule="nonzero">
            <g id="word" fill="#3D64FF">
                <path d="M3.20052288,0 C1.43429594,0 0,1.39224942 0,3.11114149 L0,24.8888859 C0,26.6062166 1.43119938,28 3.20052288,28 L20.801024,28 C22.5657068,28 24,26.6077779 24,24.8888859 L24,5 L19.5241664,0 L3.20052288,0 Z" id="形状"></path>
            </g>
            <path d="M19.5241565,4.09987937 C19.5241565,4.59752212 19.951012,5 20.476575,5 L24,5 L19.5241565,0 L19.5241565,4.09987937 Z" id="路径" fill="#89A0FE"></path>
            <polygon id="W" fill="#FFFFFF" points="8.932 20.848 11.492 14.512 12.132 20.848 14.596 20.848 14.612 20.816 19.956 9.936 16.612 9.36 14.148 16.352 13.476 9.616 13.508 9.52 10.98 9.52 10.996 9.552 8.324 15.936 8.132 9.36 5.044 9.84 6.308 20.752 6.276 20.848"></polygon>
        </g>
    </g>
</svg>