<?xml version="1.0" encoding="UTF-8"?>
<svg width="30px" height="30px" viewBox="0 0 30 30" version="1.1" xmlns="http://www.w3.org/2000/svg" xmlns:xlink="http://www.w3.org/1999/xlink">
    <title>icon/ZIP</title>
    <g id="icon/ZIP" stroke="none" stroke-width="1" fill="none" fill-rule="evenodd">
        <g id="编组-2" transform="translate(3.000000, 1.000000)">
            <g id="编组" fill-rule="nonzero">
                <g id="word" fill="#3B87F7">
                    <path d="M3.20052288,0 C1.43429594,0 0,1.39224942 0,3.11114149 L0,24.8888859 C0,26.6062166 1.43119938,28 3.20052288,28 L20.801024,28 C22.5657068,28 24,26.6077779 24,24.8888859 L24,5 L19.5241664,0 L3.20052288,0 Z" id="形状"></path>
                </g>
                <path d="M19.5241565,4.09987937 C19.5241565,4.59752212 19.951012,5 20.476575,5 L24,5 L19.5241565,0 L19.5241565,4.09987937 Z" id="路径" fill="#8ABFFA"></path>
            </g>
            <path d="M10.3973333,24.6666667 L10.3973333,23.7333333 L6.328,23.7333333 L10.1733333,18.8706667 L10.1733333,18.0026667 L5.18,18.0026667 L5.18,18.936 L8.75466667,18.936 L4.9,23.808 L4.9,24.6666667 L10.3973333,24.6666667 Z M12.376,24.6666667 L12.376,18.0026667 L11.284,18.0026667 L11.284,24.6666667 L12.376,24.6666667 Z M14.7746667,24.6666667 L14.7746667,22.1093333 L16.4266667,22.1093333 C18.0506667,22.1093333 18.8626667,21.4186667 18.8626667,20.0466667 C18.8626667,18.684 18.0506667,18.0026667 16.4453333,18.0026667 L13.6826667,18.0026667 L13.6826667,24.6666667 L14.7746667,24.6666667 Z M16.3613333,21.176 L14.7746667,21.176 L14.7746667,18.936 L16.3613333,18.936 C16.8373333,18.936 17.192,19.02 17.416,19.1973333 C17.64,19.3653333 17.7613333,19.6453333 17.7613333,20.0466667 C17.7613333,20.448 17.6493333,20.7373333 17.4253333,20.9146667 C17.2013333,21.0826667 16.8466667,21.176 16.3613333,21.176 Z" id="ZIP" fill="#FFFFFF" fill-rule="nonzero"></path>
            <g id="编组" transform="translate(4.000000, 0.000000)">
                <rect id="矩形" fill="#FFFFFF" x="6.07291994e-14" y="0" width="2" height="2"></rect>
                <rect id="矩形备份" fill="#FFFFFF" x="2" y="2" width="2" height="2"></rect>
                <rect id="矩形备份-2" fill="#FFFFFF" x="6.07291994e-14" y="4" width="2" height="2"></rect>
                <rect id="矩形备份-3" fill="#FFFFFF" x="2" y="6" width="2" height="2"></rect>
                <rect id="矩形备份-5" fill="#FFFFFF" x="2" y="10" width="2" height="2"></rect>
                <rect id="矩形备份-4" fill="#FFFFFF" x="6.07291994e-14" y="8" width="2" height="2"></rect>
                <rect id="矩形备份-6" stroke="#FFFFFF" x="0.5" y="12.5" width="3" height="2"></rect>
            </g>
        </g>
    </g>
</svg>