<svg xmlns="http://www.w3.org/2000/svg" xmlns:xlink="http://www.w3.org/1999/xlink" fill="none" version="1.1" width="20" height="20" viewBox="0 0 20 20"><defs><clipPath id="master_svg0_741_13648"><rect x="0" y="0" width="20" height="20" rx="0"/></clipPath><clipPath id="master_svg1_741_13648/741_13322"><rect x="0" y="0" width="20" height="20" rx="0"/></clipPath></defs><g clip-path="url(#master_svg0_741_13648)"><g clip-path="url(#master_svg1_741_13648/741_13322)"><g><path d="M2,10L2,3Q2,2.901509,2.0192147,2.80491Q2.0384294,2.708311,2.0761205,2.6173159999999998Q2.113811,2.526322,2.16853,2.44443Q2.223249,2.362537,2.292893,2.292893Q2.362537,2.223249,2.44443,2.16853Q2.526322,2.113811,2.6173159999999998,2.0761205Q2.708311,2.0384294,2.80491,2.0192147Q2.901509,2,3,2L17,2Q17.0985,2,17.1951,2.0192147Q17.2917,2.0384294,17.3827,2.0761205Q17.4737,2.113811,17.5556,2.16853Q17.6375,2.223249,17.7071,2.292893Q17.776699999999998,2.362537,17.8315,2.44443Q17.886200000000002,2.526322,17.9239,2.6173159999999998Q17.9616,2.708311,17.980800000000002,2.80491Q18,2.901509,18,3L18,10Q18,10.09849,17.980800000000002,10.19509Q17.9616,10.29169,17.9239,10.38268Q17.886200000000002,10.47368,17.8315,10.55557Q17.776699999999998,10.63746,17.7071,10.70711Q17.6375,10.77675,17.5556,10.83147Q17.4737,10.88619,17.3827,10.92388Q17.2917,10.96157,17.1951,10.98078Q17.0985,11,17,11L3,11Q2.901509,11,2.80491,10.98078Q2.708311,10.96157,2.6173159999999998,10.92388Q2.526322,10.88619,2.44443,10.83147Q2.362537,10.77675,2.292893,10.70711Q2.223249,10.63746,2.16853,10.55557Q2.113811,10.47368,2.0761205,10.38268Q2.0384294,10.29169,2.0192147,10.19509Q2,10.09849,2,10ZM5,5.5C5,5.22386,5.22386,5,5.5,5L14.5,5C14.7761,5,15,5.22386,15,5.5C15,5.77614,14.7761,6,14.5,6L5.5,6C5.22386,6,5,5.77614,5,5.5ZM5,8.5C5,8.22386,5.22386,8,5.5,8L10.5,8C10.77614,8,11,8.22386,11,8.5C11,8.77614,10.77614,9,10.5,9L5.5,9C5.22386,9,5,8.77614,5,8.5ZM5.193,15.4381L5.1795,15.4381L3.093,12.0836L2,12.0836L2,17.0836L3.029,17.0836L3.029,13.7361L3.0425,13.7361L5.1235,17.0836L6.2235,17.0836L6.2235,12.0836L5.193,12.0836L5.193,15.4381ZM8.29,13.0071L10.9295,13.0071L10.9305,13.0081L10.9305,12.0836L7.1905,12.0836L7.1905,17.0836L10.9865,17.0836L10.9865,16.159100000000002L8.29,16.159100000000002L8.29,14.9336L10.713,14.9336L10.713,14.0786L8.29,14.0786L8.29,13.0071ZM13.335,15.4866L13.3205,15.4866L12.531,12.0836L11.431,12.0836L12.754,17.0836L13.867,17.0836L14.7,13.6791L14.7125,13.6791L15.5625,17.0836L16.6555,17.0836L18,12.0836L16.921,12.0836L16.1,15.5296L16.0875,15.5296L15.233,12.0836L14.204,12.0836L13.335,15.4866Z" fill-rule="evenodd" fill="#F0F" fill-opacity="1"/></g></g></g></svg>