<svg xmlns="http://www.w3.org/2000/svg" xmlns:xlink="http://www.w3.org/1999/xlink" fill="none" version="1.1" width="20" height="20" viewBox="0 0 20 20"><defs><clipPath id="master_svg0_741_13661"><rect x="0" y="0" width="20" height="20" rx="0"/></clipPath></defs><g clip-path="url(#master_svg0_741_13661)"><g><path d="M14.448,8.928Q13.504,8.928,12.68,9.280000000000001Q11.856,9.632,11.248,10.248000000000001Q10.64,10.864,10.28,11.687999999999999Q9.92,12.512,9.92,13.456Q9.92,14.24,10.192,14.976L4.064,14.976Q3.7279999999999998,14.976,3.3680000000000003,14.832Q3.008,14.688,2.7039999999999997,14.424Q2.4,14.16,2.208,13.784Q2.016,13.408,2.016,12.944L2.016,12.288L2.016,11.008Q2.016,10.272,2.008,9.432Q2,8.591999999999999,2,7.872L2,6.640000000000001L2,6.08Q2,5.12,2.536,4.5600000000000005Q3.072,4,4.016,4L11.888,4Q12.256,4,12.632,4.136Q13.008,4.272,13.304,4.5120000000000005Q13.6,4.752,13.792,5.072Q13.984,5.3919999999999995,13.984,5.76L13.984,5.968L5.904,5.968Q5.104,5.968,4.848,6.864Q4.720000000000001,7.327999999999999,4.5600000000000005,7.848Q4.4,8.368,4.272,8.815999999999999Q4.112,9.344000000000001,3.952,9.84Q3.92,9.968,3.92,10.064Q3.92,10.32,4.096,10.504Q4.272,10.687999999999999,4.5440000000000005,10.687999999999999Q4.816,10.687999999999999,4.96,10.496Q5.104,10.304,5.184,10.064L6.064,6.992L14.528,6.992Q14.816,7.04,15.088,7.176Q15.36,7.311999999999999,15.56,7.5440000000000005Q15.76,7.776,15.848,8.120000000000001Q15.936,8.464,15.856,8.928Q15.856,8.96,15.848,9.008Q15.84,9.056000000000001,15.824,9.136Q15.2,8.928,14.448,8.928ZM14.528,10Q15.248,10,15.872,10.272Q16.496000000000002,10.544,16.968,11.016Q17.439999999999998,11.488,17.712,12.112Q17.984,12.736,17.984,13.456Q17.984,14.176,17.712,14.8Q17.439999999999998,15.424,16.968,15.896Q16.496000000000002,16.368000000000002,15.872,16.64Q15.248,16.912,14.528,16.912Q13.808,16.912,13.184,16.64Q12.56,16.368000000000002,12.088,15.896Q11.616,15.424,11.344,14.8Q11.072,14.176,11.072,13.456Q11.072,12.736,11.344,12.112Q11.616,11.488,12.088,11.016Q12.56,10.544,13.184,10.272Q13.808,10,14.528,10ZM15.2,13.408L16.256,12.336Q16.4,12.192,16.4,11.984Q16.4,11.776,16.256,11.632Q16.112000000000002,11.488,15.904,11.488Q15.696,11.488,15.552,11.632L14.48,12.704L13.424,11.632Q13.28,11.488,13.072,11.488Q12.864,11.488,12.72,11.632Q12.576,11.776,12.576,11.984Q12.576,12.192,12.72,12.336L13.776,13.408L12.72,14.464Q12.576,14.608,12.576,14.816Q12.576,15.024,12.72,15.168Q12.864,15.328,13.072,15.328Q13.28,15.328,13.424,15.168L14.48,14.112L15.552,15.168Q15.696,15.328,15.904,15.328Q16.112000000000002,15.328,16.256,15.168Q16.4,15.024,16.4,14.816Q16.4,14.608,16.256,14.464L15.2,13.408Z" fill="#255867" fill-opacity="1"/></g></g></svg>