<svg xmlns="http://www.w3.org/2000/svg" xmlns:xlink="http://www.w3.org/1999/xlink" version="1.1" width="20" height="20" viewBox="0 0 20 20"><defs><clipPath id="master_svg0_741_13645"><rect x="0" y="0" width="20" height="20" rx="0"/></clipPath><clipPath id="master_svg1_741_13645/741_13253"><rect x="0" y="0" width="20" height="20" rx="0"/></clipPath></defs><g clip-path="url(#master_svg0_741_13645)"><g clip-path="url(#master_svg1_741_13645/741_13253)"><g><path d="M12.6749,16.178207360839842L5.53342,16.178207360839842L5.53342,16.176107360839843L7.3372,16.176107360839843L7.3372,13.722707360839843C7.3372,13.705607360839844,7.34253,13.690707360839843,7.34253,13.674707360839843C7.37561,12.228127360839844,8.559149999999999,11.073497360839843,10.00606,11.076197360839844C11.45339,11.072917360839844,12.6376,12.227717360839844,12.6707,13.674707360839843C12.6707,13.690707360839843,12.6749,13.706707360839843,12.6749,13.722707360839843L12.6749,16.178207360839842ZM17.698,7.349167360839844L16.011499999999998,6.254747360839843L16.011499999999998,4.135227360839844C16.011499999999998,3.7704173608398435,15.7129,3.473872360839844,15.3438,3.473872360839844C14.977,3.4721013608398437,14.6783,3.768367360839844,14.6771,4.135227360839844L14.6771,5.390717360839844L10.37194,2.5959839608398436C10.25864,2.5266053608398438,10.127,2.4931377308398437,9.99433,2.499981480839844C9.86522,2.4950894108398436,9.73756,2.528491160839844,9.62739,2.5959839608398436L2.301336,7.350237360839844C1.99350608,7.548527360839843,1.9071453,7.960177360839844,2.109331,8.265457360839843C2.3132960000000002,8.570177360839843,2.723873,8.655137360839845,3.03202,8.456397360839844L3.3339,8.260127360839844L3.3339,16.374507360839843C3.3339,16.995307360839846,3.90031,17.500907360839843,4.5968599999999995,17.500907360839843L15.4153,17.500907360839843C16.111800000000002,17.500907360839843,16.6782,16.995307360839846,16.6782,16.374507360839843L16.6782,8.267597360839844L16.9673,8.455327360839844C17.2759,8.654577360839845,17.6874,8.569057360839844,17.8911,8.263327360839844C18.093,7.958097360839844,18.0061,7.546697360839843,17.698,7.349167360839844Z"/></g></g></g></svg>