<svg xmlns="http://www.w3.org/2000/svg" xmlns:xlink="http://www.w3.org/1999/xlink" fill="none" version="1.1" width="20" height="20" viewBox="0 0 20 20"><defs><clipPath id="master_svg0_741_13659"><rect x="0" y="0" width="20" height="20" rx="0"/></clipPath></defs><g clip-path="url(#master_svg0_741_13659)"><g><path d="M12.68,9.280000000000001Q13.504,8.928,14.448,8.928Q15.2,8.928,15.824,9.136Q15.84,9.056000000000001,15.848,9.008Q15.856,8.96,15.856,8.928Q15.936,8.464,15.848,8.120000000000001Q15.76,7.776,15.56,7.5440000000000005Q15.36,7.311999999999999,15.088,7.176Q14.816,7.04,14.528,6.992L6.064,6.992L5.184,10.064Q5.104,10.304,4.96,10.496Q4.816,10.687999999999999,4.5440000000000005,10.687999999999999Q4.272,10.687999999999999,4.096,10.504Q3.92,10.32,3.92,10.064Q3.92,9.968,3.952,9.84Q4.112,9.344000000000001,4.272,8.815999999999999Q4.4,8.368,4.5600000000000005,7.848Q4.720000000000001,7.327999999999999,4.848,6.864Q5.104,5.968,5.904,5.968L13.984,5.968L13.984,5.76Q13.984,5.3919999999999995,13.792,5.072Q13.6,4.752,13.304,4.5120000000000005Q13.008,4.272,12.632,4.136Q12.256,4,11.888,4L4.016,4Q3.072,4,2.536,4.5600000000000005Q2,5.12,2,6.08L2,7.872Q2,8.591999999999999,2.00800037,9.432Q2.0159998,10.272,2.0159998,11.008L2.0159998,12.944Q2.0159998,13.408,2.208,13.784Q2.4,14.16,2.7039999999999997,14.424Q3.008,14.688,3.3680000000000003,14.832Q3.7279999999999998,14.976,4.064,14.976L10.192,14.976Q9.92,14.24,9.92,13.456Q9.92,12.512,10.28,11.687999999999999Q10.64,10.864,11.248,10.248000000000001Q11.856,9.632,12.68,9.280000000000001ZM18,13.5C18,15.433,16.433,17,14.5,17C12.567,17,11,15.433,11,13.5C11,11.567,12.567,10,14.5,10C16.433,10,18,11.567,18,13.5ZM16.1765,11.856919999999999C16.3216,11.856919999999999,16.4458,11.90845,16.549300000000002,12.01142C16.6518,12.11439,16.703699999999998,12.23837,16.703699999999998,12.38321C16.703699999999998,12.52797,16.6511,12.65358,16.5469,12.75817L14.3124,14.9919C14.2117,15.0933,14.0881,15.1448,13.9421,15.1448C13.7938,15.1448,13.6692,15.0933,13.5679,14.9919L12.4486,13.87664C12.3475,13.77521,12.2964,13.65131,12.2964,13.50168C12.2964,13.35684,12.3481,13.23286,12.4507,13.12989C12.5543,13.02692,12.6781,12.97539,12.8234,12.97539C12.9689,12.97539,13.0936,13.02692,13.1979,13.13151L13.9428,13.87664L15.8023,12.01296C15.9066,11.90837,16.0315,11.85522,16.1769,11.85522L16.1765,11.856919999999999Z" fill-rule="evenodd" fill="#255867" fill-opacity="1"/></g></g></svg>