<svg xmlns="http://www.w3.org/2000/svg" xmlns:xlink="http://www.w3.org/1999/xlink" fill="none" version="1.1" width="20" height="20" viewBox="0 0 20 20"><defs><clipPath id="master_svg0_741_13649"><rect x="0" y="0" width="20" height="20" rx="0"/></clipPath><clipPath id="master_svg1_741_13649/741_13332"><rect x="0" y="0" width="20" height="20" rx="0"/></clipPath></defs><g clip-path="url(#master_svg0_741_13649)"><g clip-path="url(#master_svg1_741_13649/741_13332)"><g><path d="M5.54114,16.903100000000002L14.4597,16.903100000000002C15.8626,16.903100000000002,17.0004,15.8522,17,14.5557L17,4.34739C17,3.05092,15.8626,2,14.4593,2L14.1315,2L14.1315,6.2033L13.3066,5.40892L12.47837,6.2033L12.47837,2L5.54114,2C4.13783,2,3,3.05092,3,4.34739L3,14.5557C3,15.8522,4.13783,16.903100000000002,5.54114,16.903100000000002ZM12.56207,12.2787Q12.9774,11.52267,12.9774,10.40267Q12.9774,9.32934,12.57607,8.606Q12.17473,7.88267,11.4374,7.50934Q10.70006,7.136,9.692070000000001,7.136L7.63873,7.136L7.63873,13.8L9.49607,13.8Q10.5974,13.8,11.37206,13.4173Q12.14673,13.0347,12.56207,12.2787ZM11.79673,8.97467Q12.09073,9.544,12.09073,10.43067Q12.09073,11.74667,11.41406,12.414Q10.737400000000001,13.0813,9.38406,13.0813L8.478729999999999,13.0813L8.478729999999999,7.85467L9.570730000000001,7.85467Q10.3734,7.85467,10.93807,8.129999999999999Q11.50273,8.405339999999999,11.79673,8.97467Z" fill-rule="evenodd" fill="#255867" fill-opacity="1"/></g></g></g></svg>