<svg xmlns="http://www.w3.org/2000/svg" xmlns:xlink="http://www.w3.org/1999/xlink" fill="none" version="1.1" width="20" height="18.693588256835938" viewBox="0 0 20 18.693588256835938"><defs><clipPath id="master_svg0_741_13665"><rect x="0" y="0" width="20" height="18.693588256835938" rx="0"/></clipPath></defs><g clip-path="url(#master_svg0_741_13665)"><g><path d="M14.8016,7.16118435546875C14.538,6.36800435546875,14.0975,5.62524435546875,13.5392,5.03060435546875C11.61517,2.98328835546875,8.54889,2.62544235546875,6.2057400000000005,4.13268435546875L9.35782,8.95894435546875L14.8016,7.16118435546875ZM5.16509,3.84325435546875C4.88743,4.02719435546875,4.6293500000000005,4.23103435546875,4.39067,4.4554443554687495C3.776445,5.03303435546875,3.313687,5.73717435546875,3,6.53204435546875L8.33478,8.65437435546875L5.16509,3.84328235546875L5.16509,3.84325435546875ZM10.43805,12.33192435546875C10.43805,10.449774355468751,11.96369,8.92440435546875,13.8456,8.92440435546875C14.2155,8.92440435546875,14.5708,8.98531435546875,14.9044,9.09426435546875C14.8602,8.71209435546875,14.7787,8.33128435546875,14.6546,7.95727435546875L9.19236,9.73339435546875L3.8578989999999997,7.61224435546875C3.0444895,9.68711435546875,3.49035,12.04376435546875,5.010730000000001,13.66171435546875C6.7622800000000005,15.52651435546875,9.458680000000001,15.97521435546875,11.65449,14.93961435546875C10.91111,14.31451435546875,10.43805,13.37871435546875,10.43805,12.33192435546875ZM13.8456,9.17748435546875C12.10346,9.17748435546875,10.691099999999999,10.58977435546875,10.691099999999999,12.33191435546875C10.691099999999999,14.07431435546875,12.10346,15.48641435546875,13.8456,15.48641435546875C15.5877,15.48641435546875,17,14.07431435546875,17,12.33191435546875C17.0001,10.58976435546875,15.5877,9.17748435546875,13.8456,9.17748435546875ZM12.90245,13.87841435546875C12.90245,13.94841435546875,12.84506,14.00671435546875,12.77477,14.00671435546875L12.13395,14.00671435546875C12.06363,14.00671435546875,12.00558,13.94841435546875,12.00558,13.87841435546875L12.00558,12.52706435546875C12.00558,12.45673435546875,12.06364,12.39871435546875,12.13395,12.39871435546875L12.77477,12.39871435546875C12.84506,12.39871435546875,12.90245,12.45673435546875,12.90245,12.52706435546875L12.90245,13.87841435546875ZM15.6911,13.87841435546875C15.6911,13.94841435546875,15.6331,14.00671435546875,15.5629,14.00671435546875L14.9226,14.00671435546875C14.8516,14.00671435546875,14.7943,13.94841435546875,14.7943,13.87841435546875L14.7943,11.57215435546875C14.7943,11.50186435546875,14.8517,11.44444435546875,14.9226,11.44444435546875L15.5629,11.44444435546875C15.6332,11.44444435546875,15.6911,11.50186435546875,15.6911,11.57215435546875L15.6911,13.87841435546875ZM14.2937,13.87841435546875C14.2937,13.94841435546875,14.2362,14.00671435546875,14.1659,14.00671435546875L13.5257,14.00671435546875C13.4548,14.00671435546875,13.3975,13.94841435546875,13.3975,13.87841435546875L13.3975,10.57866435546875C13.3975,10.50841435546875,13.4549,10.45094435546875,13.5257,10.45094435546875L14.1659,10.45094435546875C14.2363,10.45094435546875,14.2937,10.50837435546875,14.2937,10.57866435546875L14.2937,13.87841435546875Z" fill="#255867" fill-opacity="1"/></g></g></svg>