<svg xmlns="http://www.w3.org/2000/svg" xmlns:xlink="http://www.w3.org/1999/xlink" fill="none" version="1.1" width="20" height="20" viewBox="0 0 20 20"><defs><clipPath id="master_svg0_741_13642"><rect x="0" y="0" width="20" height="20" rx="0"/></clipPath><clipPath id="master_svg1_741_13642/230_9566"><rect x="0" y="0" width="20" height="20" rx="0"/></clipPath></defs><g clip-path="url(#master_svg0_741_13642)"><g clip-path="url(#master_svg1_741_13642/230_9566)"><g><rect x="0" y="0" width="20" height="20" rx="0" fill="#FFFFFF" fill-opacity="0"/></g><g><path d="M9,13.75L9,16.25Q9,16.348489999999998,9.019214999999999,16.44509Q9.03843,16.54169,9.076121,16.63268Q9.113812,16.72368,9.16853,16.80557Q9.223249,16.88746,9.292893,16.95711Q9.362537,17.02675,9.44443,17.08147Q9.526322,17.13619,9.617317,17.17388Q9.708311,17.211570000000002,9.80491,17.23078Q9.9015086,17.25,10,17.25Q10.0984914,17.25,10.19509,17.23078Q10.291689,17.211570000000002,10.382683,17.17388Q10.473678,17.13619,10.55557,17.08147Q10.637463,17.02675,10.707107,16.95711Q10.776751,16.88746,10.83147,16.80557Q10.886188,16.72368,10.923879,16.63268Q10.96157,16.54169,10.980785000000001,16.44509Q11,16.348489999999998,11,16.25L11,13.75Q11,13.6515086,10.980785000000001,13.55491Q10.96157,13.458311,10.923879,13.367317Q10.886188,13.276322,10.83147,13.19443Q10.776751,13.112537,10.707107,13.042893Q10.637463,12.973249,10.55557,12.91853Q10.473678,12.863812,10.382683,12.826121Q10.291689,12.78843,10.19509,12.769214999999999Q10.0984914,12.75,10,12.75Q9.9015086,12.75,9.80491,12.769214999999999Q9.708311,12.78843,9.617317,12.826121Q9.526322,12.863812,9.44443,12.91853Q9.362537,12.973249,9.292893,13.042893Q9.223249,13.112537,9.16853,13.19443Q9.113812,13.276322,9.076121,13.367317Q9.03843,13.458311,9.019214999999999,13.55491Q9,13.6515086,9,13.75Z" fill-rule="evenodd" fill="#255867" fill-opacity="1"/></g><g><path d="M2.6666259765625,13.74998701171875L17.3333259765625,13.74998701171875C17.8856259765625,13.74998701171875,18.3333259765625,13.30228701171875,18.3333259765625,12.75001701171875L18.3333259765625,3.91668701171875C18.3333259765625,3.36440201171875,17.8856259765625,2.91668701171875,17.3333259765625,2.91668701171875L2.6666259765625,2.91668701171875C2.1143409765625,2.91668701171875,1.6666259765625,3.36440201171875,1.6666259765625,3.91668701171875L1.6666259765625,12.75001701171875C1.6666259765625,13.30228701171875,2.1143409765625,13.74998701171875,2.6666259765625,13.74998701171875ZM12.3336259765625,10.83331701171875L12.3336259765625,5.83331701171875Q12.3336259765625,5.73481701171875,12.3528259765625,5.63822701171875Q12.3720259765625,5.5416270117187505,12.4097259765625,5.450627011718749Q12.4474259765625,5.35963701171875,12.5021259765625,5.27774701171875Q12.5568259765625,5.19584701171875,12.6265259765625,5.1262070117187495Q12.6961259765625,5.05656701171875,12.7780259765625,5.00184701171875Q12.8599259765625,4.9471270117187505,12.9509259765625,4.90943701171875Q13.0419259765625,4.87174701171875,13.1385259765625,4.85252701171875Q13.2351259765625,4.83331701171875,13.3336259765625,4.83331701171875Q13.4321259765625,4.83331701171875,13.5287259765625,4.85252701171875Q13.6253259765625,4.87174701171875,13.7163259765625,4.90943701171875Q13.8073259765625,4.9471270117187505,13.8892259765625,5.00184701171875Q13.9711259765625,5.05656701171875,14.0407259765625,5.1262070117187495Q14.1103259765625,5.19584701171875,14.1651259765625,5.27774701171875Q14.2198259765625,5.35963701171875,14.2575259765625,5.450627011718749Q14.2952259765625,5.5416270117187505,14.3144259765625,5.63822701171875Q14.3336259765625,5.73481701171875,14.3336259765625,5.83331701171875L14.3336259765625,10.83331701171875Q14.3336259765625,10.93180701171875,14.3144259765625,11.02840701171875Q14.2952259765625,11.12499701171875,14.2575259765625,11.21599701171875Q14.2198259765625,11.30698701171875,14.1651259765625,11.38887701171875Q14.1103259765625,11.47077701171875,14.0407259765625,11.54041701171875Q13.9711259765625,11.61005701171875,13.8892259765625,11.66477701171875Q13.8073259765625,11.71949701171875,13.7163259765625,11.75718701171875Q13.6253259765625,11.79487701171875,13.5287259765625,11.81409701171875Q13.4321259765625,11.83331701171875,13.3336259765625,11.83331701171875Q13.2351259765625,11.83331701171875,13.1385259765625,11.81409701171875Q13.0419259765625,11.79487701171875,12.9509259765625,11.75718701171875Q12.8599259765625,11.71949701171875,12.7780259765625,11.66477701171875Q12.6961259765625,11.61005701171875,12.6265259765625,11.54041701171875Q12.5568259765625,11.47077701171875,12.5021259765625,11.38887701171875Q12.4474259765625,11.30698701171875,12.4097259765625,11.21599701171875Q12.3720259765625,11.12499701171875,12.3528259765625,11.02840701171875Q12.3336259765625,10.93180701171875,12.3336259765625,10.83331701171875ZM9.0001259765625,10.83333701171875L9.0001259765625,7.49999701171875Q9.0001259765625,7.40150701171875,9.0193359765625,7.30490701171875Q9.0385459765625,7.20830701171875,9.0762459765625,7.11731701171875Q9.1139359765625,7.02631701171875,9.168655976562501,6.94442701171875Q9.2233659765625,6.86253701171875,9.2930159765625,6.79289701171875Q9.3626559765625,6.72324701171875,9.4445459765625,6.66852701171875Q9.5264459765625,6.61380701171875,9.6174359765625,6.57611701171875Q9.7084359765625,6.53842701171875,9.8050359765625,6.51921701171875Q9.9016259765625,6.49999701171875,10.0001259765625,6.49999701171875Q10.0986159765625,6.49999701171875,10.1952159765625,6.51921701171875Q10.2918159765625,6.53842701171875,10.3828059765625,6.57611701171875Q10.4737959765625,6.61380701171875,10.5556959765625,6.66852701171875Q10.6375859765625,6.72324701171875,10.7072259765625,6.79289701171875Q10.7768759765625,6.86253701171875,10.8315859765625,6.94442701171875Q10.8863059765625,7.02631701171875,10.9239959765625,7.11731701171875Q10.9616959765625,7.20830701171875,10.9809059765625,7.30490701171875Q11.0001259765625,7.40150701171875,11.0001259765625,7.49999701171875L11.0001259765625,10.83333701171875Q11.0001259765625,10.93182701171875,10.9809059765625,11.02842701171875Q10.9616959765625,11.12501701171875,10.9239959765625,11.21601701171875Q10.8863059765625,11.30700701171875,10.8315859765625,11.38889701171875Q10.7768759765625,11.47079701171875,10.7072259765625,11.54043701171875Q10.6375859765625,11.61007701171875,10.5556959765625,11.66479701171875Q10.4737959765625,11.71951701171875,10.3828059765625,11.75720701171875Q10.2918159765625,11.79489701171875,10.1952159765625,11.81411701171875Q10.0986159765625,11.83333701171875,10.0001259765625,11.83333701171875Q9.9016259765625,11.83333701171875,9.8050359765625,11.81411701171875Q9.7084359765625,11.79489701171875,9.6174359765625,11.75720701171875Q9.5264459765625,11.71951701171875,9.4445459765625,11.66479701171875Q9.3626559765625,11.61007701171875,9.2930159765625,11.54043701171875Q9.2233659765625,11.47079701171875,9.168655976562501,11.38889701171875Q9.1139359765625,11.30700701171875,9.0762459765625,11.21601701171875Q9.0385459765625,11.12501701171875,9.0193359765625,11.02842701171875Q9.0001259765625,10.93182701171875,9.0001259765625,10.83333701171875ZM5.6666259765625,10.83335701171875L5.6666259765625,9.16668701171875Q5.6666259765625,9.06819701171875,5.6858359765625,8.97159701171875Q5.7050559765625,8.87499701171875,5.7427459765625,8.78400701171875Q5.7804359765625,8.69300701171875,5.8351559765625,8.61111701171875Q5.8898759765625,8.52922701171875,5.9595159765625,8.45957701171875Q6.0291659765625,8.38993701171875,6.1110559765625,8.33521701171875Q6.1929459765625,8.28049701171875,6.2839459765625,8.24280701171875Q6.3749359765625,8.20511701171875,6.4715359765625,8.185897011718751Q6.5681359765625,8.16668701171875,6.6666259765625,8.16668701171875Q6.7651159765625,8.16668701171875,6.8617159765625,8.185897011718751Q6.9583159765625,8.20511701171875,7.0493059765625,8.24280701171875Q7.1403059765625,8.28049701171875,7.2221959765625,8.33521701171875Q7.3040859765625,8.38993701171875,7.3737359765625,8.45957701171875Q7.4433759765625,8.52922701171875,7.4980959765625,8.61111701171875Q7.5528159765625,8.69300701171875,7.5905059765625,8.78400701171875Q7.6281959765625,8.87499701171875,7.6474059765625,8.97159701171875Q7.6666259765625,9.06819701171875,7.6666259765625,9.16668701171875L7.6666259765625,10.83335701171875Q7.6666259765625,10.93184701171875,7.6474059765625,11.02844701171875Q7.6281959765625,11.12503701171875,7.5905059765625,11.21603701171875Q7.5528159765625,11.30702701171875,7.4980959765625,11.38892701171875Q7.4433759765625,11.47081701171875,7.3737359765625,11.54045701171875Q7.3040859765625,11.61010701171875,7.2221959765625,11.66482701171875Q7.1403059765625,11.71953701171875,7.0493059765625,11.75722701171875Q6.9583159765625,11.79492701171875,6.8617159765625,11.81413701171875Q6.7651159765625,11.83335701171875,6.6666259765625,11.83335701171875Q6.5681359765625,11.83335701171875,6.4715359765625,11.81413701171875Q6.3749359765625,11.79492701171875,6.2839459765625,11.75722701171875Q6.1929459765625,11.71953701171875,6.1110559765625,11.66481701171875Q6.0291659765625,11.61010701171875,5.9595159765625,11.54045701171875Q5.8898759765625,11.47081701171875,5.8351559765625,11.38892701171875Q5.7804359765625,11.30702701171875,5.7427459765625,11.21603701171875Q5.7050559765625,11.12503701171875,5.6858359765625,11.02844701171875Q5.6666259765625,10.93184701171875,5.6666259765625,10.83335701171875Z" fill-rule="evenodd" fill="#255867" fill-opacity="1"/></g><g><path d="M5,18.08331298828125L15,18.08331298828125Q15.0985,18.08331298828125,15.1951,18.06409798828125Q15.2917,18.044882988281252,15.3827,18.00719198828125Q15.4737,17.96950098828125,15.5556,17.91478298828125Q15.6375,17.86006398828125,15.7071,17.79041998828125Q15.7767,17.72077598828125,15.8315,17.63888298828125Q15.8862,17.55699098828125,15.9239,17.46599598828125Q15.9616,17.37500198828125,15.9808,17.27840298828125Q16,17.18180438828125,16,17.08331298828125Q16,16.98482158828125,15.9808,16.88822298828125Q15.9616,16.79162398828125,15.9239,16.70062998828125Q15.8862,16.60963498828125,15.8315,16.52774298828125Q15.7767,16.44584998828125,15.7071,16.37620598828125Q15.6375,16.30656198828125,15.5556,16.25184298828125Q15.4737,16.19712498828125,15.3827,16.15943398828125Q15.2917,16.121742988281248,15.1951,16.10252798828125Q15.0985,16.08331298828125,15,16.08331298828125L5,16.08331298828125Q4.9015086,16.08331298828125,4.80491,16.10252798828125Q4.708311,16.121742988281248,4.617317,16.15943398828125Q4.526322,16.19712498828125,4.44443,16.25184298828125Q4.362537,16.30656198828125,4.292893,16.37620598828125Q4.223249,16.44584998828125,4.16853,16.52774298828125Q4.113812,16.60963498828125,4.076121,16.70062998828125Q4.03843,16.79162398828125,4.019215,16.88822298828125Q4,16.98482158828125,4,17.08331298828125Q4,17.18180438828125,4.019215,17.27840298828125Q4.03843,17.37500198828125,4.076121,17.46599598828125Q4.113812,17.55699098828125,4.16853,17.63888298828125Q4.223249,17.72077598828125,4.292893,17.79041998828125Q4.362537,17.86006398828125,4.44443,17.91478298828125Q4.526322,17.96950098828125,4.617317,18.00719198828125Q4.708311,18.044882988281252,4.80491,18.06409798828125Q4.9015086,18.08331298828125,5,18.08331298828125Z" fill-rule="evenodd" fill="#255867" fill-opacity="1"/></g></g></g></svg>